<svg xmlns="http://www.w3.org/2000/svg" xmlns:xlink="http://www.w3.org/1999/xlink" width="1920" height="1080" viewBox="0 0 1920 1080">
  <defs>
    <clipPath id="clip-Web_1920_1">
      <rect width="1920" height="1080"/>
    </clipPath>
  </defs>
  <g id="Web_1920_1" data-name="Web 1920 – 1" clip-path="url(#clip-Web_1920_1)">
    <rect width="1920" height="1080" fill="#fff"/>
    <path id="Path_7" data-name="Path 7" d="M103.442,191.721H91.374c-3.218,0-5.632-2.414-6.436-6.436-7.241-35.4,5.632-75.627,33.791-111.026S195.159,11.5,237.8,10.7a8.85,8.85,0,0,1,8.045,7.241c6.436,42.641-12.873,92.522-49.881,130.335S134.819,191.721,103.442,191.721Zm-4.023-16.091c27.354,1.609,58.731-12.873,85.281-39.422S232.973,63,230.559,26.791c-35.4,2.414-72.409,24.136-98.958,57.122S96.2,146.667,99.419,175.631Z" transform="translate(837.81 183.553)" fill="#1b75bb"/>
    <path id="Path_8" data-name="Path 8" d="M656.79,383.384c-53.1-26.55-82.868-63.559-91.718-111.831H548.981c8.85,53.1,39.422,93.327,94.131,123.095v1.609c-1.609,5.632-4.023,11.264-5.632,16.091A406.289,406.289,0,0,1,553,541.073c-28.159,28.964-59.536,37.009-97.349,23.332l-5.632-1.609-19.309-7.241a164.93,164.93,0,0,0-123.9,0c-11.264,4.827-24.136,8.045-35.4,12.068a74.822,74.822,0,0,1-77.236-17.7A417.556,417.556,0,0,1,70.28,329.48C55.8,262.7,59.016,206.385,79.934,156.5A171.367,171.367,0,0,1,220.729,47.891V31.8A189.067,189.067,0,0,0,64.648,150.067c-21.723,53.1-24.941,113.44-9.654,182.631A430.429,430.429,0,0,0,182.916,561.992a90.913,90.913,0,0,0,61.95,25.745,101.373,101.373,0,0,0,30.573-4.827l36.2-12.068a144.012,144.012,0,0,1,112.636,0l20.114,7.241,4.827,1.609c43.445,15.286,82.063,6.436,115.049-27.354a420.773,420.773,0,0,0,86.89-133.554,156.9,156.9,0,0,0,6.436-17.7l2.414-8.045a7.241,7.241,0,0,0-3.218-9.654Z" transform="translate(574.097 332.211)" fill="#1b75bb"/>
    <path id="Path_9" data-name="Path 9" d="M70.7,50.783a223.662,223.662,0,0,1,53.9,14.482,129.531,129.531,0,0,0,111.831,0A175.39,175.39,0,0,1,377.23,59.633a144.817,144.817,0,0,1,67.581,49.077c-50.686,33.791-76.431,79.649-75.627,136.772h16.091c0-53.9,24.941-96.545,75.627-127.922a8.046,8.046,0,0,0,3.218-5.632,7.241,7.241,0,0,0-.8-5.632,160.1,160.1,0,0,0-80.454-61.95A194.7,194.7,0,0,0,230,49.978a115.049,115.049,0,0,1-98.958.8A192.286,192.286,0,0,0,70.7,34.692Z" transform="translate(751.48 329.318)" fill="#1b75bb"/>
  </g>
</svg>
