<svg xmlns="http://www.w3.org/2000/svg" width="738.783" height="704.816" viewBox="0 0 738.783 704.816">
  <g id="onlineadvertising1" transform="translate(-92.499 -109.6)">
    <line id="Line_1" data-name="Line 1" y1="0.445" x2="85.751" transform="translate(349.126 286.497)" fill="none" stroke="#1b75bb" stroke-linecap="round" stroke-linejoin="round" stroke-miterlimit="10" stroke-width="4"/>
    <path id="Path_10" data-name="Path 10" d="M286.539,358.415l4.455,291.33H204.352V512.766h82.41L599.474,655.313V239.7l-308.7,119.606H176.957c-37.864,0-71.5,25.391-79.96,62.364a74.263,74.263,0,0,0-.891,29.846c6.236,35.637,38.087,61.028,74.169,61.028h41.65" transform="translate(0 156.603)" fill="none" stroke="#1b75bb" stroke-linecap="round" stroke-linejoin="round" stroke-miterlimit="10" stroke-width="5"/>
    <path id="Path_11" data-name="Path 11" d="M321.4,293.8s122.724,81.964,0,160.365" transform="translate(277.852 222.999)" fill="none" stroke="#1b75bb" stroke-linecap="round" stroke-linejoin="round" stroke-miterlimit="10" stroke-width="5"/>
    <line id="Line_2" data-name="Line 2" y2="228.075" transform="translate(509.937 433.276)" fill="none" stroke="#1b75bb" stroke-linecap="round" stroke-linejoin="round" stroke-miterlimit="10" stroke-width="6"/>
    <path id="Path_12" data-name="Path 12" d="M284.69,370.5c-8.686,0-8.686,13.364,0,13.364S293.376,370.5,284.69,370.5Z" transform="translate(224.802 317.133)" fill="#1b75bb"/>
    <g id="Group_2" data-name="Group 2" transform="translate(521.296 112.1)">
      <path id="Path_13" data-name="Path 13" d="M578.844,262A44.677,44.677,0,0,1,534.3,306.543H330.946A44.677,44.677,0,0,1,286.4,262V156.646A44.677,44.677,0,0,1,330.946,112.1H534.3a44.677,44.677,0,0,1,44.546,44.546Z" transform="translate(-286.4 -112.1)" fill="none" stroke="#1b75bb" stroke-linecap="round" stroke-linejoin="round" stroke-miterlimit="10" stroke-width="5"/>
    </g>
    <path id="Path_14" data-name="Path 14" d="M335.5,134.9V228l73.723-43.209Z" transform="translate(295.156 27.982)" fill="none" stroke="#1b75bb" stroke-linecap="round" stroke-linejoin="round" stroke-miterlimit="10" stroke-width="3"/>
    <path id="Path_15" data-name="Path 15" d="M335.5,134.9V228l73.723-43.209Z" transform="translate(295.156 27.982)" fill="none" stroke="#1b75bb" stroke-linecap="round" stroke-linejoin="round" stroke-miterlimit="10" stroke-width="5"/>
    <path id="Path_16" data-name="Path 16" d="M286.4,119.1" transform="translate(234.896 8.591)" fill="none" stroke="#1b75bb" stroke-miterlimit="10" stroke-width="3"/>
    <path id="Path_17" data-name="Path 17" d="M407.986,122.141H206.861s-15.591-2.9-15.814,27.4c-.223,30.068-.223,181.747-.223,181.747s-2.673,28.509,33.409,21.382l1.336,48.555,55.905-48.555H524.7s18.487,1.114,18.487-23.832V295.425" transform="translate(117.542 12.232)" fill="none" stroke="#1b75bb" stroke-miterlimit="10" stroke-width="5"/>
    <path id="Path_18" data-name="Path 18" d="M318.483,167.291H209.345a.479.479,0,0,1-.445-.445h0a.479.479,0,0,1,.445-.445H318.483a.479.479,0,0,1,.445.445h0A.479.479,0,0,1,318.483,167.291Z" transform="translate(139.781 66.642)" fill="none" stroke="#1b75bb" stroke-miterlimit="10" stroke-width="4"/>
    <path id="Path_19" data-name="Path 19" d="M262.258,186.8c-9.577,0-9.577,14.923,0,14.923S271.835,186.8,262.258,186.8Z" transform="translate(196.451 91.679)" fill="#1b75bb"/>
    <line id="Line_3" data-name="Line 3" x1="60.582" y2="67.932" transform="translate(701.707 441.74)" fill="none" stroke="#1b75bb" stroke-linecap="round" stroke-linejoin="round" stroke-miterlimit="10" stroke-width="5"/>
    <line id="Line_4" data-name="Line 4" x1="91.096" y2="4.455" transform="translate(737.567 601.659)" fill="none" stroke="#1b75bb" stroke-linecap="round" stroke-linejoin="round" stroke-miterlimit="10" stroke-width="5"/>
    <line id="Line_5" data-name="Line 5" x1="68.601" y1="59.914" transform="translate(702.375 689.637)" fill="none" stroke="#1b75bb" stroke-linecap="round" stroke-linejoin="round" stroke-miterlimit="10" stroke-width="5"/>
  </g>
</svg>
