<svg id="Layer_1" data-name="Layer 1" xmlns="http://www.w3.org/2000/svg" viewBox="0 0 339.4 324.1"><defs><style>.cls-1,.cls-3{fill:none;stroke:#1b75bb;stroke-width:10px;}.cls-1{stroke-linecap:round;stroke-linejoin:round;}.cls-2{fill:#1b75bb;}.cls-3{stroke-miterlimit:10;}</style></defs><line class="cls-1" x1="119.1" y1="83.4" x2="157.7" y2="83.2"/><path class="cls-1" d="M181,293l2,130.8H144.1V362.3h37l140.4,64V239.7L182.9,293.4H131.8c-17,0-32.1,11.4-36,28a33.3,33.3,0,0,0-.3,13.4c2.7,16,17,27.4,33.3,27.4h18.7" transform="translate(-90 -107.2)"/><path class="cls-1" d="M321.4,293.8s55.1,36.8,0,72" transform="translate(-90 -107.2)"/><line class="cls-1" x1="191.3" y1="149.1" x2="191.3" y2="251.5"/><path class="cls-2" d="M281.1,370.5c-3.9,0-3.9,6,0,6S285,370.5,281.1,370.5Z" transform="translate(-90 -107.2)"/><rect class="cls-1" x="196.5" y="5" width="131.3" height="87.27" rx="20"/><polygon class="cls-1" points="245.6 27.8 245.6 69.5 278.7 50.2 245.6 27.8"/><polygon class="cls-1" points="245.6 27.8 245.6 69.5 278.7 50.2 245.6 27.8"/><path class="cls-3" d="M286.4,119.1" transform="translate(-90 -107.2)"/><path class="cls-1" d="M288.3,122.1H198s-7-1.2-7.1,12.3-.1,81.6-.1,81.6-1.1,12.8,15,9.6l.6,21.8,25.1-21.8H340.7s8.3.5,8.3-10.6V199.9" transform="translate(-90 -107.2)"/><rect class="cls-3" x="118.9" y="59.2" width="49.4" height="0.48" rx="0.2"/><path class="cls-2" d="M258.3,186.8c-4.3,0-4.3,6.7,0,6.7S262.6,186.8,258.3,186.8Z" transform="translate(-90 -107.2)"/><line class="cls-1" x1="304.6" y1="152.9" x2="277.5" y2="183.5"/><line class="cls-1" x1="334.4" y1="224.7" x2="293.6" y2="226.8"/><line class="cls-1" x1="308.5" y1="291.1" x2="277.7" y2="264.3"/></svg>