<svg xmlns="http://www.w3.org/2000/svg" width="398.043" height="469.599" viewBox="0 0 398.043 469.599">
  <g id="Group_104" data-name="Group 104" transform="translate(-107.388 -127.218)">
    <g id="apple_6" data-name="apple 6" transform="translate(107.388 127.218)">
      <path id="Path_18" data-name="Path 18" d="M100.312,137.74H92.5c-2.082,0-3.644-1.562-4.165-4.165-4.686-22.907,3.644-48.938,21.866-71.846S159.662,21.121,187.255,20.6a5.536,5.536,0,0,1,5.206,4.686c4.165,27.593-8.33,59.871-32.278,84.34S120.616,137.74,100.312,137.74Zm-2.6-10.412c17.7,1.041,38.005-8.33,55.186-25.51s31.237-47.376,29.675-70.8c-22.907,1.562-46.856,15.619-64.036,36.964S95.626,108.585,97.709,127.327Z" transform="translate(107.818 -20.6)" fill="#fff"/>
      <path id="Path_19" data-name="Path 19" d="M445.175,269.211c-34.361-17.181-53.624-41.129-59.351-72.366H375.412c5.727,34.361,25.51,60.392,60.913,79.655v1.041c-1.041,3.644-2.6,7.289-3.644,10.412a254.3,254.3,0,0,1-54.665,83.3c-18.222,18.742-38.526,23.948-63,15.1l-3.644-1.041-12.495-4.686a106.8,106.8,0,0,0-80.176,0c-7.289,3.124-15.619,5.206-22.907,7.809a47.927,47.927,0,0,1-49.98-11.454,272.115,272.115,0,0,1-80.176-142.65c-9.371-43.211-7.289-79.655,6.247-111.933A111.381,111.381,0,0,1,163,52.112V41.7A122.322,122.322,0,0,0,62,118.231c-14.057,34.361-16.139,73.408-6.247,118.181A280.01,280.01,0,0,0,138.53,384.789c10.933,10.412,24.99,16.66,40.088,16.66a62.933,62.933,0,0,0,19.784-3.124l23.428-7.809a93.219,93.219,0,0,1,72.887,0l13.016,4.686,3.124,1.041c28.113,9.892,53.1,4.165,74.449-17.7a272.156,272.156,0,0,0,56.227-86.423,101.257,101.257,0,0,0,4.165-11.454l1.562-5.206A5.008,5.008,0,0,0,445.175,269.211Z" transform="translate(-49.623 68.151)" fill="#fff"/>
      <path id="Path_20" data-name="Path 20" d="M74.8,53.871a132.91,132.91,0,0,1,34.882,9.371,83.933,83.933,0,0,0,72.366,0A113.333,113.333,0,0,1,273.156,59.6c17.181,6.247,32.8,17.18,43.732,31.758-32.8,21.866-49.459,51.541-48.938,88.505h10.412c0-34.882,16.139-62.474,48.938-82.779,1.041-1.041,2.082-2.082,2.082-3.644.521-1.041,0-2.6-.521-3.644A102.14,102.14,0,0,0,276.8,49.706a125.631,125.631,0,0,0-98.918,3.644,74.578,74.578,0,0,1-64.036.521C101.352,48.144,88.336,45.02,74.8,43.458Z" transform="translate(56.278 66.393)" fill="#fff"/>
    </g>
  </g>
</svg>
