<svg xmlns="http://www.w3.org/2000/svg" width="467" height="410.879" viewBox="0 0 467 410.879">
  <g id="emailmarketing6" transform="translate(-272.453 -68.457)">
    <g id="Group_30" data-name="Group 30" transform="translate(272.453 281.392)">
      <g id="Group_26" data-name="Group 26">
        <path id="Path_48" data-name="Path 48" d="M514.909,532.023H305.2c-10.341,0-17.957-2.565-23.248-7.936-9.7-9.78-9.62-26.615-9.459-46.175V366.8c0-10.341,2.565-17.957,7.936-23.248,9.78-9.7,26.615-9.54,46.175-9.459H503.285c15.392,0,29.9,0,40.643,5.772,12.346,6.654,18.117,19.721,18.117,41.125V499.235c-.08,10.341-2.646,17.957-8.016,23.248C545.532,531.06,531.5,532.023,514.909,532.023Zm-194.88-189.91c-14.911,0-27.416.721-33.829,7.135-3.768,3.688-5.531,9.46-5.531,17.556V477.911c-.16,17.716-.24,33.108,7.135,40.483,3.688,3.768,9.459,5.531,17.556,5.531H508.335c17.717.16,32.948.241,40.4-7.055,3.768-3.687,5.611-9.459,5.692-17.556V381.072c0-23.729-7.936-30.783-13.949-34.07-8.978-4.89-21.885-4.89-36.876-4.81h-177C324.357,342.112,322.113,342.112,320.028,342.112Z" transform="translate(-272.453 -334.079)" fill="#1b75bb"/>
      </g>
      <g id="Group_27" data-name="Group 27" transform="translate(8.469 6.757)">
        <path id="Path_49" data-name="Path 49" d="M414.233,456.336a3.931,3.931,0,0,1-2.565-.962L284.446,349.636a3.983,3.983,0,0,1,5.131-6.093L414.313,447.117,544.02,343.383a3.994,3.994,0,0,1,4.97,6.253L416.718,455.374A3.73,3.73,0,0,1,414.233,456.336Z" transform="translate(-283.018 -342.508)" fill="#1b75bb"/>
      </g>
      <g id="Group_28" data-name="Group 28" transform="translate(8.455 84.67)">
        <path id="Path_50" data-name="Path 50" d="M287.008,542.631a4.15,4.15,0,0,1-2.806-1.122,3.968,3.968,0,0,1,0-5.692L377.835,440.9a4.025,4.025,0,1,1,5.692,5.692l-93.632,94.835A4.068,4.068,0,0,1,287.008,542.631Z" transform="translate(-283 -439.7)" fill="#1b75bb"/>
      </g>
      <g id="Group_29" data-name="Group 29" transform="translate(170.567 84.69)">
        <path id="Path_51" data-name="Path 51" d="M586.613,549.21a4.068,4.068,0,0,1-2.886-1.2l-97.4-101.488a4.025,4.025,0,0,1,5.772-5.612L589.5,542.4a4.116,4.116,0,0,1-.08,5.692A4.308,4.308,0,0,1,586.613,549.21Z" transform="translate(-485.224 -439.724)" fill="#1b75bb"/>
      </g>
    </g>
    <g id="Path_20" transform="translate(413.289 68.457)">
      <path id="Path_52" data-name="Path 52" d="M670.965,256.718a3.255,3.255,0,0,1-1.683-.4L540.377,197.557l.8,52.668a4.349,4.349,0,0,1-1.123,2.886,3.81,3.81,0,0,1-2.886,1.2h-37.6a3.969,3.969,0,0,1-4.008-4.008V194.751H484.742c-17.957,0-33.108-12.506-36.074-29.821a36.393,36.393,0,0,1,.4-14.43c4.169-17.8,20.121-30.142,38.72-30.142h45.774a4,4,0,0,1,1.684-.4,5.033,5.033,0,0,1,1.523.24L669.6,68.732a4.009,4.009,0,0,1,3.688.4,4.14,4.14,0,0,1,1.764,3.287V252.63A4.043,4.043,0,0,1,673.21,256,4.124,4.124,0,0,1,670.965,256.718Zm-130.749-67.98,126.74,57.719V78.352L539.335,127.813ZM503.581,246.3h29.5l-.8-51.386h-28.7Zm.321-59.4h28.3l-.882-58.52h-43.61c-14.911,0-27.577,9.86-30.863,23.889a29.732,29.732,0,0,0-.24,11.3c2.325,13.387,14.109,23.087,28.218,23.087H502.86C503.18,186.734,503.581,186.815,503.9,186.895Z" transform="translate(-448.136 -68.457)" fill="#1b75bb"/>
    </g>
    <g id="Path_21" transform="translate(635.156 130.058)">
      <path id="Path_53" data-name="Path 53" d="M730.111,204.141a5.419,5.419,0,0,1-4.409-2.4,5.294,5.294,0,0,1,1.6-7.215c9.3-5.932,14.029-12.1,14.109-18.518.16-9.459-10.181-18.518-14.189-21.163A5.2,5.2,0,1,1,733,146.182c.8.481,19,12.907,18.839,29.982-.08,10.1-6.493,19.32-18.919,27.176A5.158,5.158,0,0,1,730.111,204.141Z" transform="translate(-724.9 -145.3)" fill="#1b75bb"/>
    </g>
    <g id="Line_7" transform="translate(593.23 84.524)">
      <path id="Path_54" data-name="Path 54" d="M676.608,195.44a3.969,3.969,0,0,1-4.008-4.008V92.508a4.008,4.008,0,0,1,8.016,0v98.923A3.969,3.969,0,0,1,676.608,195.44Z" transform="translate(-672.6 -88.5)" fill="#1b75bb"/>
    </g>
    <g id="Path_22" transform="translate(593.35 197.877)">
      <path id="Path_55" data-name="Path 55" d="M676.478,229.9c-4.97,0-4.97,7.7,0,7.7S681.448,229.9,676.478,229.9Z" transform="translate(-672.75 -229.9)" fill="#1b75bb"/>
    </g>
    <g id="Line_8" transform="translate(676.514 88.125)">
      <path id="Path_56" data-name="Path 56" d="M780.507,130.6a3.689,3.689,0,0,1-2.645-1.042,3.972,3.972,0,0,1-.321-5.692l26.214-29.5a4.031,4.031,0,1,1,6.012,5.371l-26.214,29.5A4.276,4.276,0,0,1,780.507,130.6Z" transform="translate(-776.492 -92.992)" fill="#1b75bb"/>
    </g>
    <g id="Line_9" transform="translate(692.07 157.632)">
      <path id="Path_57" data-name="Path 57" d="M799.908,189.64a4.031,4.031,0,0,1-4.008-3.768,3.961,3.961,0,0,1,3.768-4.169l39.441-2a3.973,3.973,0,1,1,.4,7.936l-39.441,2Z" transform="translate(-795.897 -179.697)" fill="#1b75bb"/>
    </g>
    <g id="Line_10" transform="translate(676.742 195.774)">
      <path id="Path_58" data-name="Path 58" d="M810.544,261.2a4.139,4.139,0,0,1-2.645-.962L778.158,234.35a4.035,4.035,0,0,1,5.291-6.092L813.19,254.15a4.049,4.049,0,0,1,.4,5.692A4.141,4.141,0,0,1,810.544,261.2Z" transform="translate(-776.776 -227.276)" fill="#1b75bb"/>
    </g>
    <g id="Group_31" data-name="Group 31" transform="translate(465.287 186.895)">
      <path id="Path_59" data-name="Path 59" d="M543.383,279.37H517.008A3.969,3.969,0,0,1,513,275.362V220.208a3.969,3.969,0,0,1,4.008-4.008h26.374a3.969,3.969,0,0,1,4.008,4.008v55.153A3.969,3.969,0,0,1,543.383,279.37Zm-22.366-8.016h18.358V224.216H521.016Z" transform="translate(-513 -216.2)" fill="#1b75bb"/>
    </g>
  </g>
</svg>
