<svg xmlns="http://www.w3.org/2000/svg" width="449.833" height="465.195" viewBox="0 0 449.833 465.195">
  <g id="graphicdesign6" transform="translate(-72.3 -43.2)">
    <g id="Group_32" data-name="Group 32" transform="translate(184.02 166.715)">
      <path id="Path_60" data-name="Path 60" d="M331.858,427.221H218.13a6.279,6.279,0,0,1-5.7-3.593l-4.955-10.9L163,311.758a6.32,6.32,0,0,1,.5-5.947L271.278,145.626a6.077,6.077,0,0,1,5.079-2.725h0a6.279,6.279,0,0,1,5.079,2.6L394.05,307.67a6.044,6.044,0,0,1,.372,6.442L337.186,423.876A5.6,5.6,0,0,1,331.858,427.221ZM222.095,414.832H328.018l53.767-103.074L276.481,160.12,175.637,309.9l43.113,97.747Z" transform="translate(-162.479 -142.9)" fill="#fff"/>
    </g>
    <g id="Group_33" data-name="Group 33" transform="translate(291.824 166.715)">
      <path id="Path_61" data-name="Path 61" d="M258.173,286.857a6.27,6.27,0,0,1-6.194-6.07L249.5,149.218a6.134,6.134,0,0,1,6.07-6.318,6.214,6.214,0,0,1,6.318,6.07l2.478,131.568a6.159,6.159,0,0,1-6.194,6.318Z" transform="translate(-249.497 -142.9)" fill="#fff"/>
    </g>
    <g id="Group_34" data-name="Group 34" transform="translate(262.59 298.779)">
      <path id="Path_62" data-name="Path 62" d="M263.809,325.319a37.909,37.909,0,1,1,37.909-37.909A37.909,37.909,0,0,1,263.809,325.319Zm0-63.43a25.521,25.521,0,1,0,25.521,25.521A25.484,25.484,0,0,0,263.809,261.889Z" transform="translate(-225.9 -249.5)" fill="#fff"/>
    </g>
    <g id="Group_35" data-name="Group 35" transform="translate(178.981 438.654)">
      <path id="Path_63" data-name="Path 63" d="M384.243,432.147H165.707a6.334,6.334,0,0,1-5.823-3.965c-.248-.619-5.2-14.247,4.584-29.361,12.513-19.327,50.67-35.308,52.28-35.927a6.166,6.166,0,0,1,4.708,11.4c-10.035,4.088-37.909,17.84-46.581,31.219a24.709,24.709,0,0,0-4.088,14.247H380.279c2.106-5.327,4.336-16.6-7.929-26.512-19.079-15.362-36.671-18.088-36.794-18.212a6.194,6.194,0,0,1,1.734-12.265c.867.124,20.937,3.221,42.741,20.813,19.822,15.981,14.742,36.794,9.291,45.59A5.735,5.735,0,0,1,384.243,432.147Z" transform="translate(-158.412 -362.406)" fill="#fff"/>
    </g>
    <g id="Group_36" data-name="Group 36" transform="translate(459.942 47.66)">
      <path id="Path_64" data-name="Path 64" d="M416.3,108.991a31.1,31.1,0,1,1,31.1-31.1A31.2,31.2,0,0,1,416.3,108.991Zm0-49.8A18.707,18.707,0,1,0,435,77.9,18.77,18.77,0,0,0,416.3,59.189Z" transform="translate(-385.2 -46.8)" fill="#fff"/>
    </g>
    <g id="Group_37" data-name="Group 37" transform="translate(462.792 50.509)">
      <path id="Path_65" data-name="Path 65" d="M415.746,105.592a28.246,28.246,0,1,1,28.246-28.246A28.234,28.234,0,0,1,415.746,105.592Zm0-44.1A15.858,15.858,0,1,0,431.6,77.346,15.809,15.809,0,0,0,415.746,61.489Z" transform="translate(-387.5 -49.1)" fill="#fff"/>
    </g>
    <g id="Group_38" data-name="Group 38" transform="translate(72.3 47.66)">
      <path id="Path_66" data-name="Path 66" d="M103.4,108.991a31.1,31.1,0,1,1,31.1-31.1A31.2,31.2,0,0,1,103.4,108.991Zm0-49.8A18.707,18.707,0,1,0,122.1,77.9,18.77,18.77,0,0,0,103.4,59.189Z" transform="translate(-72.3 -46.8)" fill="#fff"/>
    </g>
    <g id="Group_39" data-name="Group 39" transform="translate(75.149 50.509)">
      <path id="Path_67" data-name="Path 67" d="M102.846,105.592a28.246,28.246,0,1,1,28.246-28.246A28.234,28.234,0,0,1,102.846,105.592Zm0-44.1A15.858,15.858,0,1,0,118.7,77.346,15.809,15.809,0,0,0,102.846,61.489Z" transform="translate(-74.6 -49.1)" fill="#fff"/>
    </g>
    <g id="Group_40" data-name="Group 40" transform="translate(261.971 43.2)">
      <path id="Path_68" data-name="Path 68" d="M291.184,115.178h-59.59a6.134,6.134,0,0,1-6.194-6.194V49.394a6.134,6.134,0,0,1,6.194-6.194h59.59a6.134,6.134,0,0,1,6.194,6.194v59.59A6.134,6.134,0,0,1,291.184,115.178Zm-53.4-12.389h47.2v-47.2h-47.2Z" transform="translate(-225.4 -43.2)" fill="#fff"/>
    </g>
    <g id="Group_41" data-name="Group 41" transform="translate(270.147 51.377)">
      <path id="Path_69" data-name="Path 69" d="M281.431,105.425H238.194A6.134,6.134,0,0,1,232,99.231V55.994a6.134,6.134,0,0,1,6.194-6.194h43.237a6.134,6.134,0,0,1,6.194,6.194V99.231A6.134,6.134,0,0,1,281.431,105.425ZM244.389,93.037h30.848V62.189H244.389Z" transform="translate(-232 -49.8)" fill="#fff"/>
    </g>
    <g id="Group_42" data-name="Group 42" transform="translate(122.103 72.437)">
      <path id="Path_70" data-name="Path 70" d="M250.758,79.189H118.694a6.194,6.194,0,1,1,0-12.389H250.758a6.194,6.194,0,0,1,0,12.389Z" transform="translate(-112.5 -66.8)" fill="#fff"/>
    </g>
    <g id="Group_43" data-name="Group 43" transform="translate(329.861 72.437)">
      <path id="Path_71" data-name="Path 71" d="M286.394,79.808a6.194,6.194,0,0,1,0-12.389L416.476,66.8h0a6.194,6.194,0,1,1,0,12.389l-130.081.619Z" transform="translate(-280.2 -66.8)" fill="#fff"/>
    </g>
  </g>
</svg>
