<svg xmlns="http://www.w3.org/2000/svg" width="450.08" height="441.322" viewBox="0 0 450.08 441.322">
  <g id="Group_104" data-name="Group 104" transform="translate(-19.374 -29.339)">
    <g id="Group_1" data-name="Group 1" transform="translate(127.486 29.339)">
      <path id="Path_1" data-name="Path 1" d="M566.785,126.576H365.641c-15.59,0-22.236-12.779-23.514-19.424a3.942,3.942,0,0,1-.128-1.278V65.619c0-4.089,1.15-7.029,3.578-8.818a7.043,7.043,0,0,1,4.984-1.534c3.195-.128,23.514-.639,33.226,0,17.124,1.278,17.252,15.207,17.38,26.325,0,3.834,1.022,4.728,1.022,4.728a.769.769,0,0,0,.511.128,3.538,3.538,0,0,1,1.15-.128c.767,0,18.4-.383,26.581-.256a11.181,11.181,0,0,0-.256-2.045,4.345,4.345,0,0,1-.128-1.278s-.256-7.923-.511-14.057c-.383-9.073,5.5-12.779,9.584-13.035h.383c.383,0,33.865-.511,44.471-.511a13.563,13.563,0,0,1,10.1,3.962c4.728,4.984,4.345,12.524,3.961,19.808-.128,2.172-.256,4.345-.256,6.39a4.476,4.476,0,0,0,.256,2.045c1.15.895,7.284.639,11.757.511,1.917-.128,4.09-.128,6.262-.128,5.751-.128,8.562-1.022,9.584-1.533,0-2.684.128-8.051.128-14.568,0-11.629,7.412-15.974,12.523-15.974,4.984-.128,29.392-.767,35.27,0,8.179,1.15,11.373,8.306,12.012,12.4v.767c.128,3.706.767,36.548,0,43.321-1.278,10.862-15.718,13.929-17.38,14.185A3.266,3.266,0,0,1,566.785,126.576ZM354.779,105.107c.639,2.172,3.067,8.69,10.862,8.69h200.5c3.067-.639,6.006-2.3,6.645-3.195.511-4.6.256-27.219,0-40.893-.128-.383-.511-1.406-1.022-1.406-3.706-.511-21.724-.256-32.714,0a6.348,6.348,0,0,0-.511,3.195c0,9.584-.128,16.613-.128,16.741v.511c-.256,2.684-2.556,11.373-22.108,11.629-2.173,0-4.089.128-6.006.128-9.073.383-16.229.639-21.086-4.089C486.532,93.861,485,90.028,485,85.3c0-2.428.128-4.856.256-7.156.128-3.323.383-8.818-.383-10.351a4.537,4.537,0,0,0-.895-.128c-8.69,0-33.353.383-41.532.511.256,5.112.383,11.373.511,13.29.511,2.684,1.406,8.945-2.172,13.418a10.6,10.6,0,0,1-8.818,3.834c-5.878-.256-23.9.128-27.092.256a13.6,13.6,0,0,1-10.479-2.684c-3.834-3.067-5.878-7.923-5.878-14.7-.128-13.29-1.278-13.418-5.495-13.8-7.156-.383-21.086-.256-28.114-.128v37.443ZM538.287,68.431Zm0,0Zm0,0Z" transform="translate(-342 -54.954)" fill="#1b75bb"/>
    </g>
    <g id="Group_2" data-name="Group 2" transform="translate(143.773 88.438)">
      <path id="Path_2" data-name="Path 2" d="M546.118,166.757H374.5a6.3,6.3,0,0,1-6.134-4.856l-13.418-52.778a6.483,6.483,0,0,1,1.15-5.5,6.3,6.3,0,0,1,4.984-2.428h199.1a6.3,6.3,0,0,1,5.112,2.556,6.162,6.162,0,0,1,1.15,5.5L552.38,162.029A6.556,6.556,0,0,1,546.118,166.757ZM379.479,153.978H541.262l10.607-40H369.256Z" transform="translate(-354.745 -101.2)" fill="#1b75bb"/>
    </g>
    <g id="Group_3" data-name="Group 3" transform="translate(145.121 141.215)">
      <path id="Path_3" data-name="Path 3" d="M557.582,184.16H366.79a11.072,11.072,0,0,1-10.99-10.99V153.49a11.072,11.072,0,0,1,10.99-10.99H557.71a11.072,11.072,0,0,1,10.99,10.99v19.68A11.1,11.1,0,0,1,557.582,184.16Zm-189-12.779H555.921v-16.1H368.579Z" transform="translate(-355.8 -142.5)" fill="#1b75bb"/>
    </g>
    <g id="Group_4" data-name="Group 4" transform="translate(143.204 201.022)">
      <path id="Path_4" data-name="Path 4" d="M556.21,230.96H365.29a11.072,11.072,0,0,1-10.99-10.99V200.29a11.072,11.072,0,0,1,10.99-10.99H556.21a11.072,11.072,0,0,1,10.99,10.99v19.68A11.072,11.072,0,0,1,556.21,230.96ZM367.079,218.181H554.421v-16.1H367.079Z" transform="translate(-354.3 -189.3)" fill="#1b75bb"/>
    </g>
    <g id="Group_5" data-name="Group 5" transform="translate(163.395 170.096)">
      <path id="Path_5" data-name="Path 5" d="M376.49,208.8a6.327,6.327,0,0,1-6.39-6.39V171.49a6.39,6.39,0,0,1,12.779,0v30.925A6.327,6.327,0,0,1,376.49,208.8Z" transform="translate(-370.1 -165.1)" fill="#1b75bb"/>
    </g>
    <g id="Group_6" data-name="Group 6" transform="translate(318.917 170.096)">
      <path id="Path_6" data-name="Path 6" d="M498.189,208.8a6.327,6.327,0,0,1-6.39-6.39V171.49a6.39,6.39,0,0,1,12.779,0v30.925A6.328,6.328,0,0,1,498.189,208.8Z" transform="translate(-491.8 -165.1)" fill="#1b75bb"/>
    </g>
    <g id="Group_7" data-name="Group 7" transform="translate(157.644 353.732)">
      <path id="Path_7" data-name="Path 7" d="M539.651,321.579H371.99a6.39,6.39,0,0,1,0-12.779H539.651a6.39,6.39,0,1,1,0,12.779Z" transform="translate(-365.6 -308.8)" fill="#1b75bb"/>
    </g>
    <g id="Group_8" data-name="Group 8" transform="translate(125.441 384.018)">
      <path id="Path_8" data-name="Path 8" d="M573.363,374.8H346.79a6.328,6.328,0,0,1-6.39-6.39v-29.52a6.328,6.328,0,0,1,6.39-6.39h32.2a6.39,6.39,0,1,1,0,12.779H353.179V362.02H566.974V345.279H546.655a6.39,6.39,0,0,1,0-12.779h26.708a6.327,6.327,0,0,1,6.39,6.39v29.52A6.327,6.327,0,0,1,573.363,374.8Z" transform="translate(-340.4 -332.5)" fill="#1b75bb"/>
    </g>
    <g id="Group_9" data-name="Group 9" transform="translate(381.654 99.548)">
      <path id="Path_9" data-name="Path 9" d="M547.291,148.878a6.31,6.31,0,0,1-5.75-3.578,6.39,6.39,0,0,1,2.939-8.562l54.439-26.2a6.4,6.4,0,1,1,5.623,11.5l-54.439,26.2A7.478,7.478,0,0,1,547.291,148.878Z" transform="translate(-540.894 -109.894)" fill="#1b75bb"/>
    </g>
    <g id="Group_10" data-name="Group 10" transform="translate(380.747 241.638)">
      <path id="Path_10" data-name="Path 10" d="M595.155,269.921a6.284,6.284,0,0,1-3.834-1.278L542.76,232.606a6.39,6.39,0,0,1,7.668-10.223l48.561,36.037a6.343,6.343,0,0,1,1.277,8.945A6.474,6.474,0,0,1,595.155,269.921Z" transform="translate(-540.184 -221.084)" fill="#1b75bb"/>
    </g>
    <g id="Group_11" data-name="Group 11" transform="translate(396.358 185.687)">
      <path id="Path_11" data-name="Path 11" d="M619.107,190.079H558.79a6.39,6.39,0,0,1,0-12.779h60.317a6.39,6.39,0,0,1,0,12.779Z" transform="translate(-552.4 -177.3)" fill="#1b75bb"/>
    </g>
    <g id="Group_12" data-name="Group 12" transform="translate(43.775 99.548)">
      <path id="Path_12" data-name="Path 12" d="M337.33,148.878a7.479,7.479,0,0,1-2.812-.639l-54.439-26.2a6.4,6.4,0,1,1,5.623-11.5l54.439,26.2a6.39,6.39,0,0,1,2.939,8.562A6.31,6.31,0,0,1,337.33,148.878Z" transform="translate(-276.494 -109.894)" fill="#1b75bb"/>
    </g>
    <g id="Group_13" data-name="Group 13" transform="translate(46.756 241.693)">
      <path id="Path_13" data-name="Path 13" d="M285.182,269.909a6.39,6.39,0,0,1-3.834-11.5l48.433-36.037a6.39,6.39,0,1,1,7.668,10.223l-48.433,36.037A6.284,6.284,0,0,1,285.182,269.909Z" transform="translate(-278.827 -221.127)" fill="#1b75bb"/>
    </g>
    <g id="Group_14" data-name="Group 14" transform="translate(19.374 185.687)">
      <path id="Path_14" data-name="Path 14" d="M324.107,190.079H263.79a6.39,6.39,0,1,1,0-12.779h60.317a6.39,6.39,0,1,1,0,12.779Z" transform="translate(-257.4 -177.3)" fill="#1b75bb"/>
    </g>
    <g id="Group_17" data-name="Group 17" transform="translate(95.155 413.538)">
      <g id="Group_15" data-name="Group 15">
        <path id="Path_15" data-name="Path 15" d="M379.19,399.943H329.479V368.379h23.9a6.39,6.39,0,0,0,0-12.779H323.09a6.328,6.328,0,0,0-6.39,6.39v44.344a6.328,6.328,0,0,0,6.39,6.39h56.1Z" transform="translate(-316.7 -355.6)" fill="#1b75bb"/>
      </g>
      <g id="Group_16" data-name="Group 16" transform="translate(75.269 0)">
        <path id="Path_16" data-name="Path 16" d="M593.228,361.478a6.4,6.4,0,0,0-6.389-5.879H563.581a6.39,6.39,0,0,0,0,12.779h17.38l2.428,31.564H375.6v12.779H590.289a6.355,6.355,0,0,0,6.39-6.9Z" transform="translate(-375.6 -355.6)" fill="#1b75bb"/>
      </g>
    </g>
    <g id="Group_18" data-name="Group 18" transform="translate(157.644 229.902)">
      <path id="Path_17" data-name="Path 17" d="M539.524,211.9H371.99a6.327,6.327,0,0,0-6.39,6.39v25.558h12.779V224.679H533.134V366.016H378.379V256.627H365.6V372.406a6.327,6.327,0,0,0,6.39,6.39H539.524a6.327,6.327,0,0,0,6.39-6.39V218.29A6.328,6.328,0,0,0,539.524,211.9Z" transform="translate(-365.6 -211.9)" fill="#1b75bb"/>
    </g>
  </g>
</svg>
