<svg xmlns="http://www.w3.org/2000/svg" width="468.116" height="446.723" viewBox="0 0 468.116 446.723">
  <g id="Group_6" data-name="Group 6" transform="translate(-0.02)">
    <g id="Line_6" transform="translate(159.974 109.615)">
      <path id="Path_33" data-name="Path 33" d="M249.153,175.266a3.253,3.253,0,0,1,0-6.505l54.125-.26a3.253,3.253,0,1,1,0,6.505l-54.125.26Z" transform="translate(-245.9 -168.5)" fill="#1b75bb"/>
    </g>
    <g id="Rectangle_1" transform="translate(271.736)">
      <path id="Path_34" data-name="Path 34" d="M591.979,128.806H433.964A16.269,16.269,0,0,1,417.7,112.543V16.263A16.269,16.269,0,0,1,433.964,0H591.979a16.269,16.269,0,0,1,16.264,16.263v96.279A16.269,16.269,0,0,1,591.979,128.806ZM433.964,6.505a9.745,9.745,0,0,0-9.758,9.758v96.279a9.745,9.745,0,0,0,9.758,9.758H591.979a9.745,9.745,0,0,0,9.758-9.758V16.263a9.745,9.745,0,0,0-9.758-9.758Z" transform="translate(-417.7)" fill="#1b75bb"/>
    </g>
    <g id="Path_23" transform="translate(337.245 31.936)">
      <path id="Path_35" data-name="Path 35" d="M521.653,114.086a2.937,2.937,0,0,1-1.627-.455,3.147,3.147,0,0,1-1.626-2.8V52.35a3.171,3.171,0,0,1,1.756-2.862,3.071,3.071,0,0,1,3.318.2L569.858,81.1a3.423,3.423,0,0,1,1.431,2.8,3.258,3.258,0,0,1-1.626,2.732L523.279,113.7A3.524,3.524,0,0,1,521.653,114.086Zm3.252-55.621v46.709l37.016-21.6Z" transform="translate(-518.4 -49.093)" fill="#1b75bb"/>
    </g>
    <g id="Path_24" transform="translate(337.245 31.936)">
      <path id="Path_36" data-name="Path 36" d="M521.653,114.086a2.937,2.937,0,0,1-1.627-.455,3.147,3.147,0,0,1-1.626-2.8V52.35a3.171,3.171,0,0,1,1.756-2.862,3.071,3.071,0,0,1,3.318.2L569.858,81.1a3.423,3.423,0,0,1,1.431,2.8,3.258,3.258,0,0,1-1.626,2.732L523.279,113.7A3.524,3.524,0,0,1,521.653,114.086Zm3.252-55.621v46.709l37.016-21.6Z" transform="translate(-518.4 -49.093)" fill="#1b75bb"/>
    </g>
    <g id="Path_25" transform="translate(271.541 12.946)">
      <path id="Path_37" data-name="Path 37" d="M417.4,19.9" transform="translate(-417.4 -19.9)" fill="none" stroke="#1b75bb" stroke-miterlimit="10" stroke-width="10"/>
    </g>
    <g id="Path_26" transform="translate(134.326 13.872)">
      <path id="Path_38" data-name="Path 38" d="M231.6,203.459a2.913,2.913,0,0,1-1.3-.26,3.285,3.285,0,0,1-1.952-2.862l-.716-26.867c-6.831.716-12.165-.585-15.938-3.968-5.4-4.879-5.269-12.165-5.2-13.4,0-3.708,0-95.824.13-114.3.065-8.717,2.082-14.767,5.985-18.02a9.892,9.892,0,0,1,7.416-2.407H346.357a3.253,3.253,0,1,1,0,6.505H219.827a1.268,1.268,0,0,1-.52-.065,4.082,4.082,0,0,0-2.667,1.041c-1.3,1.171-3.513,4.359-3.578,13.011-.13,18.735-.13,113.389-.13,114.364v.26s-.325,5.2,3.058,8.2c2.8,2.472,7.611,3.058,14.051,1.756a3.33,3.33,0,0,1,2.667.65,3.279,3.279,0,0,1,1.236,2.472l.65,23.679,29.99-26.086a3.233,3.233,0,0,1,2.147-.781H420a7.929,7.929,0,0,0,5.2-2.082c2.017-1.952,2.992-5.139,2.992-9.5V133.656a3.253,3.253,0,1,1,6.505,0V154.8c0,6.31-1.691,11.124-5.139,14.312a14.05,14.05,0,0,1-9.823,3.773H268.032l-34.283,29.795A3.234,3.234,0,0,1,231.6,203.459Z" transform="translate(-206.475 -21.324)" fill="#1b75bb"/>
    </g>
    <g id="Rectangle_2" transform="translate(159.714 75.983)">
      <path id="Path_39" data-name="Path 39" d="M317.84,123.956H248.883a3.36,3.36,0,0,1-3.383-3.383v-.39a3.36,3.36,0,0,1,3.383-3.383H317.84a3.36,3.36,0,0,1,3.383,3.383v.39A3.36,3.36,0,0,1,317.84,123.956Z" transform="translate(-245.5 -116.8)" fill="#1b75bb"/>
    </g>
    <g id="Path_27" transform="translate(227.646 107.794)">
      <path id="Path_40" data-name="Path 40" d="M354.463,165.7c-6.05,0-6.05,9.368,0,9.368S360.512,165.7,354.463,165.7Z" transform="translate(-349.925 -165.7)" fill="#1b75bb"/>
    </g>
    <g id="Group_25" data-name="Group 25" transform="translate(0.02 178.674)">
      <g id="Path_20">
        <path id="Path_41" data-name="Path 41" d="M320.786,542.706a2.643,2.643,0,0,1-1.366-.325L128.683,455.469l1.236,80.406a3.53,3.53,0,0,1-.911,2.342,3.092,3.092,0,0,1-2.342.976H72.151A3.221,3.221,0,0,1,68.9,535.94V452.867H50.684c-24.85,0-45.863-17.3-49.831-41.114a48.736,48.736,0,0,1,.455-20.1,53.984,53.984,0,0,1,19.516-30.185,56.03,56.03,0,0,1,34.088-11.58h67.07a2.908,2.908,0,0,1,1.821-.585,3.1,3.1,0,0,1,1.887.585h.2l193.73-75.007a3.253,3.253,0,0,1,2.992.325,3.191,3.191,0,0,1,1.431,2.667V539.388a3.281,3.281,0,0,1-1.5,2.732A3,3,0,0,1,320.786,542.706ZM128.553,448.248l188.981,86.131V282.687L127.707,356.262a1.532,1.532,0,0,1-.52.13ZM75.4,532.688h47.945L122.113,453H75.339v79.691Zm2.407-86.2h44.236l-1.366-90.034H54.912c-22.769,0-42.22,15.092-47.294,36.69a43.708,43.708,0,0,0-.39,17.434C10.741,431.334,28.956,446.3,50.684,446.3H76.9C77.226,446.362,77.551,446.427,77.811,446.492Z" transform="translate(-0.02 -274.657)" fill="#1b75bb"/>
      </g>
      <g id="Path_21" transform="translate(317.304 75.866)">
        <path id="Path_42" data-name="Path 42" d="M491.045,498.631a3.132,3.132,0,0,1-2.732-1.5,3.258,3.258,0,0,1,.976-4.489c21.6-13.791,32.657-28.884,32.787-44.952.325-27.973-32.527-50.286-32.852-50.481a3.239,3.239,0,0,1,3.578-5.4c1.5.976,36.1,24.46,35.779,55.946-.2,18.345-12.23,35.324-35.844,50.352A3.053,3.053,0,0,1,491.045,498.631Z" transform="translate(-487.777 -391.277)" fill="#1b75bb"/>
      </g>
      <g id="Line_7" transform="translate(261.178 23.252)">
        <path id="Path_43" data-name="Path 43" d="M404.753,460.414a3.221,3.221,0,0,1-3.253-3.253V313.653a3.253,3.253,0,1,1,6.505,0V457.161A3.221,3.221,0,0,1,404.753,460.414Z" transform="translate(-401.5 -310.4)" fill="#1b75bb"/>
      </g>
      <g id="Path_22" transform="translate(260.007 186.602)">
        <path id="Path_44" data-name="Path 44" d="M403.8,561.5c-5.464,0-5.464,8.392,0,8.392S409.263,561.5,403.8,561.5Z" transform="translate(-399.7 -561.5)" fill="#1b75bb"/>
      </g>
      <g id="Line_8" transform="translate(381.977 28.516)">
        <path id="Path_45" data-name="Path 45" d="M590.45,368a3,3,0,0,1-2.147-.846,3.223,3.223,0,0,1-.26-4.619L625.969,319.6a3.271,3.271,0,0,1,4.879,4.359L592.922,366.9A3.36,3.36,0,0,1,590.45,368Z" transform="translate(-587.192 -318.492)" fill="#1b75bb"/>
      </g>
      <g id="Line_9" transform="translate(404.488 129.281)">
        <path id="Path_46" data-name="Path 46" d="M625.052,482.763a3.272,3.272,0,0,1-3.253-3.058,3.214,3.214,0,0,1,3.057-3.383l57.182-2.927a3.173,3.173,0,0,1,3.383,3.057,3.215,3.215,0,0,1-3.058,3.383l-57.182,2.927Z" transform="translate(-621.797 -473.387)" fill="#1b75bb"/>
      </g>
      <g id="Line_10" transform="translate(382.227 184.7)">
        <path id="Path_47" data-name="Path 47" d="M633.975,602.7a3.358,3.358,0,0,1-2.147-.781l-43.13-37.6a3.274,3.274,0,1,1,4.293-4.944l43.131,37.6a3.286,3.286,0,0,1,.325,4.619A3.359,3.359,0,0,1,633.975,602.7Z" transform="translate(-587.576 -558.576)" fill="#1b75bb"/>
      </g>
    </g>
  </g>
</svg>
