<svg xmlns="http://www.w3.org/2000/svg" width="462.022" height="378.198" viewBox="0 0 462.022 378.198">
  <g id="smsmarketing6" transform="translate(-86.8 -56.078)">
    <g id="Group_44" data-name="Group 44" transform="translate(86.8 56.078)">
      <path id="Path_72" data-name="Path 72" d="M131.468,284.927a6.205,6.205,0,0,1-2.192-.411,6.666,6.666,0,0,1-4.522-5.618L120.1,244.37l-13.154-.411h-1.37A26.2,26.2,0,0,1,95.3,241.9a14.424,14.424,0,0,1-8.5-13.565V78.168c0-7.262,5.481-21.1,26.307-21.786,19.593-.685,227.448,0,236.355,0a2.332,2.332,0,0,1,.959.137c.822.137,19.456,3.288,20.141,34.528.548,25.622,0,130.166,0,131.125v.548c-.685,8.084-7.125,23.293-27.266,23.293H173.806l-37.543,36.995A6.847,6.847,0,0,1,131.468,284.927Zm-24.526-54.67h.274l19.045.685a7.007,7.007,0,0,1,6.577,5.892l3.7,26.718,29.87-29.322a6.847,6.847,0,0,1,4.8-1.918H343.3c11.235,0,13.154-7.81,13.565-10.55,0-6.851.548-105.64,0-130.44-.411-16.99-6.714-20.553-8.358-21.238-15.346,0-216.213-.685-234.847,0-11.646.411-13.017,6.3-13.154,8.221V228.339c0,.685.137.822.137.822.822.822,3.7,1.233,5.618,1.1Z" transform="translate(-86.8 -56.078)" fill="#fff"/>
    </g>
    <g id="Group_45" data-name="Group 45" transform="translate(340.449 266.734)">
      <path id="Path_73" data-name="Path 73" d="M448.1,377.364a3.943,3.943,0,0,1-2.877-1.233L417.13,348.59H291.485c-14.25,0-18.908-10.687-19.319-16.442v-.274c0-.822-.548-78.1,0-97.145.411-22.334,13.565-24.526,14.113-24.663h.548c6.577,0,160.31-.548,174.834,0,14.661.548,18.635,10.139,18.635,15.209V336.4a9.737,9.737,0,0,1-5.892,9.317,17.056,17.056,0,0,1-7.125,1.507h-.822l-10.55.411-3.7,26.307a4.013,4.013,0,0,1-2.74,3.288C449.055,377.227,448.507,377.364,448.1,377.364ZM280.387,331.6c.137,1.644,1.507,8.769,11.1,8.769H418.774a3.944,3.944,0,0,1,2.878,1.233l23.43,23.019,3.014-21.649a4.244,4.244,0,0,1,3.974-3.562l14.113-.548h.685c1.233.137,3.7-.137,4.8-1.1.137-.137.411-.411.411-1.37V225.275c0-1.1-.822-6.577-10.687-6.988-13.976-.548-164.147,0-174.012,0-1.233.411-6.714,3.014-6.988,16.716C279.839,253.363,280.387,327.489,280.387,331.6Zm185.932,15.483Z" transform="translate(-271.922 -209.822)" fill="#fff"/>
    </g>
    <g id="Group_48" data-name="Group 48" transform="translate(382.483 313.563)">
      <g id="Group_46" data-name="Group 46">
        <path id="Path_74" data-name="Path 74" d="M422.764,252.221H306.71a4.111,4.111,0,0,1,0-8.221H422.764a4.111,4.111,0,1,1,0,8.221Z" transform="translate(-302.6 -244)" fill="#fff"/>
      </g>
      <g id="Group_47" data-name="Group 47" transform="translate(0 32.884)">
        <path id="Path_75" data-name="Path 75" d="M422.764,276.221H306.71a4.111,4.111,0,0,1,0-8.221H422.764a4.111,4.111,0,1,1,0,8.221Z" transform="translate(-302.6 -268)" fill="#fff"/>
      </g>
    </g>
    <g id="Group_51" data-name="Group 51" transform="translate(133.249 121.739)">
      <g id="Group_49" data-name="Group 49" transform="translate(0)">
        <path id="Path_76" data-name="Path 76" d="M304.851,117.7h-177.3a6.851,6.851,0,0,1,0-13.7h177.3a6.851,6.851,0,0,1,0,13.7Z" transform="translate(-120.7 -104)" fill="#fff"/>
      </g>
      <g id="Group_50" data-name="Group 50" transform="translate(0 50.148)">
        <path id="Path_77" data-name="Path 77" d="M304.851,154.3h-177.3a6.851,6.851,0,1,1,0-13.7h177.3a6.851,6.851,0,0,1,0,13.7Z" transform="translate(-120.7 -140.6)" fill="#fff"/>
      </g>
    </g>
  </g>
</svg>
