<svg xmlns="http://www.w3.org/2000/svg" width="463.81" height="463.476" viewBox="0 0 463.81 463.476">
  <g id="Group_103" data-name="Group 103" transform="translate(-162 -354.3)">
    <g id="Group_52" data-name="Group 52" transform="translate(530.845 710.605)">
      <path id="Path_78" data-name="Path 78" d="M398.038,330.543a3.365,3.365,0,0,1-1.836-.5,3.279,3.279,0,0,1-1.5-2.837V285.147a3.442,3.442,0,0,1,1.669-2.837,3.387,3.387,0,0,1,3.338-.167l43.561,22.031a3.313,3.313,0,0,1-.167,6.008L399.54,330.21A4.871,4.871,0,0,1,398.038,330.543Zm3.338-39.889v31.377l32.545-15.021Z" transform="translate(-394.7 -281.786)" fill="#1b75bb"/>
    </g>
    <g id="Group_53" data-name="Group 53" transform="translate(191.54 380.502)">
      <path id="Path_79" data-name="Path 79" d="M191.4,138.242C191.233,108.868,215.767,84,245.308,84A54.494,54.494,0,1,1,191.4,138.242Zm6.676,0c0,26.537,21.2,48.234,47.566,48.4a47.9,47.9,0,0,0,48.067-47.733c0-26.871-21.2-48.4-47.9-48.4C219.773,90.342,198.076,112.039,198.076,138.242Z" transform="translate(-191.399 -83.999)" fill="#1b75bb"/>
    </g>
    <g id="Group_54" data-name="Group 54" transform="translate(495.128 680.085)">
      <path id="Path_80" data-name="Path 80" d="M373.3,318.243c-.167-29.708,24.7-54.743,54.409-54.743A54.995,54.995,0,1,1,373.3,318.243Zm6.676,0c0,26.871,21.53,48.734,48.067,48.734a48.329,48.329,0,0,0,48.567-48.234c0-27.2-21.363-48.9-48.4-48.9C401.84,269.842,380.143,291.706,379.976,318.243Z" transform="translate(-373.299 -263.499)" fill="#1b75bb"/>
    </g>
    <g id="Group_55" data-name="Group 55" transform="translate(229.594 402.867)">
      <path id="Path_81" data-name="Path 81" d="M246.912,118.429c-.5,3.839-.835,7.344-1.335,10.848H235.73v31.878H221.21V129.444H214.2V118.6h5.174c1.335,0,1.836-.5,1.836-1.836v-7.844a11.054,11.054,0,0,1,9.68-11.182A40.928,40.928,0,0,1,235.4,97.4h11.182v11.015H240.9c-4.339,0-5.174.835-5.174,5.174v4.84Z" transform="translate(-214.2 -97.4)" fill="#1b75bb"/>
    </g>
    <g id="Group_56" data-name="Group 56" transform="translate(221.416 710.62)">
      <path id="Path_82" data-name="Path 82" d="M258.2,306.17A24.451,24.451,0,1,1,234.168,281.8,24.325,24.325,0,0,1,258.2,306.17Zm-8.679.167a15.772,15.772,0,1,0-31.544,0,15.772,15.772,0,1,0,31.544,0Z" transform="translate(-209.3 -281.796)" fill="#1b75bb"/>
    </g>
    <g id="Group_57" data-name="Group 57" transform="translate(265.477 703.952)">
      <path id="Path_83" data-name="Path 83" d="M241.375,289.149a5.676,5.676,0,1,1,5.841-5.508A5.534,5.534,0,0,1,241.375,289.149Z" transform="translate(-235.7 -277.8)" fill="#1b75bb"/>
    </g>
    <g id="Group_58" data-name="Group 58" transform="translate(198.551 687.596)">
      <path id="Path_84" data-name="Path 84" d="M290.4,315.232c0-4.84.167-9.68,0-14.52-.167-3.5-.334-7.01-.835-10.515-1.168-7.344-4.673-13.352-11.015-17.524a29.313,29.313,0,0,0-15.688-4.339c-9.513-.167-19.026-.334-28.54-.334-4.506,0-9.179.167-13.686.5a27.113,27.113,0,0,0-11.85,3.5c-7.677,4.339-11.516,11.182-12.517,19.694a125.232,125.232,0,0,0-.667,13.686v5.674h8.512c.167-5.341.167-10.848.5-16.189a19.008,19.008,0,0,1,2.67-9.513,15.7,15.7,0,0,1,12.184-7.844,91.394,91.394,0,0,1,11.683-.668q12.016-.25,24.033,0a79.119,79.119,0,0,1,12.517,1,15.592,15.592,0,0,1,13.352,13.686c.5,3.839.668,7.677.835,11.683q.25,10.515,0,21.029c0,4.339-.167,8.846-.5,13.185-.5,5.675-2.5,10.682-7.51,13.853a17.986,17.986,0,0,1-9.179,2.837c-3.338.334-6.843.334-10.181.334-6.175,0-12.35.167-18.526,0q-7.26,0-14.52-.5a17.394,17.394,0,0,1-10.848-4.006,16.155,16.155,0,0,1-5.675-10.681,83.8,83.8,0,0,1-.667-11.182v-7.844H195.6c0,3,0,5.842.167,8.846a68.783,68.783,0,0,0,.835,11.683c2,12.017,10.348,20.028,22.531,21.53a117.284,117.284,0,0,0,13.352.667c8.178.167,16.356,0,24.534,0a64.953,64.953,0,0,0,11.349-.835,24.462,24.462,0,0,0,18.192-12.184,29.506,29.506,0,0,0,3.839-14.52c.167-6.676.334-13.352.334-20.195Z" transform="translate(-195.6 -268)" fill="#1b75bb"/>
    </g>
    <g id="Group_62" data-name="Group 62" transform="translate(507.855 387.054)">
      <g id="Group_59" data-name="Group 59" transform="translate(30.167 24.492)">
        <rect id="Rectangle_1" data-name="Rectangle 1" width="7.51" height="30.876" fill="#1b75bb"/>
      </g>
      <g id="Group_60" data-name="Group 60" transform="translate(49.026 24.492)">
        <rect id="Rectangle_2" data-name="Rectangle 2" width="7.51" height="30.876" fill="#1b75bb"/>
      </g>
      <g id="Group_61" data-name="Group 61" transform="translate(0 0)">
        <path id="Path_85" data-name="Path 85" d="M486.7,112.417V155.31c0,4.506-1.836,6.342-6.509,6.342-12.35,0-24.534-.167-36.885.167a11.448,11.448,0,0,0-6.509,2.337c-7.844,5.841-15.521,12.184-24.034,18.693V167.994c0-4.339-2-6.175-6.342-6.175h-9.179c-3.5-.167-5.508-2-5.508-5.508V104.239c0-3.839,2.17-5.675,6.509-5.675h81.613c4.673,0,6.509,1.669,6.676,6.008h10.515V103.4A15.314,15.314,0,0,0,481.69,88.05c-28.539-.167-56.912-.167-85.452,0a15.243,15.243,0,0,0-15.188,15.188q-.251,27.038,0,54.075c0,8.178,6.843,14.687,15.021,15.021,1.836.167,3.672,0,6.008,0v19.527c0,2.67.5,5.007,3.171,6.342,2.67,1.168,4.673,0,6.676-1.5,9.68-7.51,19.193-15.021,28.873-22.364a10.269,10.269,0,0,1,5.341-1.836c11.683-.167,23.366,0,34.882-.167a15.606,15.606,0,0,0,16.022-15.521c.167-14.854.167-29.541,0-44.395Z" transform="translate(-380.925 -87.925)" fill="#1b75bb"/>
      </g>
    </g>
    <g id="Group_63" data-name="Group 63" transform="translate(443.39 516.358)">
      <path id="Path_547" data-name="Path 547" d="M342.3,165.4Z" transform="translate(-342.3 -165.4)" fill="#fff"/>
    </g>
    <g id="Group_64" data-name="Group 64" transform="translate(442.723 513.187)">
      <path id="Path_548" data-name="Path 548" d="M342.734,163.5c0,.668-.167,1.5-.167,2.17h0A17.284,17.284,0,0,1,341.9,164a2.443,2.443,0,0,0,.834-.5c0,.167-.167.167,0,0Z" transform="translate(-341.9 -163.5)" fill="#fff"/>
    </g>
    <g id="Group_67" data-name="Group 67" transform="translate(294.517 469.712)">
      <g id="Group_65" data-name="Group 65" transform="translate(0)">
        <path id="Path_549" data-name="Path 549" d="M382.112,204.792c-.334,1.5-.668,2.837-1,4.506l4.005.5a132.6,132.6,0,0,0,21.53-.5c14.52-1.335,29.708,6.509,34.047,19.193a19.783,19.783,0,0,1,.334,13.853,1.1,1.1,0,0,0,.167,1c2.67,4.006,3.338,8.178,3.171,12.851a28.309,28.309,0,0,1-4.84,15.355,2.84,2.84,0,0,0-.167,1.168c2.5,9.513,1,18.192-6.008,25.7a2.329,2.329,0,0,0-.5,1.5,26.619,26.619,0,0,1-11.015,20.529c-3.338,2.5-7.344,3.5-11.516,4.172a131.513,131.513,0,0,1-18.192,1c-18.693,0-37.385-.167-56.078-.334-4.339,0-8.512-.167-12.851-.5a15.443,15.443,0,0,1-3.839-.668c-3-1-5.841-.668-8.846-.167-2,.334-4.005.5-6.008.668a1,1,0,0,0-.668.167,19.461,19.461,0,0,1-7.51,1H266.285a13.178,13.178,0,0,1-13.018-9.847,13.493,13.493,0,0,1-.167-2.67V245.349c0-7.344,5.674-12.517,13.686-12.517H279.8c1.168,0,2.337.334,3.338.334.5,0,1-.334,1.5-.334h13.686a20.549,20.549,0,0,1,3.338.334,2.193,2.193,0,0,0,2-.5c4.006-3.338,7.01-7.51,9.847-11.683,3.171-4.84,6.008-10.014,9.513-14.854,4.673-6.342,9.68-12.351,14.687-18.359,2.5-3,5.007-6.175,7.677-9.179a16.108,16.108,0,0,0,3.672-7.344c1.335-5.341,2.5-10.681,4.006-16.022a34.187,34.187,0,0,1,3.672-8.846c6.175-10.348,20.362-12.017,29.207-3.338a31.584,31.584,0,0,1,8.011,14.353,47.49,47.49,0,0,1,0,26.871,32.023,32.023,0,0,1-4.006,8.345c-2.17,3.672-4.172,7.511-6.342,11.349-.334.5-.5,1.168-1.335,1a2.115,2.115,0,0,1,.167-1h0a.582.582,0,0,0-.334.167,1.264,1.264,0,0,0,.334.668c-.334-.167-.334,0-.334,0Zm-1.335-52.573a4.418,4.418,0,0,0-1-.835,29.022,29.022,0,0,0-2-2.337c-3.839-3.672-9.18-3-11.85,1.5a34.471,34.471,0,0,0-2.5,5.674c-1.5,5.341-2.67,10.681-4.006,16.022-1,3.5-2,7.177-4.506,10.181l-9.513,11.516c-7.177,8.679-14.353,17.357-19.861,27.038-3.839,6.676-8.345,13.185-14.52,18.526-.167.167-.334.668-.167.834a14.453,14.453,0,0,1,1,5.341v68.261a28.453,28.453,0,0,1,10.014.835,35.079,35.079,0,0,0,7.177.835c19.36.167,38.72.334,58.081.334a164.817,164.817,0,0,0,20.361-.835,17.932,17.932,0,0,0,7.344-2.17c5.508-3.5,8.178-11.015,6.008-16.857,9.012-7.177,11.683-15.688,5.674-25.535,1-1.168,2.17-2.17,3.171-3.171,3.171-3.839,4.006-8.345,3.839-13.185a10.179,10.179,0,0,0-5.174-8.679,21.249,21.249,0,0,0-2-1.168c2.837-1.669,4.506-3.839,4.84-6.843a13.309,13.309,0,0,0-2.169-8.679c-5.007-7.01-12.351-10.181-21.2-9.513a176.908,176.908,0,0,1-23.032.5c-3.338-.334-6.843-.835-10.181-1.5s-5.007-2.67-4.84-5.841a26.6,26.6,0,0,1,1.168-6.342c1.836-5.675,5.007-10.848,7.844-16.022,1.5-2.67,3.338-5.174,4.172-8.011a36.9,36.9,0,0,0-1.335-26.7A12.329,12.329,0,0,0,380.777,152.22ZM263.614,278.728v33.713c0,2.337.835,3.171,3.338,3.171h30.709c2.5,0,3.5-.835,3.5-3.171V244.848c0-2.17-1-3-3.171-3H266.952c-2.5,0-3.338.835-3.338,3Zm117.33-73.936c-.167,0-.167,0-.334-.167-.167.334-.5.835-.334,1.168,0,.334.5.668.835.835l.167-.167A5.93,5.93,0,0,1,380.944,204.792Zm-31.711-27.2v2.17h.167c0-.834.167-1.836.167-2.67-.167,0-.167,0-.334-.167-.167.334-.5.668-.668,1a.164.164,0,0,1,.167.167Z" transform="translate(-253.1 -137.451)" fill="#1b75bb"/>
      </g>
      <g id="Group_66" data-name="Group 66" transform="translate(24.367 146.117)">
        <rect id="Rectangle_3" data-name="Rectangle 3" width="9.847" height="22.197" fill="#1b75bb"/>
      </g>
    </g>
    <g id="Group_72" data-name="Group 72" transform="translate(205.227 397.193)">
      <g id="Group_68" data-name="Group 68" transform="translate(342.141 106.147)">
        <path id="Path_550" data-name="Path 550" d="M420.956,157.6a65.926,65.926,0,0,1-16.356,3,173.324,173.324,0,0,1,.334,158.553,68.248,68.248,0,0,1,16.69,2.17,188.621,188.621,0,0,0-.668-163.727Z" transform="translate(-404.6 -157.6)" fill="#1b75bb"/>
      </g>
      <g id="Group_69" data-name="Group 69" transform="translate(107.983 0)">
        <path id="Path_551" data-name="Path 551" d="M268.639,127.88a172.571,172.571,0,0,1,160.222,3.839,74.845,74.845,0,0,1,3.338-16.356,189.133,189.133,0,0,0-167.9-3.338A65.716,65.716,0,0,1,268.639,127.88Z" transform="translate(-264.3 -94)" fill="#1b75bb"/>
      </g>
      <g id="Group_70" data-name="Group 70" transform="translate(103.811 337.802)">
        <path id="Path_552" data-name="Path 552" d="M434.206,296.4a172.91,172.91,0,0,1-169.4,3,68.71,68.71,0,0,1-3,16.523,188.972,188.972,0,0,0,175.41-2.837A68.59,68.59,0,0,1,434.206,296.4Z" transform="translate(-261.8 -296.4)" fill="#1b75bb"/>
      </g>
      <g id="Group_71" data-name="Group 71" transform="translate(0 103.644)">
        <path id="Path_553" data-name="Path 553" d="M215.622,241.218a171.833,171.833,0,0,1,19.861-80.445,63.055,63.055,0,0,1-15.688-4.673,189.133,189.133,0,0,0,.167,170.4,65.925,65.925,0,0,1,16.356-3A172.405,172.405,0,0,1,215.622,241.218Z" transform="translate(-199.6 -156.1)" fill="#1b75bb"/>
      </g>
    </g>
    <g id="Group_77" data-name="Group 77" transform="translate(162 354.3)">
      <g id="Group_73" data-name="Group 73" transform="translate(121.335 0)">
        <path id="Path_554" data-name="Path 554" d="M263.757,109.524a212.346,212.346,0,0,1,191.933,2.837,69.26,69.26,0,0,1,15.688-13.853A232.487,232.487,0,0,0,246.4,96.172,65.106,65.106,0,0,1,263.757,109.524Z" transform="translate(-246.4 -68.3)" fill="#1b75bb"/>
      </g>
      <g id="Group_74" data-name="Group 74" transform="translate(422.419 122.837)">
        <path id="Path_555" data-name="Path 555" d="M440.986,141.9A65.3,65.3,0,0,1,426.8,157.255a212.7,212.7,0,0,1,1.168,184.756,67.364,67.364,0,0,1,14.854,14.353A231.937,231.937,0,0,0,440.986,141.9Z" transform="translate(-426.8 -141.9)" fill="#1b75bb"/>
      </g>
      <g id="Group_75" data-name="Group 75" transform="translate(120.501 417.913)">
        <path id="Path_556" data-name="Path 556" d="M459.029,318.7a210.891,210.891,0,0,1-101.641,25.869A213.653,213.653,0,0,1,261.255,321.7,69.029,69.029,0,0,1,245.9,335.891a232.341,232.341,0,0,0,228.15-3.171A70.124,70.124,0,0,1,459.029,318.7Z" transform="translate(-245.9 -318.7)" fill="#1b75bb"/>
      </g>
      <g id="Group_76" data-name="Group 76" transform="translate(0 115.994)">
        <path id="Path_557" data-name="Path 557" d="M216.593,349.928a212.618,212.618,0,0,1,.834-194.77A66.066,66.066,0,0,1,204.576,137.8a231.787,231.787,0,0,0-2.17,227.315A76.648,76.648,0,0,1,216.593,349.928Z" transform="translate(-173.7 -137.8)" fill="#1b75bb"/>
      </g>
    </g>
  </g>
</svg>
