<svg xmlns="http://www.w3.org/2000/svg" width="420.747" height="468.338" viewBox="0 0 420.747 468.338">
  <g id="Group_102" data-name="Group 102" transform="translate(-353 -27)">
    <g id="videoproduction6" transform="translate(353 27)">
      <g id="Group_80" data-name="Group 80" transform="translate(162.586)">
        <path id="Path_561" data-name="Path 561" d="M1294.294,612.56a89.98,89.98,0,0,1-63.663-153.644h0a90.034,90.034,0,1,1,63.663,153.644ZM1241.82,470.1a74.185,74.185,0,1,0,52.474-21.746A73.385,73.385,0,0,0,1241.82,470.1Z" transform="translate(-1204.275 -432.6)" fill="#fff"/>
      </g>
      <g id="Group_81" data-name="Group 81" transform="translate(208.483 45.857)">
        <path id="Path_562" data-name="Path 562" d="M1277.523,549.947a44.123,44.123,0,1,1,44.123-44.123A44.253,44.253,0,0,1,1277.523,549.947Zm0-72.488a28.365,28.365,0,1,0,28.365,28.365A28.448,28.448,0,0,0,1277.523,477.458Z" transform="translate(-1233.4 -461.7)" fill="#fff"/>
      </g>
      <g id="Group_82" data-name="Group 82" transform="translate(40.657 47.118)">
        <path id="Path_563" data-name="Path 563" d="M1195.763,595.5c-37.978,0-68.864-29.783-68.864-66.5s30.885-66.5,68.864-66.5,68.865,29.783,68.865,66.5S1233.742,595.5,1195.763,595.5Zm0-117.242c-29.31,0-53.105,22.692-53.105,50.742s23.8,50.742,53.105,50.742,53.106-22.692,53.106-50.742S1225.074,478.258,1195.763,478.258Z" transform="translate(-1126.9 -462.5)" fill="#fff"/>
      </g>
      <g id="Group_83" data-name="Group 83" transform="translate(74.064 78.161)">
        <path id="Path_564" data-name="Path 564" d="M1183.556,553.113a35.456,35.456,0,1,1,35.457-35.456A35.509,35.509,0,0,1,1183.556,553.113Zm0-55.154a19.7,19.7,0,1,0,19.7,19.7A19.706,19.706,0,0,0,1183.556,497.958Z" transform="translate(-1148.1 -482.2)" fill="#fff"/>
      </g>
      <g id="Group_84" data-name="Group 84" transform="translate(40.657 164.202)">
        <path id="Path_565" data-name="Path 565" d="M1428.829,714.082H1126.9V536.8h301.929Zm-286.171-15.759h270.413V552.558H1142.658Z" transform="translate(-1126.9 -536.8)" fill="#fff"/>
      </g>
      <g id="Group_85" data-name="Group 85" transform="translate(101.642 220.774)">
        <path id="Path_566" data-name="Path 566" d="M1292.928,644.715H1165.6V572.7h127.328Zm-111.57-15.758h95.812v-40.5h-95.812Z" transform="translate(-1165.6 -572.7)" fill="#fff"/>
      </g>
      <g id="Group_86" data-name="Group 86" transform="translate(0 219.356)">
        <path id="Path_567" data-name="Path 567" d="M1157.515,638.773H1101.1V571.8h56.416Zm-40.657-15.759h24.9V587.558h-24.9Z" transform="translate(-1101.1 -571.8)" fill="#fff"/>
      </g>
      <g id="Group_87" data-name="Group 87" transform="translate(110.624 322.888)">
        <path id="Path_568" data-name="Path 568" d="M1184.536,782.95l-13.237-8.824L1262.225,637.5l71.385,137.413-13.867,7.249L1260.65,668.386Z" transform="translate(-1171.3 -637.5)" fill="#fff"/>
      </g>
      <g id="Group_88" data-name="Group 88" transform="translate(331.083 168.614)">
        <path id="Path_569" data-name="Path 569" d="M1400.865,702.7,1311.2,656.369l7.249-13.867,66.657,34.353V565.444l-66.657,34.511-7.249-13.868,89.665-46.487Z" transform="translate(-1311.2 -539.6)" fill="#fff"/>
      </g>
      <g id="Group_91" data-name="Group 91" transform="translate(272.462 223.926)">
        <g id="Group_89" data-name="Group 89" transform="translate(0)">
          <path id="Path_570" data-name="Path 570" d="M1289.6,606.689c-10.243,0-15.6-8.037-15.6-15.916a17.512,17.512,0,0,1,3.783-10.874,15.033,15.033,0,0,1,11.661-5.2c10.242,0,15.6,8.037,15.6,15.916a16.443,16.443,0,0,1-3.938,10.873A14.479,14.479,0,0,1,1289.6,606.689Zm0-24.111c-5.988,0-7.721,5.043-7.721,8.195,0,2.994,1.575,8.037,7.721,8.037a7.036,7.036,0,0,0,5.673-2.364,9.038,9.038,0,0,0,2.049-5.83C1297.323,586.991,1295.274,582.579,1289.6,582.579Z" transform="translate(-1274 -574.7)" fill="#fff"/>
        </g>
        <g id="Group_90" data-name="Group 90" transform="translate(0 33.565)">
          <path id="Path_571" data-name="Path 571" d="M1289.6,628.147c-10.243,0-15.6-8.037-15.6-16.073a17.513,17.513,0,0,1,3.783-10.874,15.033,15.033,0,0,1,11.661-5.2c10.242,0,15.6,8.037,15.6,15.916a16.445,16.445,0,0,1-3.938,10.874A14.14,14.14,0,0,1,1289.6,628.147Zm0-24.11c-5.988,0-7.721,5.043-7.721,8.194s1.575,8.194,7.721,8.194a7.036,7.036,0,0,0,5.673-2.364,9.037,9.037,0,0,0,2.049-5.83C1297.323,608.449,1295.274,604.036,1289.6,604.036Z" transform="translate(-1274 -596)" fill="#fff"/>
        </g>
      </g>
    </g>
  </g>
</svg>
