<svg xmlns="http://www.w3.org/2000/svg" width="476.229" height="440.012" viewBox="0 0 476.229 440.012">
  <g id="websitedevelopment6" transform="translate(-115.1 -33.4)">
    <g id="Group_93" data-name="Group 93" transform="translate(115.1 33.4)">
      <g id="Group_92" data-name="Group 92" transform="translate(0 0)">
        <path id="Path_572" data-name="Path 572" d="M572.66,52.068V409.753H133.768V52.068H572.66M591.329,33.4H115.1V428.422H591.329V33.4Z" transform="translate(-115.1 -33.4)" fill="#1b75bb"/>
      </g>
    </g>
    <g id="Group_94" data-name="Group 94" transform="translate(115.1 334.52)">
      <rect id="Rectangle_4" data-name="Rectangle 4" width="476.229" height="18.668" transform="translate(0)" fill="#1b75bb"/>
    </g>
    <g id="Group_95" data-name="Group 95" transform="translate(328.95 115.016)">
      <rect id="Rectangle_5" data-name="Rectangle 5" width="163.161" height="18.668" transform="translate(0 160.371) rotate(-79.386)" fill="#1b75bb"/>
    </g>
    <g id="Group_96" data-name="Group 96" transform="translate(213.669 129.542)">
      <path id="Path_573" data-name="Path 573" d="M230.625,215.2,167.9,152.479,234.359,84.9,247.8,97.968l-53.765,54.511,49.658,49.658Z" transform="translate(-167.9 -84.9)" fill="#1b75bb"/>
    </g>
    <g id="Group_97" data-name="Group 97" transform="translate(408.566 129.542)">
      <path id="Path_574" data-name="Path 574" d="M289.288,215.2,276.22,202.137l49.658-49.658L272.3,97.968,285.741,84.9,352.2,152.479Z" transform="translate(-272.3 -84.9)" fill="#1b75bb"/>
    </g>
    <g id="Group_100" data-name="Group 100" transform="translate(279.568 428.421)">
      <g id="Group_98" data-name="Group 98" transform="translate(122.091)">
        <rect id="Rectangle_6" data-name="Rectangle 6" width="18.668" height="35.656" fill="#1b75bb"/>
      </g>
      <g id="Group_99" data-name="Group 99" transform="translate(0)">
        <rect id="Rectangle_7" data-name="Rectangle 7" width="18.668" height="35.656" fill="#1b75bb"/>
      </g>
    </g>
    <g id="Group_101" data-name="Group 101" transform="translate(255.672 454.744)">
      <rect id="Rectangle_8" data-name="Rectangle 8" width="188.55" height="18.668" transform="translate(0)" fill="#1b75bb"/>
    </g>
  </g>
</svg>
