<?xml version="1.0" encoding="utf-8"?>
<!-- Generator: Adobe Illustrator 26.0.1, SVG Export Plug-In . SVG Version: 6.00 Build 0)  -->
<svg version="1.1" id="Layer_1" xmlns="http://www.w3.org/2000/svg" xmlns:xlink="http://www.w3.org/1999/xlink" x="0px" y="0px"
	 viewBox="0 0 2436 1125" style="enable-background:new 0 0 2436 1125;" xml:space="preserve">
<style type="text/css">
	.st0{stroke:#1B75BB;stroke-width:10;stroke-miterlimit:10;}
</style>
<g>
	<path class="st0" d="M710.33,475.7c-0.3,0.56-0.47,1.27-0.91,1.65c-22.24,19.27-22.77,64.75,13.54,84.08
		c0.56,0.3,1.1,0.64,1.89,1.11c-3.77,12.49-9.68,23.77-17.16,34.2c-3.96,5.53-8.18,10.98-12.92,15.83
		c-8.66,8.86-19.1,11.65-31.05,7.32c-2.34-0.85-4.76-1.5-7.03-2.51c-13.54-6.02-26.98-5.65-40.66-0.21
		c-21.39,8.51-29.81,6.37-44.33-11.46c-21.63-26.56-33.64-56.89-33.32-91.35c0.19-20.53,6.5-39.18,22.96-52.72
		c15.41-12.67,33.08-16.88,51.72-8.56c13.74,6.14,26.16,6.14,40,0.14c20.57-8.92,40.37-5.87,58.07,8.24c2.8,2.23,5.03,5.19,7.97,8.3
		c-3.32,2.27-6.12,4.18-8.92,6.08c2.01-2.24,4.03-4.48,6.03-6.72c-11.56-15.89-35.63-23.18-56.15-16.92
		c-4.92,1.5-9.84,3.12-14.53,5.19c-8.44,3.73-16.55,3.38-25.04-0.04c-6.74-2.72-13.76-5.69-20.87-6.39
		c-20.35-2-36.17,6.8-47.72,23.25c-9.65,13.74-13.09,29.51-12.24,45.96c1.73,33.39,14.15,62.66,35.91,87.93
		c11.33,13.15,20.59,15.27,36.78,9.04c1.08-0.42,2.13-0.93,3.22-1.35c10.3-4.06,20.91-5.73,31.77-2.98
		c5.93,1.5,11.69,3.77,17.44,5.91c10.97,4.08,20.79,1.5,28.25-6.74c7.42-8.2,13.96-17.34,19.96-26.66
		c4.33-6.72,7.16-14.41,10.62-21.57c-27.07-16.09-34.08-37.02-29.29-62.84C696.21,490.64,701.23,481.72,710.33,475.7z"/>
	<path class="st0" d="M664.45,427.6c-5.57,9.69-20.08,17.01-31.17,15.71c-5.19-20.36,19.31-48.97,43.9-50.56
		c0.13,13.4-3.2,25.32-12.9,35.01c0.53-1.14,1.03-2.29,1.59-3.41c2.68-5.31,5.87-10.44,7.9-15.99c1.58-4.3,1.72-9.14,2.55-14.02
		c-23.8,2.82-45.72,28.58-41.61,47.96c10.13-0.26,18.43-4.58,25.66-11.4C661.65,429.7,663.09,428.69,664.45,427.6z"/>
</g>
</svg>
