<?xml version="1.0" encoding="utf-8"?>
<!-- Generator: Adobe Illustrator 26.0.1, SVG Export Plug-In . SVG Version: 6.00 Build 0)  -->
<svg version="1.1" id="Layer_1" xmlns="http://www.w3.org/2000/svg" xmlns:xlink="http://www.w3.org/1999/xlink" x="0px" y="0px"
	 viewBox="0 0 2436 1125" style="enable-background:new 0 0 2436 1125;" xml:space="preserve">
<style type="text/css">
	.st0{fill:none;stroke:#1B75BB;stroke-width:10;stroke-miterlimit:10;}
</style>
<g>
	<polygon class="st0" points="1218.71,482.74 1131.71,612.04 1167.63,693.46 1171.62,702.24 1263.41,702.24 1309.7,613.64 	"/>
	<line class="st0" x1="1220.71" y1="588.9" x2="1218.71" y2="482.74"/>
	<circle class="st0" cx="1220.71" cy="614.94" r="25.64"/>
	<path class="st0" d="M1171.62,702.24c0,0-37.51,15.17-39.91,27.14s-3.19,19.16-3.19,19.16h176.4c0,0,10.38-16.76-6.39-30.33
		s-32.13-21.69-32.13-21.69"/>
	<circle class="st0" cx="1380.14" cy="406.67" r="25.64"/>
	<circle class="st0" cx="1056.08" cy="406.67" r="25.64"/>
	<rect x="1188.38" y="376.58" class="st0" width="61.06" height="61.06"/>
	<line class="st0" x1="1081.72" y1="406.67" x2="1188.38" y2="406.67"/>
	<line class="st0" x1="1249.44" y1="407.11" x2="1354.5" y2="406.67"/>
</g>
</svg>
