<?xml version="1.0" encoding="utf-8"?>
<!-- Generator: Adobe Illustrator 26.0.1, SVG Export Plug-In . SVG Version: 6.00 Build 0)  -->
<svg version="1.1" id="Layer_1" xmlns="http://www.w3.org/2000/svg" xmlns:xlink="http://www.w3.org/1999/xlink" x="0px" y="0px"
	 viewBox="0 0 2436 1125" style="enable-background:new 0 0 2436 1125;" xml:space="preserve">
<style type="text/css">
	.st0{fill:none;stroke:#1B75BB;stroke-width:10;stroke-miterlimit:10;}
	.st1{fill:#1B75BB;stroke:#1B75BB;stroke-width:10;stroke-miterlimit:10;}
</style>
<path class="st0" d="M1233,284.62v31.48c0,0,2.25,11.24,13.49,11.24s157.4,0,157.4,0s8.99-1.69,9.56-6.75c0.56-5.06,0-33.17,0-33.17
	s-0.66-4.87-5.06-5.53s-26.8,0-26.8,0s-4.87,0-4.87,7.5s-0.09,13.02-0.09,13.02s-0.37,4.4-12.37,4.59s-19.3,1.87-19.39-6.75
	s2.53-18.67-5.81-18.66c-8.34,0.01-34.67,0.39-34.67,0.39s-3,0.19-2.81,4.97s0.37,10.96,0.37,10.96s1.97,7.96-3.37,7.78
	c-5.34-0.19-21.92,0.19-21.92,0.19s-7.21,1.69-7.31-8.62c-0.09-10.31-0.94-15.11-8.9-15.66c-7.96-0.55-25.86,0-25.86,0
	S1233,281.06,1233,284.62z"/>
<polygon class="st0" points="1401.55,327.55 1390.54,368.84 1256.2,368.84 1245.74,327.55 "/>
<path class="st0" d="M1399.77,391.41h-149.35c-1.99,0-3.61-1.63-3.61-3.61v-15.35c0-1.99,1.63-3.61,3.61-3.61h149.35
	c1.99,0,3.61,1.63,3.61,3.61v15.35C1403.38,389.79,1401.75,391.41,1399.77,391.41z"/>
<path class="st0" d="M1398.32,438.21h-149.35c-1.99,0-3.61-1.63-3.61-3.61v-15.35c0-1.99,1.63-3.61,3.61-3.61h149.35
	c1.99,0,3.61,1.63,3.61,3.61v15.35C1401.93,436.58,1400.31,438.21,1398.32,438.21z"/>
<line class="st0" x1="1261.15" y1="391.41" x2="1261.15" y2="415.64"/>
<line class="st0" x1="1382.83" y1="391.41" x2="1382.83" y2="415.64"/>
<rect x="1256.64" y="438.21" class="st0" width="131.14" height="120.57"/>
<line class="st0" x1="1256.64" y1="535.11" x2="1387.78" y2="535.11"/>
<polyline class="st0" points="1256.64,558.79 1231.42,558.79 1231.42,581.91 1408.71,581.91 1408.71,558.79 1387.78,558.79 "/>
<polyline class="st0" points="1231.42,581.91 1207.75,581.91 1207.75,616.59 1429.63,616.59 1426.88,581.91 1408.71,581.91 "/>
<path class="st1" d="M1177.52,474.57l26.31-19.08c0.36-0.26,0.44-0.77,0.18-1.13l-3.39-4.68c-0.26-0.36-0.77-0.44-1.13-0.18
	l-26.31,19.08c-0.36,0.26-0.44,0.77-0.18,1.13l3.39,4.68C1176.65,474.75,1177.16,474.83,1177.52,474.57z"/>
<path class="st1" d="M1171.77,345.73l29.75,13.09c0.41,0.18,0.88-0.01,1.06-0.41l2.33-5.29c0.18-0.41-0.01-0.88-0.41-1.06
	l-29.75-13.09c-0.41-0.18-0.88,0.01-1.06,0.41l-2.33,5.29C1171.18,345.07,1171.36,345.55,1171.77,345.73z"/>
<path class="st1" d="M1157.27,407.88h32.51c0.44,0,0.81-0.36,0.81-0.81v-5.78c0-0.44-0.36-0.81-0.81-0.81h-32.51
	c-0.44,0-0.81,0.36-0.81,0.81v5.78C1156.47,407.52,1156.83,407.88,1157.27,407.88z"/>
<path class="st1" d="M1461.18,475.71l-26.31-19.08c-0.36-0.26-0.44-0.77-0.18-1.13l3.39-4.68c0.26-0.36,0.77-0.44,1.13-0.18
	l26.31,19.08c0.36,0.26,0.44,0.77,0.18,1.13l-3.39,4.68C1462.05,475.89,1461.54,475.97,1461.18,475.71z"/>
<path class="st1" d="M1466.56,346.87l-29.75,13.09c-0.41,0.18-0.88-0.01-1.06-0.41l-2.33-5.29c-0.18-0.41,0.01-0.88,0.41-1.06
	l29.75-13.09c0.41-0.18,0.88,0.01,1.06,0.41l2.33,5.29C1467.15,346.21,1466.97,346.69,1466.56,346.87z"/>
<path class="st1" d="M1481.06,409.03h-32.51c-0.44,0-0.81-0.36-0.81-0.81v-5.78c0-0.44,0.36-0.81,0.81-0.81h32.51
	c0.44,0,0.81,0.36,0.81,0.81v5.78C1481.86,408.66,1481.5,409.03,1481.06,409.03z"/>
</svg>
