<?xml version="1.0" encoding="utf-8"?>
<!-- Generator: Adobe Illustrator 26.0.1, SVG Export Plug-In . SVG Version: 6.00 Build 0)  -->
<svg version="1.1" id="Layer_1" xmlns="http://www.w3.org/2000/svg" xmlns:xlink="http://www.w3.org/1999/xlink" x="0px" y="0px"
	 viewBox="0 0 2436 1125" style="enable-background:new 0 0 2436 1125;" xml:space="preserve">
<style type="text/css">
	.st0{clip-path:url(#SVGID_00000087373910934369728630000009543592724482972588_);}
	
		.st1{clip-path:url(#SVGID_00000118384145752401066400000001679701189946904718_);stroke:#1B75BB;stroke-width:10;stroke-miterlimit:10;}
	
		.st2{clip-path:url(#SVGID_00000168096814444213487730000015531291913362446754_);fill:none;stroke:#1B75BB;stroke-width:10;stroke-miterlimit:10;}
	
		.st3{clip-path:url(#SVGID_00000088127066049843270230000012366156259177475995_);stroke:#1B75BB;stroke-width:10;stroke-miterlimit:10;}
	
		.st4{clip-path:url(#SVGID_00000166641652280779241730000011762335266358836640_);fill:none;stroke:#1B75BB;stroke-width:10;stroke-miterlimit:10;}
	
		.st5{clip-path:url(#SVGID_00000160876483498953820050000013976260376990114709_);fill:#231F20;stroke:#1B75BB;stroke-width:10;stroke-miterlimit:10;}
	
		.st6{clip-path:url(#SVGID_00000085962476625845639040000012797124741110134159_);fill:#FFFFFF;stroke:#1B75BB;stroke-width:10;stroke-miterlimit:10;}
	
		.st7{clip-path:url(#SVGID_00000155836416388440583680000003416151595901200049_);fill:none;stroke:#1B75BB;stroke-width:10;stroke-miterlimit:10;}
	
		.st8{clip-path:url(#SVGID_00000106852557767611369590000000266505903609718698_);fill:none;stroke:#1B75BB;stroke-width:10;stroke-miterlimit:10;}
	
		.st9{clip-path:url(#SVGID_00000052814186529410643660000003675315822827532204_);fill:none;stroke:#1B75BB;stroke-width:10;stroke-miterlimit:10;}
	.st10{clip-path:url(#SVGID_00000087373910934369728630000009543592724482972588_);fill:#1B75BB;}
	
		.st11{clip-path:url(#SVGID_00000049206271141671135760000012581180778056696737_);fill:none;stroke:#1B75BB;stroke-width:10;stroke-miterlimit:10;}
	
		.st12{clip-path:url(#SVGID_00000061429435590843198140000002535909918636677794_);fill:none;stroke:#1B75BB;stroke-width:10;stroke-miterlimit:10;}
	
		.st13{clip-path:url(#SVGID_00000101814519654654421000000007207005460571075985_);fill:none;stroke:#1B75BB;stroke-width:10;stroke-miterlimit:10;}
	
		.st14{clip-path:url(#SVGID_00000049941042913100385030000008664721974652327598_);fill:none;stroke:#1B75BB;stroke-width:10;stroke-miterlimit:10;}
	
		.st15{clip-path:url(#SVGID_00000130630916014966355520000014328609749157320087_);fill:none;stroke:#1B75BB;stroke-width:10;stroke-miterlimit:10;}
	.st16{clip-path:url(#SVGID_00000007427476068084534960000009354295736355695234_);}
	
		.st17{clip-path:url(#SVGID_00000078046558660815973170000013332950352286939280_);fill:#231F20;stroke:#1B75BB;stroke-width:10;stroke-miterlimit:10;}
	
		.st18{clip-path:url(#SVGID_00000157274065195583751550000005354005016050497167_);fill:none;stroke:#1B75BB;stroke-width:10;stroke-miterlimit:10;}
	
		.st19{clip-path:url(#SVGID_00000177484483593989754800000009139157894754813095_);stroke:#1B75BB;stroke-width:10;stroke-miterlimit:10;}
	
		.st20{clip-path:url(#SVGID_00000155844443423296340920000005661647125702621864_);fill:none;stroke:#1B75BB;stroke-width:10;stroke-miterlimit:10;}
	
		.st21{clip-path:url(#SVGID_00000135682825805950552090000000501323003434572188_);stroke:#1B75BB;stroke-width:10;stroke-miterlimit:10;}
	
		.st22{clip-path:url(#SVGID_00000150798509058971985590000006353779357269010859_);fill:none;stroke:#1B75BB;stroke-width:10;stroke-miterlimit:10;}
	
		.st23{clip-path:url(#SVGID_00000076596431638424999790000015255307011566080445_);stroke:#1B75BB;stroke-width:10;stroke-miterlimit:10;}
	
		.st24{clip-path:url(#SVGID_00000134250776433838240100000015993036391739359885_);fill:none;stroke:#1B75BB;stroke-width:10;stroke-miterlimit:10;}
	.st25{fill:#1B75BB;}
</style>
<g>
	<g>
		<defs>
			<rect id="SVGID_1_" x="-212.05" y="158.83" width="2436" height="1125"/>
		</defs>
		<clipPath id="SVGID_00000109014625084855611920000015960868256189969300_">
			<use xlink:href="#SVGID_1_"  style="overflow:visible;"/>
		</clipPath>
		<g style="clip-path:url(#SVGID_00000109014625084855611920000015960868256189969300_);">
			<g>
				<defs>
					<rect id="SVGID_00000109728976751876551760000007993868812500719756_" x="-212.05" y="158.83" width="2436" height="1125"/>
				</defs>
				<clipPath id="SVGID_00000115493368227450715090000015262867941701446333_">
					<use xlink:href="#SVGID_00000109728976751876551760000007993868812500719756_"  style="overflow:visible;"/>
				</clipPath>
				
					<path style="clip-path:url(#SVGID_00000115493368227450715090000015262867941701446333_);stroke:#1B75BB;stroke-width:10;stroke-miterlimit:10;" d="
					M750.28,645.05h100.29c0.44,0,0.81-0.36,0.81-0.81v-5.92c0-0.44-0.36-0.81-0.81-0.81H750.28c-0.44,0-0.81,0.36-0.81,0.81v5.92
					C749.47,644.69,749.84,645.05,750.28,645.05"/>
				
					<use xlink:href="#SVGID_00000109728976751876551760000007993868812500719756_"  style="overflow:visible;fill:none;stroke:#1B75BB;stroke-width:10;stroke-miterlimit:10;"/>
			</g>
			<g>
				<defs>
					<rect id="SVGID_00000043437697358282224060000003481621427586827917_" x="-212.05" y="158.83" width="2436" height="1125"/>
				</defs>
				<clipPath id="SVGID_00000021115344696557613930000005875172336108956340_">
					<use xlink:href="#SVGID_00000043437697358282224060000003481621427586827917_"  style="overflow:visible;"/>
				</clipPath>
				
					<path style="clip-path:url(#SVGID_00000021115344696557613930000005875172336108956340_);fill:none;stroke:#1B75BB;stroke-width:10;stroke-miterlimit:10;" d="
					M750.28,645.05h100.29c0.44,0,0.81-0.36,0.81-0.81v-5.92c0-0.44-0.36-0.81-0.81-0.81H750.28c-0.44,0-0.81,0.36-0.81,0.81v5.92
					C749.47,644.69,749.84,645.05,750.28,645.05z"/>
				
					<use xlink:href="#SVGID_00000043437697358282224060000003481621427586827917_"  style="overflow:visible;fill:none;stroke:#1B75BB;stroke-width:10;stroke-miterlimit:10;"/>
			</g>
			<g>
				<defs>
					<rect id="SVGID_00000078010629494131463760000006549907596980151460_" x="-212.05" y="158.83" width="2436" height="1125"/>
				</defs>
				<clipPath id="SVGID_00000072271465370644066590000003687153200706692508_">
					<use xlink:href="#SVGID_00000078010629494131463760000006549907596980151460_"  style="overflow:visible;"/>
				</clipPath>
				
					<path style="clip-path:url(#SVGID_00000072271465370644066590000003687153200706692508_);stroke:#1B75BB;stroke-width:10;stroke-miterlimit:10;" d="
					M750.28,697.82h78.41c0.44,0,0.81-0.36,0.81-0.81v-5.92c0-0.44-0.36-0.81-0.81-0.81h-78.41c-0.44,0-0.81,0.36-0.81,0.81v5.92
					C749.47,697.45,749.84,697.82,750.28,697.82"/>
				
					<use xlink:href="#SVGID_00000078010629494131463760000006549907596980151460_"  style="overflow:visible;fill:none;stroke:#1B75BB;stroke-width:10;stroke-miterlimit:10;"/>
			</g>
			<g>
				<defs>
					<rect id="SVGID_00000119088509014350201930000000762085857860253312_" x="-212.05" y="158.83" width="2436" height="1125"/>
				</defs>
				<clipPath id="SVGID_00000145051560016812371440000007141408374718716321_">
					<use xlink:href="#SVGID_00000119088509014350201930000000762085857860253312_"  style="overflow:visible;"/>
				</clipPath>
				
					<path style="clip-path:url(#SVGID_00000145051560016812371440000007141408374718716321_);fill:none;stroke:#1B75BB;stroke-width:10;stroke-miterlimit:10;" d="
					M750.28,697.82h78.41c0.44,0,0.81-0.36,0.81-0.81v-5.92c0-0.44-0.36-0.81-0.81-0.81h-78.41c-0.44,0-0.81,0.36-0.81,0.81v5.92
					C749.47,697.45,749.84,697.82,750.28,697.82z"/>
				
					<use xlink:href="#SVGID_00000119088509014350201930000000762085857860253312_"  style="overflow:visible;fill:none;stroke:#1B75BB;stroke-width:10;stroke-miterlimit:10;"/>
			</g>
			<g>
				<defs>
					<rect id="SVGID_00000034807673516333796490000018189125064918959035_" x="-212.05" y="158.83" width="2436" height="1125"/>
				</defs>
				<clipPath id="SVGID_00000083048365703535077900000017108482017824696997_">
					<use xlink:href="#SVGID_00000034807673516333796490000018189125064918959035_"  style="overflow:visible;"/>
				</clipPath>
				
					<path style="clip-path:url(#SVGID_00000083048365703535077900000017108482017824696997_);fill:#231F20;stroke:#1B75BB;stroke-width:10;stroke-miterlimit:10;" d="
					M854.65,686.67c-10.27,0-10.29,14.75,0,14.75C864.92,701.43,864.93,686.67,854.65,686.67"/>
				
					<use xlink:href="#SVGID_00000034807673516333796490000018189125064918959035_"  style="overflow:visible;fill:none;stroke:#1B75BB;stroke-width:10;stroke-miterlimit:10;"/>
			</g>
			<g>
				<defs>
					<rect id="SVGID_00000183248408109556337110000002480859705410473886_" x="-212.05" y="158.83" width="2436" height="1125"/>
				</defs>
				<clipPath id="SVGID_00000143595838977680296460000015180947639374261145_">
					<use xlink:href="#SVGID_00000183248408109556337110000002480859705410473886_"  style="overflow:visible;"/>
				</clipPath>
				
					<path style="clip-path:url(#SVGID_00000143595838977680296460000015180947639374261145_);fill:#FFFFFF;stroke:#1B75BB;stroke-width:10;stroke-miterlimit:10;" d="
					M911.72,549.17h179.64c0,0,17.73-5.8,19.75,29.23c2.02,35.03,0,65.72,0,65.72v42.2c0,0-10.83,17.26-19.75,17.26H907.89
					c0,0-16.31-2.88-18.22-27.81c-1.91-24.93,0-112.84,0-112.84S896.38,549.17,911.72,549.17"/>
				
					<use xlink:href="#SVGID_00000183248408109556337110000002480859705410473886_"  style="overflow:visible;fill:none;stroke:#1B75BB;stroke-width:10;stroke-miterlimit:10;"/>
			</g>
			<g>
				<defs>
					<rect id="SVGID_00000124854272860149654530000000307588619912529081_" x="-212.05" y="158.83" width="2436" height="1125"/>
				</defs>
				<clipPath id="SVGID_00000070090802935758824680000004416346826604706231_">
					<use xlink:href="#SVGID_00000124854272860149654530000000307588619912529081_"  style="overflow:visible;"/>
				</clipPath>
				
					<path style="clip-path:url(#SVGID_00000070090802935758824680000004416346826604706231_);fill:none;stroke:#1B75BB;stroke-width:10;stroke-miterlimit:10;" d="
					M911.72,549.17h179.64c0,0,17.73-5.8,19.75,29.23c2.02,35.03,0,65.72,0,65.72v42.2c0,0-10.83,17.26-19.75,17.26H907.89
					c0,0-16.31-2.88-18.22-27.81c-1.91-24.93,0-112.84,0-112.84S896.38,549.17,911.72,549.17z"/>
				
					<use xlink:href="#SVGID_00000124854272860149654530000000307588619912529081_"  style="overflow:visible;fill:none;stroke:#1B75BB;stroke-width:10;stroke-miterlimit:10;"/>
			</g>
			<g>
				<defs>
					<rect id="SVGID_00000160907981810197436330000009705924064541163912_" x="-212.05" y="158.83" width="2436" height="1125"/>
				</defs>
				<clipPath id="SVGID_00000023251497124282094610000008044003030473058711_">
					<use xlink:href="#SVGID_00000160907981810197436330000009705924064541163912_"  style="overflow:visible;"/>
				</clipPath>
				
					<path style="clip-path:url(#SVGID_00000023251497124282094610000008044003030473058711_);fill:none;stroke:#1B75BB;stroke-width:10;stroke-miterlimit:10;" d="
					M882.64,579h-151.2c0,0-11.36-1.09-11.78,18.24c-0.42,19.34,0,118.12,0,118.12l-0.19,19.34c0,0,0.19,16.81,17.02,15.97h9.26
					l-0.43,36.16l41.65-36.16h181.1c0,0,13.7,1.68,13.7-15.13v-21.01v-9.25"/>
				
					<use xlink:href="#SVGID_00000160907981810197436330000009705924064541163912_"  style="overflow:visible;fill:none;stroke:#1B75BB;stroke-width:10;stroke-miterlimit:10;"/>
			</g>
			<g>
				<defs>
					<rect id="SVGID_00000070803009071614268240000002751633746780737925_" x="-212.05" y="158.83" width="2436" height="1125"/>
				</defs>
				<clipPath id="SVGID_00000046301673650235157140000004566830808713108355_">
					<use xlink:href="#SVGID_00000070803009071614268240000002751633746780737925_"  style="overflow:visible;"/>
				</clipPath>
				
					<polygon style="clip-path:url(#SVGID_00000046301673650235157140000004566830808713108355_);fill:none;stroke:#1B75BB;stroke-width:10;stroke-miterlimit:10;" points="
					972.96,590.69 972.96,661.7 1027.87,627.94 				"/>
				
					<use xlink:href="#SVGID_00000070803009071614268240000002751633746780737925_"  style="overflow:visible;fill:none;stroke:#1B75BB;stroke-width:10;stroke-miterlimit:10;"/>
			</g>
		</g>
		<path style="clip-path:url(#SVGID_00000109014625084855611920000015960868256189969300_);fill:#1B75BB;" d="M862.02,692.63
			c-0.07-0.25-0.16-0.49-0.27-0.72c-0.22-2.13-1.64-4.08-4.23-4.34c-0.72-0.48-1.63-0.77-2.72-0.77c-1.1,0-2.01,0.3-2.73,0.78
			c-1.58,0.23-2.69,1.11-3.34,2.26c-1.12,1.15-1.55,2.85-1.33,4.45c-0.39,2.53,0.93,5.37,3.94,5.8c0.73,0.49,1.64,0.78,2.74,0.78
			c0.33,0,0.64-0.04,0.94-0.09c0.31,0.05,0.63,0.09,0.98,0.09c0.07,0,0.12-0.01,0.19-0.01c0.1,0,0.19,0.01,0.29,0.01
			c2.76,0,4.34-1.84,4.73-3.95c0.24-0.32,0.44-0.66,0.56-1.05c0.31-0.6,0.46-1.24,0.43-1.93
			C862.14,693.52,862.08,693.07,862.02,692.63z"/>
		<use xlink:href="#SVGID_1_"  style="overflow:visible;fill:none;stroke:#1B75BB;stroke-width:10;stroke-miterlimit:10;"/>
	</g>
</g>
<g>
	<defs>
		<rect id="SVGID_00000129893129292350741560000011467644925095391665_" x="-96" y="57" width="2436" height="1125"/>
	</defs>
	<clipPath id="SVGID_00000035505128788052002970000003447085061628323229_">
		<use xlink:href="#SVGID_00000129893129292350741560000011467644925095391665_"  style="overflow:visible;"/>
	</clipPath>
	
		<path style="clip-path:url(#SVGID_00000035505128788052002970000003447085061628323229_);fill:none;stroke:#1B75BB;stroke-width:10;stroke-miterlimit:10;" d="
		M1250.35,921.61"/>
	
		<path style="clip-path:url(#SVGID_00000035505128788052002970000003447085061628323229_);fill:none;stroke:#1B75BB;stroke-width:10;stroke-miterlimit:10;" d="
		M1246.57,805.08c0,0,84.82,54.98,0,115.68"/>
	
		<use xlink:href="#SVGID_00000129893129292350741560000011467644925095391665_"  style="overflow:visible;fill:none;stroke:#1B75BB;stroke-width:10;stroke-miterlimit:10;"/>
</g>
<g>
	<defs>
		<rect id="SVGID_00000155131131747564521400000000268819848139293366_" x="-96" y="57" width="2436" height="1125"/>
	</defs>
	<clipPath id="SVGID_00000129193937555221774050000002326399042762680985_">
		<use xlink:href="#SVGID_00000155131131747564521400000000268819848139293366_"  style="overflow:visible;"/>
	</clipPath>
	
		<line style="clip-path:url(#SVGID_00000129193937555221774050000002326399042762680985_);fill:none;stroke:#1B75BB;stroke-width:10;stroke-miterlimit:10;" x1="900.46" y1="915.89" x2="952.28" y2="915.89"/>
	
		<use xlink:href="#SVGID_00000155131131747564521400000000268819848139293366_"  style="overflow:visible;fill:none;stroke:#1B75BB;stroke-width:10;stroke-miterlimit:10;"/>
</g>
<g>
	<defs>
		<rect id="SVGID_00000014629684111347662550000000240266089769108154_" x="-93.02" y="57.39" width="2436" height="1125"/>
	</defs>
	<clipPath id="SVGID_00000014613111129883112530000003394264432655939245_">
		<use xlink:href="#SVGID_00000014629684111347662550000000240266089769108154_"  style="overflow:visible;"/>
	</clipPath>
	
		<path style="clip-path:url(#SVGID_00000014613111129883112530000003394264432655939245_);fill:none;stroke:#1B75BB;stroke-width:10;stroke-miterlimit:10;" d="
		M1016.57,801.77H903.44c0,0-78.69,50.31,0,114.51"/>
	
		<use xlink:href="#SVGID_00000014629684111347662550000000240266089769108154_"  style="overflow:visible;fill:none;stroke:#1B75BB;stroke-width:10;stroke-miterlimit:10;"/>
</g>
<g>
	<defs>
		<rect id="SVGID_00000126308498927402698940000003663572896858906029_" x="-96" y="60" width="2436" height="1125"/>
	</defs>
	<clipPath id="SVGID_00000056426415701563401290000000241814523883499940_">
		<use xlink:href="#SVGID_00000126308498927402698940000003663572896858906029_"  style="overflow:visible;"/>
	</clipPath>
	
		<polygon style="clip-path:url(#SVGID_00000056426415701563401290000000241814523883499940_);fill:none;stroke:#1B75BB;stroke-width:10;stroke-miterlimit:10;" points="
		1013.59,801.04 1246.57,712.66 1246.57,1022 1013.59,918.89 	"/>
	
		<use xlink:href="#SVGID_00000126308498927402698940000003663572896858906029_"  style="overflow:visible;fill:none;stroke:#1B75BB;stroke-width:10;stroke-miterlimit:10;"/>
</g>
<g>
	<defs>
		<rect id="SVGID_00000094596814128356230930000001035829942343383993_" x="-96" y="57" width="2436" height="1125"/>
	</defs>
	<clipPath id="SVGID_00000093855710662642260960000009043022178107701676_">
		<use xlink:href="#SVGID_00000094596814128356230930000001035829942343383993_"  style="overflow:visible;"/>
	</clipPath>
	
		<line style="clip-path:url(#SVGID_00000093855710662642260960000009043022178107701676_);fill:none;stroke:#1B75BB;stroke-width:10;stroke-miterlimit:10;" x1="1177.51" y1="741.27" x2="1177.51" y2="891.7"/>
	
		<use xlink:href="#SVGID_00000094596814128356230930000001035829942343383993_"  style="overflow:visible;fill:none;stroke:#1B75BB;stroke-width:10;stroke-miterlimit:10;"/>
</g>
<g>
	<defs>
		<rect id="SVGID_00000118360456091045745860000004990916922954412162_" x="-96" y="57" width="2436" height="1125"/>
	</defs>
	<clipPath id="SVGID_00000101789821020785959770000011065452644735387826_">
		<use xlink:href="#SVGID_00000118360456091045745860000004990916922954412162_"  style="overflow:visible;"/>
	</clipPath>
	<g style="clip-path:url(#SVGID_00000101789821020785959770000011065452644735387826_);">
		<g>
			<defs>
				<rect id="SVGID_00000080191563455403063360000017094603031363935640_" x="-96" y="57" width="2436" height="1125"/>
			</defs>
			<clipPath id="SVGID_00000057851797829161107090000017461976665677931953_">
				<use xlink:href="#SVGID_00000080191563455403063360000017094603031363935640_"  style="overflow:visible;"/>
			</clipPath>
			
				<path style="clip-path:url(#SVGID_00000057851797829161107090000017461976665677931953_);fill:#231F20;stroke:#1B75BB;stroke-width:10;stroke-miterlimit:10;" d="
				M1177.51,925.33c-15,0-15.02,21.54,0,21.54C1192.51,946.88,1192.53,925.33,1177.51,925.33"/>
			
				<use xlink:href="#SVGID_00000080191563455403063360000017094603031363935640_"  style="overflow:visible;fill:none;stroke:#1B75BB;stroke-width:10;stroke-miterlimit:10;"/>
		</g>
		<g>
			<defs>
				<rect id="SVGID_00000183940958338410896680000005246147419436190880_" x="-96" y="57" width="2436" height="1125"/>
			</defs>
			<clipPath id="SVGID_00000085242120418122556310000009159149407948121759_">
				<use xlink:href="#SVGID_00000183940958338410896680000005246147419436190880_"  style="overflow:visible;"/>
			</clipPath>
			
				<polygon style="clip-path:url(#SVGID_00000085242120418122556310000009159149407948121759_);fill:none;stroke:#1B75BB;stroke-width:10;stroke-miterlimit:10;" points="
				1013.59,915.89 952.28,915.89 952.28,1017.98 1016.9,1017.98 			"/>
			
				<use xlink:href="#SVGID_00000183940958338410896680000005246147419436190880_"  style="overflow:visible;fill:none;stroke:#1B75BB;stroke-width:10;stroke-miterlimit:10;"/>
		</g>
		<g>
			<defs>
				<rect id="SVGID_00000178915437272121957340000003621016813582107806_" x="-96" y="57" width="2436" height="1125"/>
			</defs>
			<clipPath id="SVGID_00000183937350721338203270000000659181997242655373_">
				<use xlink:href="#SVGID_00000178915437272121957340000003621016813582107806_"  style="overflow:visible;"/>
			</clipPath>
			
				<path style="clip-path:url(#SVGID_00000183937350721338203270000000659181997242655373_);stroke:#1B75BB;stroke-width:10;stroke-miterlimit:10;" d="
				M1327.59,800.66l32.71-36.67c0.3-0.33,0.27-0.84-0.06-1.14l-7-6.24c-0.33-0.29-0.84-0.27-1.14,0.07l-32.71,36.67
				c-0.29,0.33-0.27,0.84,0.07,1.14l7,6.25C1326.78,801.02,1327.3,800.99,1327.59,800.66"/>
			
				<use xlink:href="#SVGID_00000178915437272121957340000003621016813582107806_"  style="overflow:visible;fill:none;stroke:#1B75BB;stroke-width:10;stroke-miterlimit:10;"/>
		</g>
		<g>
			<defs>
				<rect id="SVGID_00000083086420426363740560000016154002613829720723_" x="-96" y="57" width="2436" height="1125"/>
			</defs>
			<clipPath id="SVGID_00000045586156025964809290000018246544707212275107_">
				<use xlink:href="#SVGID_00000083086420426363740560000016154002613829720723_"  style="overflow:visible;"/>
			</clipPath>
			
				<path style="clip-path:url(#SVGID_00000045586156025964809290000018246544707212275107_);fill:none;stroke:#1B75BB;stroke-width:10;stroke-miterlimit:10;" d="
				M1327.59,800.66l32.71-36.67c0.3-0.33,0.27-0.84-0.06-1.14l-7-6.24c-0.33-0.29-0.84-0.27-1.14,0.07l-32.71,36.67
				c-0.29,0.33-0.27,0.84,0.07,1.14l7,6.25C1326.78,801.02,1327.3,800.99,1327.59,800.66z"/>
			
				<use xlink:href="#SVGID_00000083086420426363740560000016154002613829720723_"  style="overflow:visible;fill:none;stroke:#1B75BB;stroke-width:10;stroke-miterlimit:10;"/>
		</g>
		<g>
			<defs>
				<rect id="SVGID_00000098191004831809506800000013082711033416566409_" x="-96" y="57" width="2436" height="1125"/>
			</defs>
			<clipPath id="SVGID_00000044863436422603169000000001490940885705071759_">
				<use xlink:href="#SVGID_00000098191004831809506800000013082711033416566409_"  style="overflow:visible;"/>
			</clipPath>
			
				<path style="clip-path:url(#SVGID_00000044863436422603169000000001490940885705071759_);stroke:#1B75BB;stroke-width:10;stroke-miterlimit:10;" d="
				M1350.46,875.32h70.06c0.44,0,0.81-0.36,0.81-0.81v-9.38c0-0.44-0.36-0.81-0.81-0.81h-70.06c-0.44,0-0.81,0.36-0.81,0.81v9.38
				C1349.65,874.96,1350.02,875.32,1350.46,875.32"/>
			
				<use xlink:href="#SVGID_00000098191004831809506800000013082711033416566409_"  style="overflow:visible;fill:none;stroke:#1B75BB;stroke-width:10;stroke-miterlimit:10;"/>
		</g>
		<g>
			<defs>
				<rect id="SVGID_00000161632405507660796130000009825821784132805505_" x="-96" y="57" width="2436" height="1125"/>
			</defs>
			<clipPath id="SVGID_00000164474023752351153000000012936358123799711381_">
				<use xlink:href="#SVGID_00000161632405507660796130000009825821784132805505_"  style="overflow:visible;"/>
			</clipPath>
			
				<path style="clip-path:url(#SVGID_00000164474023752351153000000012936358123799711381_);fill:none;stroke:#1B75BB;stroke-width:10;stroke-miterlimit:10;" d="
				M1350.46,875.32h70.06c0.44,0,0.81-0.36,0.81-0.81v-9.38c0-0.44-0.36-0.81-0.81-0.81h-70.06c-0.44,0-0.81,0.36-0.81,0.81v9.38
				C1349.65,874.96,1350.02,875.32,1350.46,875.32z"/>
			
				<use xlink:href="#SVGID_00000161632405507660796130000009825821784132805505_"  style="overflow:visible;fill:none;stroke:#1B75BB;stroke-width:10;stroke-miterlimit:10;"/>
		</g>
		<g>
			<defs>
				<rect id="SVGID_00000075160375472908685100000015299788522427934906_" x="-96" y="57" width="2436" height="1125"/>
			</defs>
			<clipPath id="SVGID_00000030484923695071286780000007817518517035105955_">
				<use xlink:href="#SVGID_00000075160375472908685100000015299788522427934906_"  style="overflow:visible;"/>
			</clipPath>
			
				<path style="clip-path:url(#SVGID_00000030484923695071286780000007817518517035105955_);stroke:#1B75BB;stroke-width:10;stroke-miterlimit:10;" d="
				M1319.32,937.45l32.88,36.51c0.3,0.33,0.81,0.36,1.14,0.06l6.97-6.28c0.33-0.3,0.36-0.81,0.06-1.14l-32.89-36.51
				c-0.3-0.33-0.81-0.36-1.14-0.06l-6.97,6.28C1319.05,936.6,1319.02,937.12,1319.32,937.45"/>
			
				<use xlink:href="#SVGID_00000075160375472908685100000015299788522427934906_"  style="overflow:visible;fill:none;stroke:#1B75BB;stroke-width:10;stroke-miterlimit:10;"/>
		</g>
		<g>
			<defs>
				<rect id="SVGID_00000100348202973336453850000003616831284399256467_" x="-96" y="57" width="2436" height="1125"/>
			</defs>
			<clipPath id="SVGID_00000074436782536387944670000010231318461705818777_">
				<use xlink:href="#SVGID_00000100348202973336453850000003616831284399256467_"  style="overflow:visible;"/>
			</clipPath>
			
				<path style="clip-path:url(#SVGID_00000074436782536387944670000010231318461705818777_);fill:none;stroke:#1B75BB;stroke-width:10;stroke-miterlimit:10;" d="
				M1319.32,937.45l32.88,36.51c0.3,0.33,0.81,0.36,1.14,0.06l6.97-6.28c0.33-0.3,0.36-0.81,0.06-1.14l-32.89-36.51
				c-0.3-0.33-0.81-0.36-1.14-0.06l-6.97,6.28C1319.05,936.6,1319.02,937.12,1319.32,937.45z"/>
			
				<use xlink:href="#SVGID_00000100348202973336453850000003616831284399256467_"  style="overflow:visible;fill:none;stroke:#1B75BB;stroke-width:10;stroke-miterlimit:10;"/>
		</g>
	</g>
	
		<use xlink:href="#SVGID_00000118360456091045745860000004990916922954412162_"  style="overflow:visible;fill:none;stroke:#1B75BB;stroke-width:10;stroke-miterlimit:10;"/>
</g>
<path class="st25" d="M1188.41,933.47c0.04-1.96-0.91-3.95-2.87-4.74c-0.29-0.34-0.64-0.62-1.03-0.86
	c-0.78-1.04-2.01-1.75-3.69-1.78c-0.47-0.14-0.97-0.25-1.55-0.25c-0.25,0-0.49,0.02-0.72,0.05c-0.41-0.1-0.84-0.17-1.32-0.17
	c-0.36,0-0.68,0.04-1,0.1c-0.33-0.06-0.67-0.1-1.04-0.1c-0.89,0-1.66,0.2-2.3,0.53c-0.22,0.06-0.43,0.13-0.62,0.21
	c-2.83,0.14-4.34,2.26-4.53,4.52c-0.79,1.08-1.1,2.5-0.93,3.85c-0.07,0.58-0.06,1.18,0.05,1.75c-0.25,1.45,0.05,3.02,0.92,4.18
	c0.23,1.92,1.41,3.72,3.57,4.2c0.76,0.6,1.76,0.97,3,0.97c0.02,0,0.04,0,0.06,0c0.63,0.3,1.36,0.48,2.22,0.48
	c0.14,0,0.27-0.01,0.41-0.02c0.58,0.24,1.24,0.38,1.99,0.38c1.29,0,2.31-0.4,3.08-1.04c1.57-0.26,2.67-1.18,3.29-2.37
	c1.22-0.72,1.93-1.96,2.17-3.3C1189.34,938.42,1189.62,935.5,1188.41,933.47z"/>
</svg>
