<?xml version="1.0" encoding="utf-8"?>
<!-- Generator: Adobe Illustrator 26.0.1, SVG Export Plug-In . SVG Version: 6.00 Build 0)  -->
<svg version="1.1" id="Layer_1" xmlns="http://www.w3.org/2000/svg" xmlns:xlink="http://www.w3.org/1999/xlink" x="0px" y="0px"
	 viewBox="0 0 2436 1125" style="enable-background:new 0 0 2436 1125;" xml:space="preserve">
<style type="text/css">
	.st0{fill:none;stroke:#1B75BB;stroke-width:10;stroke-miterlimit:10;}
	.st1{stroke:#1B75BB;stroke-width:10;stroke-miterlimit:10;}
</style>
<path class="st0" d="M1058.31,420.58V185.03c0,0,0-22.48,31.05-23.56c31.05-1.07,370.46,0,370.46,0s21.41,3.21,22.48,43.9
	s0,205.57,0,205.57s-2.14,26.77-32.12,26.77s-269.81,0-269.81,0l-62.1,61.03l-8.57-63.17l-29.98-1.07
	C1079.72,434.5,1058.31,436.64,1058.31,420.58z"/>
<path class="st1" d="M1395.59,270.78h-259.26c-0.84,0-1.53-0.69-1.53-1.53v-5.72c0-0.84,0.69-1.53,1.53-1.53h259.26
	c0.84,0,1.53,0.69,1.53,1.53v5.72C1397.12,270.09,1396.43,270.78,1395.59,270.78z"/>
<path class="st1" d="M1395.59,360.62h-259.26c-0.84,0-1.53-0.69-1.53-1.53v-5.56c0-0.84,0.69-1.53,1.53-1.53h259.26
	c0.84,0,1.53,0.69,1.53,1.53v5.56C1397.12,359.94,1396.43,360.62,1395.59,360.62z"/>
<path class="st0" d="M1695.99,648.5V503.97c0,0,0-13.8-19.05-14.45s-227.31,0-227.31,0s-13.14,1.97-13.8,26.94
	c-0.66,24.96,0,126.14,0,126.14s1.31,16.42,19.71,16.42s165.55,0,165.55,0l38.1,37.45l5.26-38.76l18.39-0.66
	C1682.86,657.04,1695.99,658.36,1695.99,648.5z"/>
<path class="st1" d="M1488.83,611.71h159.5c0.4,0,0.73-0.33,0.73-0.73v-3.26c0-0.4-0.33-0.73-0.73-0.73h-159.5
	c-0.4,0-0.73,0.33-0.73,0.73v3.26C1488.1,611.39,1488.43,611.71,1488.83,611.71z"/>
<path class="st1" d="M1486.36,564.91h159.5c0.4,0,0.73-0.33,0.73-0.73v-3.26c0-0.4-0.33-0.73-0.73-0.73h-159.5
	c-0.4,0-0.73,0.33-0.73,0.73v3.26C1485.63,564.59,1485.96,564.91,1486.36,564.91z"/>
</svg>
