<?xml version="1.0" encoding="utf-8"?>
<!-- Generator: Adobe Illustrator 26.0.1, SVG Export Plug-In . SVG Version: 6.00 Build 0)  -->
<svg version="1.1" id="Layer_1" xmlns="http://www.w3.org/2000/svg" xmlns:xlink="http://www.w3.org/1999/xlink" x="0px" y="0px"
	 viewBox="0 0 2436 1125" style="enable-background:new 0 0 2436 1125;" xml:space="preserve">
<style type="text/css">
	.st0{fill:#1B75BB;stroke:#1B75BB;stroke-width:5;stroke-miterlimit:10;}
	.st1{clip-path:url(#SVGID_00000060713816083752756250000015886209816692002438_);}
	.st2{fill:none;stroke:#1B75BB;stroke-width:3;stroke-miterlimit:10;}
	.st3{clip-path:url(#SVGID_00000104669577409139861810000002448438035815972798_);}
	.st4{clip-path:url(#SVGID_00000013169400142648115770000004259369906230583712_);}
	.st5{clip-path:url(#SVGID_00000053540126853329505110000006299804705399231889_);}
	
		.st6{clip-path:url(#SVGID_00000130635494111370099970000008370856442599117749_);fill:none;stroke:#1B75BB;stroke-width:10;stroke-miterlimit:10;}
	
		.st7{clip-path:url(#SVGID_00000117654888412829954060000002698364632188433833_);fill:none;stroke:#1B75BB;stroke-width:10;stroke-miterlimit:10;}
	
		.st8{clip-path:url(#SVGID_00000048481948326572733660000017739970239278681509_);fill:none;stroke:#1B75BB;stroke-width:10;stroke-miterlimit:10;}
	
		.st9{clip-path:url(#SVGID_00000037658170070202282750000003695809572993570726_);fill:none;stroke:#1B75BB;stroke-width:10;stroke-miterlimit:10;}
	.st10{fill:#1B75BB;}
</style>
<path class="st0" d="M592.36,468.65c1.6-3.7,4.42-5,8.39-4.84c5.42,0.23,10.86,0.13,16.28,0.03c2.89-0.05,5.25,0.72,6.93,3.44
	c6.88-5.74,13.37-11.76,16.55-20.21c1.62-4.29,1.91-9.09,2.81-13.65c0.02-0.08,0.01-0.15,0.03-0.23c1.03-6.24,4.31-8.76,10.71-8.19
	c2.52,0.23,4.46,1.45,5.78,3.64c2.32,3.85,2.94,8.16,3.27,12.51c0.57,7.29,0.23,14.51-1.73,21.6c-0.08,0.28-0.01,0.58-0.01,1.12
	c3.51,0,6.92,0,10.35,0c4.05,0.01,8.11-0.08,12.16,0.05c5.76,0.18,10.21,2.35,11.86,8.41c0,1.07,0,2.15,0,3.22
	c-1.32,2.44-2.63,4.88-4.1,7.59c2.58,4.73,1.8,8.46-2.49,12.09c-0.39,0.33-0.5,1.32-0.35,1.9c0.99,4,0.71,7.83-2.72,10.43
	c-2.24,1.7-3.27,3.33-3.66,6.2c-0.64,4.83-5.7,8.18-11.26,8.21c-9.56,0.03-19.12,0.14-28.68-0.07c-2.82-0.06-5.73-0.78-8.43-1.71
	c-3.16-1.08-6.12-2.71-9.17-4.09c-2.05,4.92-3.5,5.89-8.69,5.89c-5.13,0-10.26-0.13-15.37,0.04c-4.05,0.14-6.96-1.19-8.47-5.1
	C592.36,500.83,592.36,484.74,592.36,468.65z M655.91,515.16c0-0.01,0-0.02,0-0.03c5.36,0,10.72,0.08,16.08-0.03
	c3.49-0.07,4.83-1.79,4.34-5.19c-0.53-3.74-0.53-3.74,2.92-5.28c3.76-1.67,4.47-3.47,2.9-7.29c-1.62-3.93-1.58-4.05,1.93-6.2
	c2.86-1.75,3.42-4.13,1.66-6.99c-2.09-3.41-2.09-3.41,1.04-5.93c0.24-0.19,0.48-0.39,0.69-0.6c2.46-2.42,1.91-5.53-1.34-6.71
	c-1.47-0.53-3.13-0.73-4.71-0.75c-9.19-0.07-18.37-0.04-27.56-0.03c-1.76,0-2.96-0.7-3.2-2.56c-0.23-1.94,0.46-3.19,2.51-3.73
	c0.66-0.18,1.42-1.03,1.62-1.71c2.06-7.22,2.81-14.57,1.8-22.03c-0.33-2.41-1.07-4.75-1.7-7.11c-0.52-1.95-2.12-1.54-3.56-1.55
	c-1.53-0.02-1.66,1.09-1.85,2.13c-0.38,2.03-0.76,4.06-1.04,6.1c-0.95,6.87-2.5,13.46-6.92,19.13c-4.47,5.72-9.69,10.61-15.32,15.12
	c-0.77,0.62-1.53,1.8-1.54,2.73c-0.11,10.26-0.09,20.53-0.02,30.79c0.01,0.68,0.65,1.65,1.26,1.95c2.8,1.39,5.73,2.51,8.53,3.9
	c2.6,1.29,5.24,1.96,8.16,1.89C647.02,515.08,651.46,515.16,655.91,515.16z M598.95,470.27c0,15.11,0,30.12,0,45.14
	c6.46,0,12.78,0,19.15,0c0-15.09,0-30.05,0-45.14C611.66,470.27,605.36,470.27,598.95,470.27z"/>
<g>
	<g>
		<defs>
			<rect id="SVGID_1_" x="523.6" y="366.74" width="239.26" height="223.09"/>
		</defs>
		<clipPath id="SVGID_00000181071255841709133280000018368672365916780174_">
			<use xlink:href="#SVGID_1_"  style="overflow:visible;"/>
		</clipPath>
		<g style="clip-path:url(#SVGID_00000181071255841709133280000018368672365916780174_);">
			<path class="st2" d="M589.36,556.25c-0.05,2.81-0.08,5.61-0.17,8.41c-0.06,2.13-0.47,4.19-1.53,6.05
				c-1.66,2.91-4.18,4.56-7.39,5.07c-1.51,0.23-3.05,0.31-4.58,0.33c-3.31,0.06-6.62,0.06-9.93,0.03c-1.84-0.02-3.68-0.06-5.49-0.28
				c-4.98-0.61-8.39-3.96-9.17-8.98c-0.25-1.61-0.3-3.27-0.33-4.9c-0.05-3.28-0.06-6.57-0.03-9.85c0.02-1.91,0.06-3.83,0.27-5.73
				c0.4-3.56,1.99-6.42,5.09-8.24c1.49-0.88,3.11-1.33,4.81-1.44c1.85-0.12,3.72-0.19,5.58-0.19c3.86,0,7.72,0.03,11.58,0.12
				c2.27,0.05,4.44,0.54,6.38,1.83c2.58,1.72,4.04,4.21,4.5,7.3c0.21,1.45,0.28,2.93,0.32,4.4c0.05,2.03,0.01,4.06,0.01,6.09
				C589.31,556.25,589.34,556.25,589.36,556.25z"/>
			<path class="st2" d="M580.38,556.34c0,5.64-4.65,10.22-10.36,10.2c-5.75-0.02-10.31-4.57-10.31-10.28
				c-0.01-5.64,4.81-10.22,10.55-10.12C575.77,546.23,580.38,550.78,580.38,556.34z"/>
			<path class="st2" d="M580.36,546.3c-1.36,0-2.4-0.81-2.39-1.84c0.02-1.02,1.09-1.82,2.44-1.81c1.35,0.01,2.39,0.81,2.39,1.85
				C582.78,545.52,581.73,546.3,580.36,546.3z"/>
		</g>
	</g>
	<g>
		<defs>
			<rect id="SVGID_00000050633325649097868920000007163587947680600968_" x="519.58" y="371.31" width="239.26" height="223.09"/>
		</defs>
		<clipPath id="SVGID_00000110432584659254284450000002013567704972399547_">
			<use xlink:href="#SVGID_00000050633325649097868920000007163587947680600968_"  style="overflow:visible;"/>
		</clipPath>
		<g style="clip-path:url(#SVGID_00000110432584659254284450000002013567704972399547_);">
			<path class="st2" d="M575.32,393.71c-0.21,1.51-0.39,2.84-0.58,4.26c-1.36,0-2.72,0-4.14,0c0,4.19,0,8.3,0,12.48
				c-2.06,0-4.06,0-6.14,0c0-4.11,0-8.22,0-12.43c-1.02,0-1.97,0-2.97,0c0-1.45,0-2.81,0-4.27c0.73,0,1.45-0.02,2.17,0.01
				c0.57,0.02,0.79-0.16,0.77-0.7c-0.03-1.02-0.03-2.05,0-3.07c0.07-2.33,1.61-3.98,4.09-4.36c0.63-0.1,1.28-0.11,1.92-0.11
				c1.57-0.01,3.14,0,4.77,0c0,1.38,0,2.77,0,4.29c-0.82,0-1.62,0-2.42,0c-1.86,0-2.22,0.34-2.21,2.02c0.01,0.59,0,1.18,0,1.89
				C572.16,393.71,573.69,393.71,575.32,393.71z"/>
			<circle class="st2" cx="568.4" cy="397.98" r="21.07"/>
		</g>
	</g>
	<g>
		<defs>
			<rect id="SVGID_00000092449837519025054840000012590617691949594256_" x="510.41" y="356.84" width="239.26" height="223.09"/>
		</defs>
		<clipPath id="SVGID_00000018211502655025147180000006128832180326088324_">
			<use xlink:href="#SVGID_00000092449837519025054840000012590617691949594256_"  style="overflow:visible;"/>
		</clipPath>
		<g style="clip-path:url(#SVGID_00000018211502655025147180000006128832180326088324_);">
			<path class="st2" d="M703.93,403.92c0.03-4.48,0.06-8.96,0.04-13.45c-0.02-2.94,1.39-4.36,4.64-4.34
				c8.87,0.05,17.74,0.01,26.62-0.01c2.94,0,4.43,1.33,4.41,4.12c-0.03,5.46-0.06,10.93-0.03,16.39c0.02,2.54-1.21,4.38-3.94,3.99
				c-9.41-1.37-16.89,1.8-23.29,7.92c-0.05,0.05-0.26-0.05-0.82-0.15c0-2.33,0-4.76,0-7.42
				C704.1,410.47,703.88,410.24,703.93,403.92z"/>
			<line class="st2" x1="725.68" y1="393.46" x2="725.68" y2="402.34"/>
			<line class="st2" x1="717.95" y1="393.46" x2="717.95" y2="402.34"/>
		</g>
	</g>
	<g>
		<defs>
			<rect id="SVGID_00000034058088445042736560000002176006087745703297_" x="519.58" y="353.08" width="239.26" height="223.09"/>
		</defs>
		<clipPath id="SVGID_00000021087859213573425960000003013988772047093179_">
			<use xlink:href="#SVGID_00000034058088445042736560000002176006087745703297_"  style="overflow:visible;"/>
		</clipPath>
		<g style="clip-path:url(#SVGID_00000021087859213573425960000003013988772047093179_);">
			<ellipse class="st2" cx="724.3" cy="556.47" rx="20.74" ry="19.7"/>
			<polygon class="st2" points="717.92,550.27 717.92,562.67 730.68,556.78 			"/>
		</g>
	</g>
</g>
<g>
	<defs>
		<rect id="SVGID_00000034785420016320974810000012633494207798998714_" x="596.39" y="371.21" width="99.36" height="228.24"/>
	</defs>
	<clipPath id="SVGID_00000174591150055701755300000012306498335730027939_">
		<use xlink:href="#SVGID_00000034785420016320974810000012633494207798998714_"  style="overflow:visible;"/>
	</clipPath>
	
		<circle style="clip-path:url(#SVGID_00000174591150055701755300000012306498335730027939_);fill:none;stroke:#1B75BB;stroke-width:10;stroke-miterlimit:10;" cx="646.07" cy="485.33" r="96.79"/>
</g>
<g>
	<defs>
		<rect id="SVGID_00000154418383298213063830000012747447867684127158_" x="594.23" y="350.5" width="99.36" height="228.24"/>
	</defs>
	<clipPath id="SVGID_00000111154070025449294010000015766812605139410587_">
		<use xlink:href="#SVGID_00000154418383298213063830000012747447867684127158_"  style="overflow:visible;"/>
	</clipPath>
	
		<circle style="clip-path:url(#SVGID_00000111154070025449294010000015766812605139410587_);fill:none;stroke:#1B75BB;stroke-width:10;stroke-miterlimit:10;" cx="643.91" cy="464.62" r="96.79"/>
</g>
<g>
	<defs>
		
			<rect id="SVGID_00000165219964138624781010000001464570618797544115_" x="604.58" y="359.75" transform="matrix(4.488860e-11 -1 1 4.488860e-11 180.3891 1128.1346)" width="99.36" height="228.24"/>
	</defs>
	<clipPath id="SVGID_00000145029095546733721060000007035536812893635465_">
		<use xlink:href="#SVGID_00000165219964138624781010000001464570618797544115_"  style="overflow:visible;"/>
	</clipPath>
	
		<circle style="clip-path:url(#SVGID_00000145029095546733721060000007035536812893635465_);fill:none;stroke:#1B75BB;stroke-width:10;stroke-miterlimit:10;" cx="654.26" cy="473.87" r="96.79"/>
</g>
<g>
	<defs>
		
			<rect id="SVGID_00000047760966504451501480000014848769085966619779_" x="583.88" y="365.52" transform="matrix(4.490725e-11 -1 1 4.490725e-11 153.9182 1113.1982)" width="99.36" height="228.24"/>
	</defs>
	<clipPath id="SVGID_00000178912881272115474280000006066908308840575657_">
		<use xlink:href="#SVGID_00000047760966504451501480000014848769085966619779_"  style="overflow:visible;"/>
	</clipPath>
	
		<circle style="clip-path:url(#SVGID_00000178912881272115474280000006066908308840575657_);fill:none;stroke:#1B75BB;stroke-width:10;stroke-miterlimit:10;" cx="633.56" cy="479.64" r="96.79"/>
</g>
<path class="st10" d="M608.32,496.96c-6.43,0-6.45,10,0,10C614.75,506.96,614.77,496.96,608.32,496.96z"/>
</svg>
