<?xml version="1.0" encoding="utf-8"?>
<!-- Generator: Adobe Illustrator 26.0.1, SVG Export Plug-In . SVG Version: 6.00 Build 0)  -->
<svg version="1.1" id="Layer_1" xmlns="http://www.w3.org/2000/svg" xmlns:xlink="http://www.w3.org/1999/xlink" x="0px" y="0px"
	 viewBox="0 0 2436 1125" style="enable-background:new 0 0 2436 1125;" xml:space="preserve">
<style type="text/css">
	.st0{fill:none;stroke:#1B75BB;stroke-width:10;stroke-miterlimit:10;}
</style>
<g>
	
		<ellipse transform="matrix(0.7071 -0.7071 0.7071 0.7071 173.312 872.6322)" class="st0" cx="1140.02" cy="227.11" rx="90.82" ry="90.82"/>
	<circle class="st0" cx="1140.02" cy="227.11" r="40.15"/>
	<ellipse class="st0" cx="981.71" cy="253.13" rx="67.49" ry="64.8"/>
	<circle class="st0" cx="981.71" cy="253.13" r="30.55"/>
	<rect x="914.22" y="317.93" class="st0" width="316.62" height="178.7"/>
	<rect x="981.71" y="380.48" class="st0" width="123.48" height="62.19"/>
	<rect x="869.23" y="378.93" class="st0" width="44.99" height="56.7"/>
	<polyline class="st0" points="1154.88,640.78 1082.56,501.76 990.18,640.78 	"/>
	<polyline class="st0" points="1230.84,373.16 1317.37,328.35 1317.37,480.17 1230.84,435.63 	"/>
	<g>
		<path class="st0" d="M1179.26,379.58c-17.13,0-17.16,26.62,0,26.62C1196.38,406.2,1196.41,379.58,1179.26,379.58z"/>
		<path class="st0" d="M1179.26,416.95c-17.13,0-17.16,26.62,0,26.62C1196.38,443.57,1196.41,416.95,1179.26,416.95z"/>
	</g>
</g>
</svg>
