<?xml version="1.0" encoding="utf-8"?>
<!-- Generator: Adobe Illustrator 26.0.1, SVG Export Plug-In . SVG Version: 6.00 Build 0)  -->
<svg version="1.1" id="Layer_1" xmlns="http://www.w3.org/2000/svg" xmlns:xlink="http://www.w3.org/1999/xlink" x="0px" y="0px"
	 viewBox="0 0 381 412" style="enable-background:new 0 0 381 412;" xml:space="preserve">
<style type="text/css">
	.st0{stroke:#1B75BB;stroke-width:10;stroke-linecap:round;stroke-linejoin:round;stroke-miterlimit:10;}
</style>
<g id="Layer_1_00000103946227143912913360000000733205531666595973_">
	<g>
		<path class="st0" d="M251.9,155c-0.3,0.6-0.5,1.3-0.9,1.6c-22.2,19.3-22.8,64.7,13.5,84.1c0.6,0.3,1.1,0.6,1.9,1.1
			c-3.8,12.5-9.7,23.8-17.2,34.2c-4,5.5-8.2,11-12.9,15.8c-8.7,8.9-19.1,11.7-31,7.3c-2.3-0.8-4.8-1.5-7-2.5
			c-13.5-6-27-5.7-40.7-0.2c-21.4,8.5-29.8,6.4-44.3-11.5c-21.6-26.6-33.6-56.9-33.3-91.3c0.2-20.5,6.5-39.2,23-52.7
			c15.4-12.7,33.1-16.9,51.7-8.6c13.7,6.1,26.2,6.1,40,0.1c20.6-8.9,40.4-5.9,58.1,8.2c2.8,2.2,5,5.2,8,8.3
			c-3.3,2.3-6.1,4.2-8.9,6.1c2-2.2,4-4.5,6-6.7c-11.6-15.9-35.6-23.2-56.2-16.9c-4.9,1.5-9.8,3.1-14.5,5.2c-8.4,3.7-16.5,3.4-25,0
			c-6.7-2.7-13.8-5.7-20.9-6.4c-20.3-2-36.2,6.8-47.7,23.2c-9.7,13.7-13.1,29.5-12.2,46c1.7,33.4,14.2,62.7,35.9,87.9
			c11.3,13.2,20.6,15.3,36.8,9c1.1-0.4,2.1-0.9,3.2-1.3c10.3-4.1,20.9-5.7,31.8-3c5.9,1.5,11.7,3.8,17.4,5.9
			c11,4.1,20.8,1.5,28.2-6.7c7.4-8.2,14-17.3,20-26.7c4.3-6.7,7.2-14.4,10.6-21.6c-27.1-16.1-34.1-37-29.3-62.8
			C237.7,169.9,242.8,161,251.9,155z"/>
		<path class="st0" d="M206,106.9c-5.6,9.7-20.1,17-31.2,15.7c-5.2-20.4,19.3-49,43.9-50.6c0.1,13.4-3.2,25.3-12.9,35
			c0.5-1.1,1-2.3,1.6-3.4c2.7-5.3,5.9-10.4,7.9-16c1.6-4.3,1.7-9.1,2.5-14c-23.8,2.8-45.7,28.6-41.6,48c10.1-0.3,18.4-4.6,25.7-11.4
			C203.2,109,204.6,108,206,106.9z"/>
	</g>
</g>
</svg>
