<?xml version="1.0" encoding="utf-8"?>
<!-- Generator: Adobe Illustrator 26.0.1, SVG Export Plug-In . SVG Version: 6.00 Build 0)  -->
<svg version="1.1" id="Layer_1" xmlns="http://www.w3.org/2000/svg" xmlns:xlink="http://www.w3.org/1999/xlink" x="0px" y="0px"
	 viewBox="0 0 978 648" style="enable-background:new 0 0 978 648;" xml:space="preserve">
<style type="text/css">
	.st0{fill:none;stroke:#1B75BB;stroke-width:10;stroke-miterlimit:10;}
</style>
<g>
	<path class="st0" d="M494.4,588.8H241.3c-40.7,0-37-33.3-37-74V380.3c0-40.7,33.3-37,74-37h216.2c40.7,0,74-1.6,74,55.5v153
		C568.5,592.5,535.2,588.8,494.4,588.8z"/>
	<polyline class="st0" points="215.1,352 379.7,488.8 550.8,352 	"/>
	<line class="st0" x1="215.1" y1="575.5" x2="336.3" y2="452.7"/>
	<line class="st0" x1="550.8" y1="584" x2="424.8" y2="452.7"/>
</g>
<path class="st0" d="M555.4,146l2,130.8h-38.9v-61.5h37l140.4,64V92.8l-138.6,53.7h-68.2c0,0-43.2,32.5-1.8,68.8h34.6"/>
<path class="st0" d="M695.9,146.8c0,0,55.1,36.8,0,72"/>
<line class="st0" x1="655.7" y1="108.3" x2="655.7" y2="200.2"/>
<path class="st0" d="M655.5,223.5c-3.9,0-3.9,6,0,6C659.4,229.5,659.4,223.5,655.5,223.5z"/>
<path class="st0" d="M746.8,144.8l22.6-24.3c1.9-2.1,1.8-5.4-0.3-7.3v0c-2.1-1.9-5.4-1.8-7.3,0.3l-22.6,24.3
	c-1.9,2.1-1.8,5.4,0.3,7.3l0,0C741.5,147,744.8,146.8,746.8,144.8z"/>
<path class="st0" d="M741.6,229.9l23.4,23.4c2,2,5.3,2,7.3,0l0,0c2-2,2-5.3,0-7.3l-23.4-23.4c-2-2-5.3-2-7.3,0v0
	C739.6,224.6,739.6,227.9,741.6,229.9z"/>
<path class="st0" d="M761.8,191.2h33.1c2.9,0,5.2-2.3,5.2-5.2l0,0c0-2.9-2.3-5.2-5.2-5.2h-33.1c-2.9,0-5.2,2.3-5.2,5.2l0,0
	C756.6,188.8,758.9,191.2,761.8,191.2z"/>
</svg>
