<?xml version="1.0" encoding="utf-8"?>
<!-- Generator: Adobe Illustrator 26.0.1, SVG Export Plug-In . SVG Version: 6.00 Build 0)  -->
<svg version="1.1" id="Layer_1" xmlns="http://www.w3.org/2000/svg" xmlns:xlink="http://www.w3.org/1999/xlink" x="0px" y="0px"
	 viewBox="0 0 565.7 428.9" style="enable-background:new 0 0 565.7 428.9;" xml:space="preserve">
<style type="text/css">
	.st0{fill:none;stroke:#1B75BB;stroke-width:10;stroke-miterlimit:10;}
</style>
<g>
	<polygon class="st0" points="254.5,147.9 167.5,277.2 203.4,358.6 207.4,367.4 299.2,367.4 345.4,278.8 	"/>
	<line class="st0" x1="256.5" y1="254.1" x2="254.5" y2="147.9"/>
	<circle class="st0" cx="256.5" cy="280.1" r="25.6"/>
	<path class="st0" d="M207.4,367.4c0,0-37.5,15.2-39.9,27.1s-3.2,19.2-3.2,19.2h176.4c0,0,10.4-16.8-6.4-30.3s-32.1-21.7-32.1-21.7"
		/>
	<circle class="st0" cx="415.9" cy="71.8" r="25.6"/>
	<circle class="st0" cx="91.8" cy="71.8" r="25.6"/>
	<rect x="224.1" y="41.7" class="st0" width="61.1" height="61.1"/>
	<line class="st0" x1="117.5" y1="71.8" x2="224.1" y2="71.8"/>
	<line class="st0" x1="285.2" y1="72.3" x2="390.2" y2="71.8"/>
</g>
</svg>
