<?xml version="1.0" encoding="utf-8"?>
<!-- Generator: Adobe Illustrator 26.0.1, SVG Export Plug-In . SVG Version: 6.00 Build 0)  -->
<svg version="1.1" id="Layer_1" xmlns="http://www.w3.org/2000/svg" xmlns:xlink="http://www.w3.org/1999/xlink" x="0px" y="0px"
	 viewBox="0 0 726 493" style="enable-background:new 0 0 726 493;" xml:space="preserve">
<style type="text/css">
	.st0{fill:none;stroke:#1B75BB;stroke-width:10;stroke-miterlimit:10;}
	.st1{fill:#1B75BB;stroke:#1B75BB;stroke-width:10;stroke-miterlimit:10;}
</style>
<path class="st0" d="M347,63.3v31.5c0,0,2.2,11.2,13.5,11.2s157.4,0,157.4,0s9-1.7,9.6-6.8c0.6-5.1,0-33.2,0-33.2s-0.7-4.9-5.1-5.5
	s-26.8,0-26.8,0s-4.9,0-4.9,7.5s-0.1,13-0.1,13s-0.4,4.4-12.4,4.6s-19.3,1.9-19.4-6.8s2.5-18.7-5.8-18.7c-8.3,0-34.7,0.4-34.7,0.4
	s-3,0.2-2.8,5s0.4,11,0.4,11s2,8-3.4,7.8c-5.3-0.2-21.9,0.2-21.9,0.2s-7.2,1.7-7.3-8.6c-0.1-10.3-0.9-15.1-8.9-15.7
	c-8-0.5-25.9,0-25.9,0S347,59.8,347,63.3z"/>
<polygon class="st0" points="515.5,106.2 504.5,147.5 370.2,147.5 359.7,106.2 "/>
<path class="st0" d="M513.7,170.1H364.4c-2,0-3.6-1.6-3.6-3.6v-15.4c0-2,1.6-3.6,3.6-3.6h149.4c2,0,3.6,1.6,3.6,3.6v15.4
	C517.4,168.5,515.7,170.1,513.7,170.1z"/>
<path class="st0" d="M512.3,216.9H362.9c-2,0-3.6-1.6-3.6-3.6v-15.4c0-2,1.6-3.6,3.6-3.6h149.4c2,0,3.6,1.6,3.6,3.6v15.4
	C515.9,215.3,514.3,216.9,512.3,216.9z"/>
<line class="st0" x1="375.1" y1="170.1" x2="375.1" y2="194.3"/>
<line class="st0" x1="496.8" y1="170.1" x2="496.8" y2="194.3"/>
<rect x="370.6" y="216.9" class="st0" width="131.1" height="120.6"/>
<line class="st0" x1="370.6" y1="313.8" x2="501.8" y2="313.8"/>
<polyline class="st0" points="370.6,337.5 345.4,337.5 345.4,360.6 522.7,360.6 522.7,337.5 501.8,337.5 "/>
<polyline class="st0" points="345.4,360.6 321.7,360.6 321.7,395.3 543.6,395.3 540.9,360.6 522.7,360.6 "/>
<path class="st1" d="M291.5,253.3l26.3-19.1c0.4-0.3,0.4-0.8,0.2-1.1l-3.4-4.7c-0.3-0.4-0.8-0.4-1.1-0.2l-26.3,19.1
	c-0.4,0.3-0.4,0.8-0.2,1.1l3.4,4.7C290.6,253.4,291.1,253.5,291.5,253.3z"/>
<path class="st1" d="M285.7,124.4l29.8,13.1c0.4,0.2,0.9,0,1.1-0.4l2.3-5.3c0.2-0.4,0-0.9-0.4-1.1l-29.8-13.1
	c-0.4-0.2-0.9,0-1.1,0.4l-2.3,5.3C285.2,123.8,285.3,124.2,285.7,124.4z"/>
<path class="st1" d="M271.2,186.6h32.5c0.4,0,0.8-0.4,0.8-0.8V180c0-0.4-0.4-0.8-0.8-0.8h-32.5c-0.4,0-0.8,0.4-0.8,0.8v5.8
	C270.4,186.2,270.8,186.6,271.2,186.6z"/>
<path class="st1" d="M575.2,254.4l-26.3-19.1c-0.4-0.3-0.4-0.8-0.2-1.1l3.4-4.7c0.3-0.4,0.8-0.4,1.1-0.2l26.3,19.1
	c0.4,0.3,0.4,0.8,0.2,1.1l-3.4,4.7C576,254.6,575.5,254.7,575.2,254.4z"/>
<path class="st1" d="M580.5,125.6l-29.8,13.1c-0.4,0.2-0.9,0-1.1-0.4l-2.3-5.3c-0.2-0.4,0-0.9,0.4-1.1l29.8-13.1
	c0.4-0.2,0.9,0,1.1,0.4l2.3,5.3C581.1,124.9,580.9,125.4,580.5,125.6z"/>
<path class="st1" d="M595,187.7h-32.5c-0.4,0-0.8-0.4-0.8-0.8v-5.8c0-0.4,0.4-0.8,0.8-0.8H595c0.4,0,0.8,0.4,0.8,0.8v5.8
	C595.8,187.4,595.5,187.7,595,187.7z"/>
</svg>
