<?xml version="1.0" encoding="utf-8"?>
<!-- Generator: Adobe Illustrator 26.0.1, SVG Export Plug-In . SVG Version: 6.00 Build 0)  -->
<svg version="1.1" id="Layer_1" xmlns="http://www.w3.org/2000/svg" xmlns:xlink="http://www.w3.org/1999/xlink" x="0px" y="0px"
	 viewBox="0 0 510.7 521.3" style="enable-background:new 0 0 510.7 521.3;" xml:space="preserve">
<style type="text/css">
	.st0{fill:none;stroke:#1B75BB;stroke-width:10;stroke-miterlimit:10;}
	.st1{clip-path:url(#SVGID_00000067930466630499121800000011837015538323162512_);}
	.st2{clip-path:url(#SVGID_00000119113600880236063580000001864811749345574845_);}
	
		.st3{clip-path:url(#SVGID_00000036973378045932911340000009073595568898407584_);stroke:#1B75BB;stroke-width:10;stroke-miterlimit:10;}
	
		.st4{clip-path:url(#SVGID_00000043415906649726152860000016343730041396065697_);fill:none;stroke:#1B75BB;stroke-width:10;stroke-miterlimit:10;}
	
		.st5{clip-path:url(#SVGID_00000083800385591482193780000016360598292095878812_);stroke:#1B75BB;stroke-width:10;stroke-miterlimit:10;}
	
		.st6{clip-path:url(#SVGID_00000056385690407394115300000012812607442661364410_);fill:none;stroke:#1B75BB;stroke-width:10;stroke-miterlimit:10;}
	
		.st7{clip-path:url(#SVGID_00000121961661213364770440000009181834324707093137_);fill:#231F20;stroke:#1B75BB;stroke-width:10;stroke-miterlimit:10;}
	
		.st8{clip-path:url(#SVGID_00000147904163482903164940000006055789233245673133_);fill:#FFFFFF;stroke:#1B75BB;stroke-width:10;stroke-miterlimit:10;}
</style>
<path class="st0" d="M181,293l2,130.8h-38.9v-61.5h37l140.4,64V239.7l-138.6,53.7h-68.2c0,0-43.2,32.5-1.8,68.8h34.6"/>
<path class="st0" d="M321.4,293.8c0,0,55.1,36.8,0,72"/>
<line class="st0" x1="281.3" y1="255.3" x2="281.3" y2="347.1"/>
<path class="st0" d="M281.1,370.5c-3.9,0-3.9,6,0,6C285,376.5,285,370.5,281.1,370.5z"/>
<path class="st0" d="M372.3,291.7l22.6-24.3c1.9-2.1,1.8-5.4-0.3-7.3h0c-2.1-1.9-5.4-1.8-7.3,0.3l-22.6,24.3
	c-1.9,2.1-1.8,5.4,0.3,7.3l0,0C367.1,293.9,370.4,293.8,372.3,291.7z"/>
<path class="st0" d="M367.2,376.8l23.4,23.4c2,2,5.3,2,7.3,0l0,0c2-2,2-5.3,0-7.3l-23.4-23.4c-2-2-5.3-2-7.3,0l0,0
	C365.1,371.5,365.1,374.8,367.2,376.8z"/>
<path class="st0" d="M387.4,338.1h33.1c2.9,0,5.2-2.3,5.2-5.2l0,0c0-2.9-2.3-5.2-5.2-5.2h-33.1c-2.9,0-5.2,2.3-5.2,5.2l0,0
	C382.2,335.8,384.5,338.1,387.4,338.1z"/>
<g>
	<defs>
		<path id="SVGID_1_" d="M476.7,252H-29.1c-6.6,0-12-5.4-12-12V21.9c0-6.6,5.4-12,12-12h505.8c6.6,0,12,5.4,12,12V240
			C488.7,246.6,483.3,252,476.7,252z"/>
	</defs>
	<clipPath id="SVGID_00000132793847926965180340000006314835031487978664_">
		<use xlink:href="#SVGID_1_"  style="overflow:visible;"/>
	</clipPath>
	<g style="clip-path:url(#SVGID_00000132793847926965180340000006314835031487978664_);">
		<defs>
			<rect id="SVGID_00000026850507137689401940000016786988279432937390_" x="-463" y="-145" width="1468.2" height="678.1"/>
		</defs>
		<clipPath id="SVGID_00000065054891964610408310000012052611329315442091_">
			<use xlink:href="#SVGID_00000026850507137689401940000016786988279432937390_"  style="overflow:visible;"/>
		</clipPath>
		<g style="clip-path:url(#SVGID_00000065054891964610408310000012052611329315442091_);">
			<g>
				<g>
					<defs>
						<rect id="SVGID_00000011004404763088519070000005489472270262394008_" x="-463" y="-145" width="1468.2" height="678.1"/>
					</defs>
					<clipPath id="SVGID_00000107588881582740960260000001753710511074439571_">
						<use xlink:href="#SVGID_00000011004404763088519070000005489472270262394008_"  style="overflow:visible;"/>
					</clipPath>
					
						<path style="clip-path:url(#SVGID_00000107588881582740960260000001753710511074439571_);stroke:#1B75BB;stroke-width:10;stroke-miterlimit:10;" d="
						M117,148h60.4c0.3,0,0.5-0.2,0.5-0.5V144c0-0.3-0.2-0.5-0.5-0.5H117c-0.3,0-0.5,0.2-0.5,0.5v3.6C116.6,147.8,116.8,148,117,148
						"/>
				</g>
				<g>
					
						<rect id="SVGID_00000109728976751876551760000007993868812500719756_" x="-463" y="-145" class="st0" width="1468.2" height="678.1"/>
				</g>
			</g>
			<g>
				<g>
					<defs>
						<rect id="SVGID_00000054958693754239249350000010370462728927855236_" x="-463" y="-145" width="1468.2" height="678.1"/>
					</defs>
					<clipPath id="SVGID_00000123438088769434444160000002834567389642660766_">
						<use xlink:href="#SVGID_00000054958693754239249350000010370462728927855236_"  style="overflow:visible;"/>
					</clipPath>
					
						<path style="clip-path:url(#SVGID_00000123438088769434444160000002834567389642660766_);fill:none;stroke:#1B75BB;stroke-width:10;stroke-miterlimit:10;" d="
						M117,148h60.4c0.3,0,0.5-0.2,0.5-0.5V144c0-0.3-0.2-0.5-0.5-0.5H117c-0.3,0-0.5,0.2-0.5,0.5v3.6C116.6,147.8,116.8,148,117,148
						z"/>
				</g>
				<g>
					
						<rect id="SVGID_00000043437697358282224060000003481621427586827917_" x="-463" y="-145" class="st0" width="1468.2" height="678.1"/>
				</g>
			</g>
			<g>
				<g>
					<defs>
						<rect id="SVGID_00000117636749189947803140000016875537729880542140_" x="-463" y="-145" width="1468.2" height="678.1"/>
					</defs>
					<clipPath id="SVGID_00000037651242649635664790000013260148874667790980_">
						<use xlink:href="#SVGID_00000117636749189947803140000016875537729880542140_"  style="overflow:visible;"/>
					</clipPath>
					
						<path style="clip-path:url(#SVGID_00000037651242649635664790000013260148874667790980_);stroke:#1B75BB;stroke-width:10;stroke-miterlimit:10;" d="
						M117,179.8h47.3c0.3,0,0.5-0.2,0.5-0.5v-3.6c0-0.3-0.2-0.5-0.5-0.5H117c-0.3,0-0.5,0.2-0.5,0.5v3.6
						C116.6,179.6,116.8,179.8,117,179.8"/>
				</g>
				<g>
					
						<rect id="SVGID_00000078010629494131463760000006549907596980151460_" x="-463" y="-145" class="st0" width="1468.2" height="678.1"/>
				</g>
			</g>
			<g>
				<g>
					<defs>
						<rect id="SVGID_00000072964875923022895000000011925372717657848732_" x="-463" y="-145" width="1468.2" height="678.1"/>
					</defs>
					<clipPath id="SVGID_00000162353115237607357000000008264522403585784749_">
						<use xlink:href="#SVGID_00000072964875923022895000000011925372717657848732_"  style="overflow:visible;"/>
					</clipPath>
					
						<path style="clip-path:url(#SVGID_00000162353115237607357000000008264522403585784749_);fill:none;stroke:#1B75BB;stroke-width:10;stroke-miterlimit:10;" d="
						M117,179.8h47.3c0.3,0,0.5-0.2,0.5-0.5v-3.6c0-0.3-0.2-0.5-0.5-0.5H117c-0.3,0-0.5,0.2-0.5,0.5v3.6
						C116.6,179.6,116.8,179.8,117,179.8z"/>
				</g>
				<g>
					
						<rect id="SVGID_00000119088509014350201930000000762085857860253312_" x="-463" y="-145" class="st0" width="1468.2" height="678.1"/>
				</g>
			</g>
			<g>
				<g>
					<defs>
						<rect id="SVGID_00000152239206996862895720000010048191971398457278_" x="-463" y="-145" width="1468.2" height="678.1"/>
					</defs>
					<clipPath id="SVGID_00000035517682611179319310000004869478157726161567_">
						<use xlink:href="#SVGID_00000152239206996862895720000010048191971398457278_"  style="overflow:visible;"/>
					</clipPath>
					
						<path style="clip-path:url(#SVGID_00000035517682611179319310000004869478157726161567_);fill:#231F20;stroke:#1B75BB;stroke-width:10;stroke-miterlimit:10;" d="
						M180,173.1c-6.2,0-6.2,8.9,0,8.9C186.1,182,186.1,173.1,180,173.1"/>
				</g>
				<g>
					
						<rect id="SVGID_00000034807673516333796490000018189125064918959035_" x="-463" y="-145" class="st0" width="1468.2" height="678.1"/>
				</g>
			</g>
			<g>
				<g>
					<defs>
						<rect id="SVGID_00000142134919074791653790000007593344153967775403_" x="-463" y="-145" width="1468.2" height="678.1"/>
					</defs>
					<clipPath id="SVGID_00000129922384021764190470000009814980842167103623_">
						<use xlink:href="#SVGID_00000142134919074791653790000007593344153967775403_"  style="overflow:visible;"/>
					</clipPath>
					
						<path style="clip-path:url(#SVGID_00000129922384021764190470000009814980842167103623_);fill:#FFFFFF;stroke:#1B75BB;stroke-width:10;stroke-miterlimit:10;" d="
						M214.3,90.2h108.3c0,0,10.7-3.5,11.9,17.6c1.2,21.1,0,39.6,0,39.6v25.4c0,0-6.5,10.4-11.9,10.4H212c0,0-9.8-1.7-11-16.8
						c-1.2-15,0-68,0-68S205.1,90.2,214.3,90.2"/>
				</g>
			</g>
			<g>
				<g>
					<path class="st0" d="M214.3,90.2h108.3c0,0,10.7-3.5,11.9,17.6c1.2,21.1,0,39.6,0,39.6v25.4c0,0-6.5,10.4-11.9,10.4H212
						c0,0-9.8-1.7-11-16.8c-1.2-15,0-68,0-68S205.1,90.2,214.3,90.2z"/>
				</g>
			</g>
			<g>
				<g>
					<path class="st0" d="M196.8,108.2h-91.1c0,0-6.8-0.7-7.1,11c-0.3,11.7,0,71.2,0,71.2l-0.1,11.7c0,0,0.1,10.1,10.3,9.6h5.6
						l-0.3,21.8l25.1-21.8h109.2c0,0,8.3,1,8.3-9.1v-12.7v-5.6"/>
				</g>
			</g>
			<g>
				<g>
					<polygon class="st0" points="251.3,115.3 251.3,158.1 284.4,137.7 					"/>
				</g>
			</g>
		</g>
	</g>
</g>
</svg>
