<?xml version="1.0" encoding="utf-8"?>
<!-- Generator: Adobe Illustrator 26.0.1, SVG Export Plug-In . SVG Version: 6.00 Build 0)  -->
<svg version="1.1" id="Layer_1" xmlns="http://www.w3.org/2000/svg" xmlns:xlink="http://www.w3.org/1999/xlink" x="0px" y="0px"
	 viewBox="0 0 635 372" style="enable-background:new 0 0 635 372;" xml:space="preserve">
<style type="text/css">
	.st0{fill:none;stroke:#1B75BB;stroke-width:10;stroke-miterlimit:10;}
	.st1{stroke:#1B75BB;stroke-width:10;stroke-miterlimit:10;}
</style>
<path class="st0" d="M63.3,174.3V42.2c0,0,0-12.6,17.4-13.2c17.4-0.6,207.8,0,207.8,0s12,1.8,12.6,24.6s0,115.3,0,115.3
	s-1.2,15-18,15c-16.8,0-151.4,0-151.4,0l-34.8,34.2l-4.8-35.4l-16.8-0.6C75.3,182.1,63.3,183.3,63.3,174.3z"/>
<path class="st1" d="M252.5,90.3H107c-0.5,0-0.9-0.4-0.9-0.9v-3.2c0-0.5,0.4-0.9,0.9-0.9h145.4c0.5,0,0.9,0.4,0.9,0.9v3.2
	C253.3,89.9,253,90.3,252.5,90.3z"/>
<path class="st1" d="M252.5,140.7H107c-0.5,0-0.9-0.4-0.9-0.9v-3.1c0-0.5,0.4-0.9,0.9-0.9h145.4c0.5,0,0.9,0.4,0.9,0.9v3.1
	C253.3,140.3,253,140.7,252.5,140.7z"/>
<path class="st0" d="M421,302.2v-81.1c0,0,0-7.7-10.7-8.1c-10.7-0.4-127.5,0-127.5,0s-7.4,1.1-7.7,15.1c-0.4,14,0,70.8,0,70.8
	s0.7,9.2,11.1,9.2c10.3,0,92.9,0,92.9,0l21.4,21l3-21.7l10.3-0.4C413.6,307,421,307.7,421,302.2z"/>
<path class="st1" d="M304.8,281.5h89.5c0.2,0,0.4-0.2,0.4-0.4v-1.8c0-0.2-0.2-0.4-0.4-0.4h-89.5c-0.2,0-0.4,0.2-0.4,0.4v1.8
	C304.4,281.4,304.6,281.5,304.8,281.5z"/>
<path class="st1" d="M303.4,255.3h89.5c0.2,0,0.4-0.2,0.4-0.4V253c0-0.2-0.2-0.4-0.4-0.4h-89.5c-0.2,0-0.4,0.2-0.4,0.4v1.8
	C303,255.1,303.2,255.3,303.4,255.3z"/>
</svg>
