<?xml version="1.0" encoding="utf-8"?>
<!-- Generator: Adobe Illustrator 26.0.1, SVG Export Plug-In . SVG Version: 6.00 Build 0)  -->
<svg version="1.1" id="Layer_1" xmlns="http://www.w3.org/2000/svg" xmlns:xlink="http://www.w3.org/1999/xlink" x="0px" y="0px"
	 viewBox="0 0 678.6 414.3" style="enable-background:new 0 0 678.6 414.3;" xml:space="preserve">
<style type="text/css">
	.st0{fill:#1B75BB;stroke:#1B75BB;stroke-width:5;stroke-miterlimit:10;}
	.st1{clip-path:url(#SVGID_00000147930884400960587840000006486997388075561092_);}
	.st2{fill:none;stroke:#1B75BB;stroke-width:3;stroke-miterlimit:10;}
	.st3{clip-path:url(#SVGID_00000119819894865117558420000000994487391882714791_);}
	.st4{clip-path:url(#SVGID_00000147179994162056459320000005030296286416555667_);}
	.st5{clip-path:url(#SVGID_00000125584377323284042850000012769785310625847485_);}
	
		.st6{clip-path:url(#SVGID_00000042709811064299631860000006422248702711273891_);fill:none;stroke:#1B75BB;stroke-width:10;stroke-miterlimit:10;}
	
		.st7{clip-path:url(#SVGID_00000134963744516984735140000009773649091075191688_);fill:none;stroke:#1B75BB;stroke-width:10;stroke-miterlimit:10;}
	
		.st8{clip-path:url(#SVGID_00000068652498955078867520000012420504328550175901_);fill:none;stroke:#1B75BB;stroke-width:10;stroke-miterlimit:10;}
	
		.st9{clip-path:url(#SVGID_00000047018537879686862810000017070151647208023965_);fill:none;stroke:#1B75BB;stroke-width:10;stroke-miterlimit:10;}
	.st10{fill:#1B75BB;}
</style>
<path class="st0" d="M250.8,198.4c1.9-4.4,5.3-6,10.1-5.8c6.5,0.3,13,0.2,19.6,0c3.5-0.1,6.3,0.9,8.3,4.1
	c8.3-6.9,16.1-14.1,19.9-24.3c1.9-5.2,2.3-10.9,3.4-16.4c0-0.1,0-0.2,0-0.3c1.2-7.5,5.2-10.5,12.9-9.8c3,0.3,5.4,1.7,6.9,4.4
	c2.8,4.6,3.5,9.8,3.9,15c0.7,8.8,0.3,17.4-2.1,26c-0.1,0.3,0,0.7,0,1.3c4.2,0,8.3,0,12.4,0c4.9,0,9.7-0.1,14.6,0.1
	c6.9,0.2,12.3,2.8,14.2,10.1c0,1.3,0,2.6,0,3.9c-1.6,2.9-3.2,5.9-4.9,9.1c3.1,5.7,2.2,10.2-3,14.5c-0.5,0.4-0.6,1.6-0.4,2.3
	c1.2,4.8,0.9,9.4-3.3,12.5c-2.7,2-3.9,4-4.4,7.4c-0.8,5.8-6.8,9.8-13.5,9.9c-11.5,0-23,0.2-34.5-0.1c-3.4-0.1-6.9-0.9-10.1-2.1
	c-3.8-1.3-7.4-3.3-11-4.9c-2.5,5.9-4.2,7.1-10.4,7.1c-6.2,0-12.3-0.2-18.5,0c-4.9,0.2-8.4-1.4-10.2-6.1
	C250.8,237.1,250.8,217.7,250.8,198.4z M327.1,254.3C327.1,254.3,327.1,254.3,327.1,254.3c6.4,0,12.9,0.1,19.3-0.1
	c4.2-0.1,5.8-2.2,5.2-6.2c-0.6-4.5-0.6-4.5,3.5-6.3c4.5-2,5.4-4.2,3.5-8.8c-1.9-4.7-1.9-4.9,2.3-7.4c3.4-2.1,4.1-5,2-8.4
	c-2.5-4.1-2.5-4.1,1.2-7.1c0.3-0.2,0.6-0.5,0.8-0.7c3-2.9,2.3-6.6-1.6-8.1c-1.8-0.6-3.8-0.9-5.7-0.9c-11-0.1-22.1,0-33.1,0
	c-2.1,0-3.6-0.8-3.8-3.1c-0.3-2.3,0.6-3.8,3-4.5c0.8-0.2,1.7-1.2,1.9-2.1c2.5-8.7,3.4-17.5,2.2-26.5c-0.4-2.9-1.3-5.7-2-8.5
	c-0.6-2.3-2.5-1.9-4.3-1.9c-1.8,0-2,1.3-2.2,2.6c-0.5,2.4-0.9,4.9-1.2,7.3c-1.1,8.3-3,16.2-8.3,23c-5.4,6.9-11.6,12.7-18.4,18.2
	c-0.9,0.7-1.8,2.2-1.9,3.3c-0.1,12.3-0.1,24.7,0,37c0,0.8,0.8,2,1.5,2.3c3.4,1.7,6.9,3,10.2,4.7c3.1,1.5,6.3,2.4,9.8,2.3
	C316.4,254.2,321.8,254.3,327.1,254.3z M258.7,200.4c0,18.2,0,36.2,0,54.2c7.8,0,15.4,0,23,0c0-18.1,0-36.1,0-54.2
	C274,200.4,266.4,200.4,258.7,200.4z"/>
<g>
	<g>
		<g>
			<defs>
				<rect id="SVGID_1_" x="168.2" y="76" width="287.5" height="268"/>
			</defs>
			<clipPath id="SVGID_00000005988679278468869810000016914412241280121257_">
				<use xlink:href="#SVGID_1_"  style="overflow:visible;"/>
			</clipPath>
			<g style="clip-path:url(#SVGID_00000005988679278468869810000016914412241280121257_);">
				<path class="st2" d="M247.2,303.7c-0.1,3.4-0.1,6.7-0.2,10.1c-0.1,2.6-0.6,5-1.8,7.3c-2,3.5-5,5.5-8.9,6.1
					c-1.8,0.3-3.7,0.4-5.5,0.4c-4,0.1-8,0.1-11.9,0c-2.2,0-4.4-0.1-6.6-0.3c-6-0.7-10.1-4.8-11-10.8c-0.3-1.9-0.4-3.9-0.4-5.9
					c-0.1-3.9-0.1-7.9,0-11.8c0-2.3,0.1-4.6,0.3-6.9c0.5-4.3,2.4-7.7,6.1-9.9c1.8-1.1,3.7-1.6,5.8-1.7c2.2-0.1,4.5-0.2,6.7-0.2
					c4.6,0,9.3,0,13.9,0.1c2.7,0.1,5.3,0.6,7.7,2.2c3.1,2.1,4.9,5.1,5.4,8.8c0.3,1.7,0.3,3.5,0.4,5.3
					C247.1,298.8,247.1,301.2,247.2,303.7C247.1,303.7,247.1,303.7,247.2,303.7z"/>
				<path class="st2" d="M236.4,303.8c0,6.8-5.6,12.3-12.4,12.3c-6.9,0-12.4-5.5-12.4-12.4c0-6.8,5.8-12.3,12.7-12.2
					C230.8,291.6,236.4,297.1,236.4,303.8z"/>
				<path class="st2" d="M236.4,291.7c-1.6,0-2.9-1-2.9-2.2c0-1.2,1.3-2.2,2.9-2.2c1.6,0,2.9,1,2.9,2.2
					C239.3,290.8,238,291.7,236.4,291.7z"/>
			</g>
		</g>
	</g>
	<g>
		<g>
			<defs>
				<rect id="SVGID_00000079483365624681394980000007999681452889467554_" x="163.3" y="81.5" width="287.5" height="268"/>
			</defs>
			<clipPath id="SVGID_00000163770328693755128010000006383201148596180648_">
				<use xlink:href="#SVGID_00000079483365624681394980000007999681452889467554_"  style="overflow:visible;"/>
			</clipPath>
			<g style="clip-path:url(#SVGID_00000163770328693755128010000006383201148596180648_);">
				<path class="st2" d="M230.3,108.4c-0.3,1.8-0.5,3.4-0.7,5.1c-1.6,0-3.3,0-5,0c0,5,0,10,0,15c-2.5,0-4.9,0-7.4,0
					c0-4.9,0-9.9,0-14.9c-1.2,0-2.4,0-3.6,0c0-1.7,0-3.4,0-5.1c0.9,0,1.7,0,2.6,0c0.7,0,0.9-0.2,0.9-0.8c0-1.2,0-2.5,0-3.7
					c0.1-2.8,1.9-4.8,4.9-5.2c0.8-0.1,1.5-0.1,2.3-0.1c1.9,0,3.8,0,5.7,0c0,1.7,0,3.3,0,5.2c-1,0-1.9,0-2.9,0
					c-2.2,0-2.7,0.4-2.7,2.4c0,0.7,0,1.4,0,2.3C226.5,108.4,228.3,108.4,230.3,108.4z"/>
				<circle class="st2" cx="222" cy="113.5" r="25.3"/>
			</g>
		</g>
	</g>
	<g>
		<g>
			<defs>
				<rect id="SVGID_00000136394719713287283570000006458222946742746545_" x="152.3" y="64.1" width="287.5" height="268"/>
			</defs>
			<clipPath id="SVGID_00000018234900642053492940000015278058041950598063_">
				<use xlink:href="#SVGID_00000136394719713287283570000006458222946742746545_"  style="overflow:visible;"/>
			</clipPath>
			<g style="clip-path:url(#SVGID_00000018234900642053492940000015278058041950598063_);">
				<path class="st2" d="M384.8,120.6c0-5.4,0.1-10.8,0-16.2c0-3.5,1.7-5.2,5.6-5.2c10.7,0.1,21.3,0,32,0c3.5,0,5.3,1.6,5.3,5
					c0,6.6-0.1,13.1,0,19.7c0,3.1-1.5,5.3-4.7,4.8c-11.3-1.6-20.3,2.2-28,9.5c-0.1,0.1-0.3-0.1-1-0.2c0-2.8,0-5.7,0-8.9
					C385,128.5,384.8,128.2,384.8,120.6z"/>
				<line class="st2" x1="411" y1="108.1" x2="411" y2="118.7"/>
				<line class="st2" x1="401.7" y1="108.1" x2="401.7" y2="118.7"/>
			</g>
		</g>
	</g>
	<g>
		<g>
			<defs>
				<rect id="SVGID_00000157268651649262815090000012592541260124727972_" x="163.3" y="59.6" width="287.5" height="268"/>
			</defs>
			<clipPath id="SVGID_00000022557230499044604460000007634993998235937464_">
				<use xlink:href="#SVGID_00000157268651649262815090000012592541260124727972_"  style="overflow:visible;"/>
			</clipPath>
			<g style="clip-path:url(#SVGID_00000022557230499044604460000007634993998235937464_);">
				<ellipse class="st2" cx="409.3" cy="303.9" rx="24.9" ry="23.7"/>
				<polygon class="st2" points="401.6,296.5 401.6,311.4 417,304.3 				"/>
			</g>
		</g>
	</g>
</g>
<g>
	<g>
		<defs>
			<rect id="SVGID_00000093145843740744339640000004398559641547054015_" x="255.6" y="81.3" width="119.4" height="274.2"/>
		</defs>
		<clipPath id="SVGID_00000071545305707613821320000016548264397960193726_">
			<use xlink:href="#SVGID_00000093145843740744339640000004398559641547054015_"  style="overflow:visible;"/>
		</clipPath>
		
			<circle style="clip-path:url(#SVGID_00000071545305707613821320000016548264397960193726_);fill:none;stroke:#1B75BB;stroke-width:10;stroke-miterlimit:10;" cx="315.3" cy="218.5" r="116.3"/>
	</g>
</g>
<g>
	<g>
		<defs>
			<rect id="SVGID_00000121972122847010000080000006999009854194088875_" x="253" y="56.5" width="119.4" height="274.2"/>
		</defs>
		<clipPath id="SVGID_00000052065914179740204830000016735631721968244112_">
			<use xlink:href="#SVGID_00000121972122847010000080000006999009854194088875_"  style="overflow:visible;"/>
		</clipPath>
		
			<circle style="clip-path:url(#SVGID_00000052065914179740204830000016735631721968244112_);fill:none;stroke:#1B75BB;stroke-width:10;stroke-miterlimit:10;" cx="312.7" cy="193.6" r="116.3"/>
	</g>
</g>
<g>
	<g>
		<defs>
			<rect id="SVGID_00000085248688310948560160000011997230720231544244_" x="188" y="145" width="274.2" height="119.4"/>
		</defs>
		<clipPath id="SVGID_00000067205181983689864970000016196448708207001278_">
			<use xlink:href="#SVGID_00000085248688310948560160000011997230720231544244_"  style="overflow:visible;"/>
		</clipPath>
		
			<circle style="clip-path:url(#SVGID_00000067205181983689864970000016196448708207001278_);fill:none;stroke:#1B75BB;stroke-width:10;stroke-miterlimit:10;" cx="325.1" cy="204.7" r="116.3"/>
	</g>
</g>
<g>
	<g>
		<defs>
			<rect id="SVGID_00000003809563167989976500000013034404233105084047_" x="163.2" y="151.9" width="274.2" height="119.4"/>
		</defs>
		<clipPath id="SVGID_00000015355210308108040980000004476469619716597158_">
			<use xlink:href="#SVGID_00000003809563167989976500000013034404233105084047_"  style="overflow:visible;"/>
		</clipPath>
		
			<circle style="clip-path:url(#SVGID_00000015355210308108040980000004476469619716597158_);fill:none;stroke:#1B75BB;stroke-width:10;stroke-miterlimit:10;" cx="300.3" cy="211.6" r="116.3"/>
	</g>
</g>
<path class="st10" d="M269.9,232.4c-7.7,0-7.7,12,0,12C277.7,244.4,277.7,232.4,269.9,232.4z"/>
</svg>
