<svg id="Layer_1" data-name="Layer 1" xmlns="http://www.w3.org/2000/svg" viewBox="0 0 267 296.4"><defs><style>.cls-1,.cls-2,.cls-3{fill:none;stroke:#1b75bb;}.cls-1{stroke-miterlimit:10;stroke-width:10px;}.cls-2{stroke-miterlimit:10;}.cls-2,.cls-3{stroke-width:10px;}.cls-3{stroke-linecap:round;stroke-linejoin:round;}.cls-4{fill:#1b75bb;}</style></defs><circle class="cls-1" cx="160.3" cy="57.1" r="52.1"/><circle class="cls-2" cx="160.3" cy="57.1" r="23"/><ellipse class="cls-2" cx="69.5" cy="72.1" rx="38.7" ry="37.2"/><circle class="cls-2" cx="69.5" cy="72.1" r="17.5"/><rect class="cls-2" x="30.8" y="109.2" width="181.6" height="102.5"/><rect class="cls-3" x="69.5" y="145.1" width="70.8" height="35.7"/><rect class="cls-3" x="5" y="144.2" width="25.8" height="32.5"/><polyline class="cls-3" points="155.4 291.4 114 211.7 61 291.4"/><polyline class="cls-3" points="212.4 140.9 262 115.2 262 202.3 212.4 176.7"/><path class="cls-4" d="M251.5,167.7c-5.4,0-5.4,8.4,0,8.4S257,167.7,251.5,167.7Z" transform="translate(-68.7 -14.9)"/><path class="cls-4" d="M251.5,179.5c-5.4,0-5.4,8.5,0,8.5S257,179.5,251.5,179.5Z" transform="translate(-68.7 -14.9)"/></svg>