<?xml version="1.0" encoding="utf-8"?>
<!-- Generator: Adobe Illustrator 26.0.1, SVG Export Plug-In . SVG Version: 6.00 Build 0)  -->
<svg version="1.1" id="Layer_1" xmlns="http://www.w3.org/2000/svg" xmlns:xlink="http://www.w3.org/1999/xlink" x="0px" y="0px"
	 viewBox="0 0 2436 1125" style="enable-background:new 0 0 2436 1125;" xml:space="preserve">
<style type="text/css">
	.st0{fill:none;stroke:#1B75BB;stroke-width:9.9999;stroke-miterlimit:9.9999;}
	.st1{fill:none;stroke:#1B75BB;stroke-width:10;stroke-miterlimit:10;}
	.st2{fill:none;stroke:#1B75BB;stroke-width:5;stroke-miterlimit:10;}
</style>
<g>
	
		<ellipse transform="matrix(0.7071 -0.7071 0.7071 0.7071 23.153 1035.3948)" class="st0" cx="1261.4" cy="489.7" rx="52.1" ry="52.1"/>
	<circle class="st1" cx="1261.4" cy="489.7" r="23"/>
	<ellipse class="st1" cx="1170.6" cy="504.7" rx="38.7" ry="37.2"/>
	<circle class="st1" cx="1170.6" cy="504.7" r="17.5"/>
	<rect x="1131.9" y="541.8" class="st1" width="181.6" height="102.5"/>
	<rect x="1170.6" y="577.7" class="st1" width="70.8" height="35.7"/>
	<rect x="1106.1" y="576.8" class="st1" width="25.8" height="32.5"/>
	<polyline class="st1" points="1269.9,727 1228.5,647.3 1175.5,727 	"/>
	<polyline class="st1" points="1313.5,573.5 1363.1,547.8 1363.1,634.9 1313.5,609.3 	"/>
	<g>
		<path class="st2" d="M1283.9,577.2c-9.8,0-9.8,15.3,0,15.3C1293.7,592.5,1293.8,577.2,1283.9,577.2z"/>
		<path class="st2" d="M1283.9,598.6c-9.8,0-9.8,15.3,0,15.3C1293.7,613.9,1293.8,598.6,1283.9,598.6z"/>
	</g>
</g>
</svg>
