<?xml version="1.0" encoding="utf-8"?>
<!-- Generator: Adobe Illustrator 26.0.1, SVG Export Plug-In . SVG Version: 6.00 Build 0)  -->
<svg version="1.1" id="Layer_1" xmlns="http://www.w3.org/2000/svg" xmlns:xlink="http://www.w3.org/1999/xlink" x="0px" y="0px"
	 viewBox="0 0 450.1 441.3" style="enable-background:new 0 0 450.1 441.3;" xml:space="preserve">
<style type="text/css">
	.st0{enable-background:new    ;}
	.st1{fill:#3DD9CF;}
	.st2{fill:#FFFFFF;}
</style>
<g class="st0">
	<path class="st1" d="M223.8,121.7c-2.9,42.7-38.9,85.4-86.8,85.4c-28.9,0-53.2-2.5-74.5-27c-11.5-14-29.2-42-29.2-78
		c0-40.9,24.9-71.6,51.5-71.6c13.1,0,16.3,6.4,37,17.6c3.1,1.7,6.6,2.6,10.1,2.9c4,0.3,6.8,1.4,12.7,0.8
		C193.6,47.1,227,75.4,223.8,121.7z"/>
</g>
<g id="Group_104" transform="translate(-19.374 -29.339)">
	<g id="Group_1" transform="translate(127.486 29.339)">
		<path id="Path_1" class="st2" d="M43.8,86.7H0.5c-3.4,0-4.8-2.8-5.1-4.2c0-0.1,0-0.2,0-0.3v-8.7c0-0.9,0.2-1.5,0.8-1.9
			c0.3-0.2,0.7-0.4,1.1-0.3c0.7,0,5.1-0.1,7.2,0c3.7,0.3,3.7,3.3,3.7,5.7c0,0.8,0.2,1,0.2,1c0,0,0.1,0,0.1,0c0.1,0,0.2,0,0.2,0
			c0.2,0,4-0.1,5.7-0.1c0-0.1,0-0.3-0.1-0.4c0-0.1,0-0.2,0-0.3c0,0-0.1-1.7-0.1-3c-0.1-2,1.2-2.8,2.1-2.8h0.1c0.1,0,7.3-0.1,9.6-0.1
			c0.8,0,1.6,0.3,2.2,0.9c1,1.1,0.9,2.7,0.9,4.3c0,0.5-0.1,0.9-0.1,1.4c0,0.1,0,0.3,0.1,0.4c0.2,0.2,1.6,0.1,2.5,0.1
			c0.4,0,0.9,0,1.3,0c1.2,0,1.8-0.2,2.1-0.3c0-0.6,0-1.7,0-3.1c0-2.5,1.6-3.4,2.7-3.4c1.1,0,6.3-0.2,7.6,0c1.8,0.2,2.4,1.8,2.6,2.7
			v0.2c0,0.8,0.2,7.9,0,9.3c-0.3,2.3-3.4,3-3.7,3.1C44,86.7,43.9,86.7,43.8,86.7z M-1.8,82c0.1,0.5,0.7,1.9,2.3,1.9h43.2
			c0.7-0.1,1.3-0.5,1.4-0.7c0.1-1,0.1-5.9,0-8.8c0-0.1-0.1-0.3-0.2-0.3c-0.8-0.1-4.7-0.1-7,0c-0.1,0.2-0.1,0.5-0.1,0.7
			c0,2.1,0,3.6,0,3.6v0.1C37.7,79.1,37.2,81,33,81c-0.5,0-0.9,0-1.3,0c-2,0.1-3.5,0.1-4.5-0.9c-0.6-0.6-0.9-1.4-0.9-2.4
			c0-0.5,0-1,0.1-1.5c0-0.7,0.1-1.9-0.1-2.2c-0.1,0-0.1,0-0.2,0c-1.9,0-7.2,0.1-8.9,0.1c0.1,1.1,0.1,2.4,0.1,2.9
			c0.1,0.6,0.3,1.9-0.5,2.9c-0.5,0.6-1.2,0.9-1.9,0.8c-1.3-0.1-5.1,0-5.8,0.1c-0.8,0.1-1.6-0.1-2.3-0.6c-0.8-0.7-1.3-1.7-1.3-3.2
			c0-2.9-0.3-2.9-1.2-3c-1.5-0.1-4.5-0.1-6.1,0L-1.8,82L-1.8,82z"/>
	</g>
	<g id="Group_2" transform="translate(143.773 88.438)">
		<path id="Path_2" class="st2" d="M23.8,39h-36.9c-0.6,0-1.2-0.4-1.3-1l-2.9-11.4c-0.1-0.4,0-0.8,0.2-1.2c0.3-0.3,0.7-0.5,1.1-0.5
			h42.8c0.4,0,0.8,0.2,1.1,0.6c0.3,0.3,0.4,0.8,0.2,1.2l-3,11.4C25,38.6,24.5,39,23.8,39z M-12,36.2h34.8l2.3-8.6h-39.3L-12,36.2z"
			/>
	</g>
	<g id="Group_3" transform="translate(145.121 141.215)">
		<path id="Path_3" class="st2" d="M25-7.6H-16c-1.3,0-2.4-1.1-2.4-2.4v-4.2c0-1.3,1.1-2.4,2.4-2.4h41.1c1.3,0,2.4,1.1,2.4,2.4v4.2
			C27.4-8.6,26.3-7.6,25-7.6z M-15.6-10.3h40.3v-3.5h-40.3L-15.6-10.3z"/>
	</g>
	<g id="Group_4" transform="translate(143.204 201.022)">
		<path id="Path_4" class="st2" d="M26.6-54.5h-41.1c-1.3,0-2.4-1.1-2.4-2.4v-4.2c0-1.3,1.1-2.4,2.4-2.4h41.1c1.3,0,2.4,1.1,2.4,2.4
			v4.2C28.9-55.6,27.9-54.5,26.6-54.5z M-14.1-57.3h40.3v-3.5h-40.3V-57.3z"/>
	</g>
	<g id="Group_5" transform="translate(163.395 170.096)">
		<path id="Path_5" class="st2" d="M-31.4-29.8c-0.8,0-1.4-0.6-1.4-1.3c0,0,0,0,0,0v-6.7c0-0.8,0.6-1.4,1.4-1.4
			c0.7,0,1.3,0.6,1.4,1.4v6.7C-30-30.4-30.6-29.8-31.4-29.8C-31.3-29.8-31.4-29.8-31.4-29.8z"/>
	</g>
	<g id="Group_6" transform="translate(318.917 170.096)">
		<path id="Path_6" class="st2" d="M-153.4-29.8c-0.8,0-1.4-0.6-1.4-1.3c0,0,0,0,0,0v-6.7c0-0.8,0.6-1.4,1.4-1.4
			c0.7,0,1.3,0.6,1.4,1.4v6.7C-152-30.4-152.6-29.8-153.4-29.8C-153.4-29.8-153.4-29.8-153.4-29.8z"/>
	</g>
	<g id="Group_7" transform="translate(157.644 353.732)">
		<path id="Path_7" class="st2" d="M9.2-180.6h-36.1c-0.8,0-1.4-0.6-1.4-1.4c0-0.7,0.6-1.3,1.4-1.4H9.2c0.8,0,1.4,0.6,1.4,1.4
			C10.6-181.2,10-180.6,9.2-180.6C9.3-180.6,9.2-180.6,9.2-180.6z"/>
	</g>
	<g id="Group_8" transform="translate(125.441 384.018)">
		<path id="Path_8" class="st2" d="M47.2-198H-1.6c-0.8,0-1.4-0.6-1.4-1.3c0,0,0,0,0,0v-6.4c0-0.8,0.6-1.4,1.3-1.4c0,0,0,0,0,0h6.9
			c0.8,0,1.4,0.6,1.4,1.4c0,0.8-0.6,1.4-1.4,1.4c0,0,0,0,0,0h-5.6v3.6h46v-3.6h-4.4c-0.8,0-1.4-0.6-1.4-1.4c0-0.7,0.6-1.3,1.4-1.4
			h5.7c0.8,0,1.4,0.6,1.4,1.3c0,0,0,0,0,0v6.4C48.6-198.6,48-198,47.2-198C47.2-198,47.2-198,47.2-198z"/>
	</g>
	<g id="Group_9" transform="translate(381.654 99.548)">
		<path id="Path_9" class="st2" d="M-202.7,24.5c-0.5,0-1-0.3-1.2-0.8c-0.3-0.7-0.1-1.5,0.6-1.8c0,0,0,0,0,0l11.7-5.6
			c0.7-0.3,1.5-0.1,1.8,0.6s0.1,1.5-0.6,1.8l-11.7,5.6C-202.2,24.5-202.4,24.5-202.7,24.5z"/>
	</g>
	<g id="Group_10" transform="translate(380.747 241.638)">
		<path id="Path_10" class="st2" d="M-191.5-84.8c-0.3,0-0.6-0.1-0.8-0.3l-10.5-7.8c-0.6-0.5-0.7-1.3-0.3-1.9
			c0.5-0.6,1.3-0.7,1.9-0.3l10.5,7.8c0.6,0.4,0.7,1.3,0.3,1.9c0,0,0,0,0,0C-190.6-85.1-191.1-84.8-191.5-84.8z"/>
	</g>
	<g id="Group_11" transform="translate(396.358 185.687)">
		<path id="Path_11" class="st2" d="M-201.2-48.7h-13c-0.8,0-1.4-0.6-1.4-1.4c0-0.7,0.6-1.3,1.4-1.4h13c0.8,0,1.4,0.6,1.4,1.4
			C-199.9-49.3-200.5-48.7-201.2-48.7z"/>
	</g>
	<g id="Group_12" transform="translate(43.775 99.548)">
		<path id="Path_12" class="st2" d="M74.2,24.5c-0.2,0-0.4-0.1-0.6-0.1l-11.7-5.6c-0.7-0.3-1-1.2-0.6-1.8c0.3-0.7,1.2-1,1.8-0.6
			l11.7,5.6c0.7,0.3,1,1.2,0.6,1.8c0,0,0,0,0,0C75.2,24.2,74.8,24.5,74.2,24.5z"/>
	</g>
	<g id="Group_13" transform="translate(46.756 241.693)">
		<path id="Path_13" class="st2" d="M60.2-84.9c-0.8,0-1.4-0.6-1.4-1.4c0-0.4,0.2-0.8,0.5-1.1l10.4-7.8c0.6-0.5,1.5-0.3,1.9,0.3
			c0.5,0.6,0.3,1.5-0.3,1.9c0,0,0,0,0,0L61-85.2C60.7-85,60.5-84.9,60.2-84.9z"/>
	</g>
	<g id="Group_14" transform="translate(19.374 185.687)">
		<path id="Path_14" class="st2" d="M94.6-48.7h-13c-0.8,0-1.4-0.6-1.4-1.4s0.6-1.4,1.4-1.4c0,0,0,0,0,0h13c0.8,0,1.4,0.6,1.4,1.4
			S95.4-48.7,94.6-48.7C94.7-48.7,94.7-48.7,94.6-48.7z"/>
	</g>
	<g id="Group_17" transform="translate(95.155 413.538)">
		<g id="Group_15">
			<path id="Path_15" class="st2" d="M34.3-220.7H23.6v-6.8h5.1c0.8,0,1.4-0.6,1.4-1.4c0-0.7-0.6-1.3-1.4-1.4h-6.5
				c-0.8,0-1.4,0.6-1.4,1.3c0,0,0,0,0,0v9.5c0,0.8,0.6,1.4,1.3,1.4c0,0,0,0,0,0h12.1V-220.7z"/>
		</g>
		<g id="Group_16" transform="translate(75.269 0)">
			<path id="Path_16" class="st2" d="M8.6-229c-0.1-0.7-0.7-1.3-1.4-1.3h-5c-0.8,0-1.4,0.6-1.4,1.4c0,0.7,0.6,1.3,1.4,1.4h3.7
				l0.5,6.8h-44.7v2.8H7.9c0.8,0,1.4-0.6,1.4-1.4c0,0,0-0.1,0-0.1L8.6-229z"/>
		</g>
	</g>
	<g id="Group_18" transform="translate(157.644 229.902)">
		<path id="Path_17" class="st2" d="M9.2-86.1h-36.1c-0.8,0-1.4,0.6-1.4,1.3c0,0,0,0,0,0v5.5h2.8v-4.1H7.8V-53h-33.3v-23.5h-2.8
			v24.9c0,0.8,0.6,1.4,1.3,1.4c0,0,0,0,0,0H9.2c0.8,0,1.4-0.6,1.4-1.3c0,0,0,0,0,0v-33.2C10.6-85.5,10-86.1,9.2-86.1
			C9.2-86.1,9.2-86.1,9.2-86.1z"/>
	</g>
</g>
</svg>
