<?xml version="1.0" encoding="utf-8"?>
<!-- Generator: Adobe Illustrator 26.0.1, SVG Export Plug-In . SVG Version: 6.00 Build 0)  -->
<svg version="1.1" id="Layer_1" xmlns="http://www.w3.org/2000/svg" xmlns:xlink="http://www.w3.org/1999/xlink" x="0px" y="0px"
	 viewBox="0 0 467 410.9" style="enable-background:new 0 0 467 410.9;" xml:space="preserve">
<style type="text/css">
	.st0{enable-background:new    ;}
	.st1{fill:#3DD9CF;}
	.st2{fill:#FFFFFF;}
</style>
<g class="st0">
	<path class="st1" d="M327.2,208.4c-2.9,42.7-38.9,85.4-86.8,85.4c-28.9,0-53.2-2.5-74.5-27c-11.5-14-29.2-42-29.2-78
		c0-40.9,24.9-71.6,51.5-71.6c13.1,0,16.3,6.4,37,17.6c3.1,1.7,6.6,2.6,10.1,2.9c4,0.3,6.8,1.4,12.7,0.8
		C296.9,133.9,330.3,162.2,327.2,208.4z"/>
</g>
<g id="Group_30" transform="translate(272.453 281.392)">
	<g id="Group_26">
		<path id="Path_48" class="st2" d="M-6.7-41.7h-72.4c-3.6,0-6.2-0.9-8-2.7c-3.3-3.4-3.3-9.2-3.3-15.9v-38.4c0-3.6,0.9-6.2,2.7-8
			c3.4-3.3,9.2-3.3,15.9-3.3h61c5.3,0,10.3,0,14,2c4.3,2.3,6.3,6.8,6.3,14.2V-53c0,3.6-0.9,6.2-2.8,8C3.9-42.1-1-41.7-6.7-41.7z
			 M-74-107.3c-5.1,0-9.5,0.2-11.7,2.5c-1.3,1.3-1.9,3.3-1.9,6.1v38.4c-0.1,6.1-0.1,11.4,2.5,14c1.3,1.3,3.3,1.9,6.1,1.9H-9
			c6.1,0.1,11.4,0.1,13.9-2.4c1.3-1.3,1.9-3.3,2-6.1v-40.8c0-8.2-2.7-10.6-4.8-11.8c-3.1-1.7-7.6-1.7-12.7-1.7h-61.1
			C-72.5-107.3-73.3-107.3-74-107.3L-74-107.3z"/>
	</g>
	<g id="Group_27" transform="translate(8.469 6.757)">
		<path id="Path_49" class="st2" d="M-50.6-75.2c-0.3,0-0.6-0.1-0.9-0.3L-95.5-112c-0.6-0.5-0.6-1.4-0.1-1.9
			c0.5-0.6,1.3-0.6,1.9-0.2l43.1,35.8l44.8-35.8c0.6-0.5,1.5-0.4,1.9,0.2c0.5,0.6,0.4,1.4-0.2,1.9l-45.7,36.5
			C-50-75.3-50.3-75.2-50.6-75.2z"/>
	</g>
	<g id="Group_28" transform="translate(8.455 84.67)">
		<path id="Path_50" class="st2" d="M-94.6-130c-0.4,0-0.7-0.1-1-0.4c-0.5-0.5-0.6-1.4,0-1.9c0,0,0,0,0,0l32.3-32.8
			c0.5-0.5,1.4-0.6,2,0c0.5,0.5,0.6,1.4,0,2c0,0,0,0,0,0l-32.3,32.7C-93.8-130.1-94.2-130-94.6-130z"/>
	</g>
	<g id="Group_29" transform="translate(170.567 84.69)">
		<path id="Path_51" class="st2" d="M-167.1-127.7c-0.4,0-0.7-0.1-1-0.4l-33.6-35c-0.5-0.6-0.5-1.4,0-2c0.6-0.5,1.4-0.5,2,0l0,0
			l33.6,35c0.5,0.6,0.5,1.4,0,2C-166.4-127.9-166.7-127.7-167.1-127.7z"/>
	</g>
</g>
</svg>
