<?xml version="1.0" encoding="utf-8"?>
<!-- Generator: Adobe Illustrator 26.0.1, SVG Export Plug-In . SVG Version: 6.00 Build 0)  -->
<svg version="1.1" id="Layer_1" xmlns="http://www.w3.org/2000/svg" xmlns:xlink="http://www.w3.org/1999/xlink" x="0px" y="0px"
	 viewBox="0 0 467 410.9" style="enable-background:new 0 0 467 410.9;" xml:space="preserve">
<style type="text/css">
	.st0{enable-background:new    ;}
	.st1{fill:#3DD9CF;}
	.st2{fill:#FFFFFF;}
</style>
<g class="st0">
	<path class="st1" d="M327.2,208.4c-2.9,42.7-38.9,85.4-86.8,85.4c-28.9,0-53.2-2.5-74.5-27c-11.5-14-29.2-42-29.2-78
		c0-40.9,24.9-71.6,51.5-71.6c13.1,0,16.3,6.4,37,17.6c3.1,1.7,6.6,2.6,10.1,2.9c4,0.3,6.8,1.4,12.7,0.8
		C296.9,133.9,330.3,162.2,327.2,208.4z"/>
</g>
<g id="emailmarketing6" transform="translate(-272.453 -68.457)">
	<g id="Group_30" transform="translate(272.453 281.392)">
		<g id="Group_26">
			<path id="Path_48" class="st2" d="M234,36.8h-45.1c-2.2,0-3.9-0.6-5-1.7c-2.1-2.1-2.1-5.7-2-9.9V1.2c0-2.2,0.6-3.9,1.7-5
				c2.1-2.1,5.7-2.1,9.9-2h38c3.3,0,6.4,0,8.7,1.2c2.7,1.4,3.9,4.2,3.9,8.8v25.4c0,2.2-0.6,3.9-1.7,5
				C240.6,36.6,237.5,36.8,234,36.8z M192-4.1c-3.2,0-5.9,0.2-7.3,1.5c-0.8,0.8-1.2,2-1.2,3.8v23.9c0,3.8-0.1,7.1,1.5,8.7
				c0.8,0.8,2,1.2,3.8,1.2h43.7c3.8,0,7.1,0.1,8.7-1.5c0.8-0.8,1.2-2,1.2-3.8V4.3c0-5.1-1.7-6.6-3-7.3c-1.9-1.1-4.7-1.1-7.9-1h-38.1
				C193-4.1,192.5-4.1,192-4.1L192-4.1z"/>
		</g>
		<g id="Group_27" transform="translate(8.469 6.757)">
			<path id="Path_49" class="st2" d="M203.4,13.4c-0.2,0-0.4-0.1-0.6-0.2L175.5-9.6c-0.4-0.3-0.4-0.8-0.1-1.2
				c0.3-0.4,0.8-0.4,1.2-0.1l26.8,22.3l27.9-22.3c0.4-0.3,0.9-0.2,1.2,0.2c0.3,0.4,0.2,0.9-0.1,1.2l-28.5,22.7
				C203.8,13.3,203.6,13.4,203.4,13.4z"/>
		</g>
		<g id="Group_28" transform="translate(8.455 84.67)">
			<path id="Path_50" class="st2" d="M176-50.1c-0.2,0-0.4-0.1-0.6-0.2c-0.3-0.3-0.3-0.9,0-1.2c0,0,0,0,0,0L195.6-72
				c0.3-0.3,0.9-0.3,1.2,0c0.3,0.3,0.3,0.9,0,1.2c0,0,0,0,0,0l-20.1,20.4C176.5-50.2,176.3-50.1,176-50.1z"/>
		</g>
		<g id="Group_29" transform="translate(170.567 84.69)">
			<path id="Path_51" class="st2" d="M69.7-48.7c-0.2,0-0.5-0.1-0.6-0.3l-21-21.8c-0.3-0.3-0.3-0.9,0-1.2c0.3-0.3,0.9-0.3,1.2,0l0,0
				l21,21.8c0.3,0.3,0.3,0.9,0,1.2C70.2-48.8,70-48.7,69.7-48.7z"/>
		</g>
	</g>
	<g id="Path_20" transform="translate(413.289 68.457)">
		<path id="Path_52" class="st2" d="M119.2,201.8c-0.1,0-0.3,0-0.4-0.1l-27.7-12.6l0.2,11.3c0,0.2-0.1,0.5-0.2,0.6
			c-0.2,0.2-0.4,0.3-0.6,0.3h-8.1c-0.5,0-0.9-0.4-0.9-0.8c0,0,0,0,0,0v-12h-2.3c-3.9,0-7.1-2.7-7.8-6.4c-0.2-1-0.1-2.1,0.1-3.1
			c0.9-3.8,4.3-6.5,8.3-6.5h9.8c0.1-0.1,0.2-0.1,0.4-0.1c0.1,0,0.2,0,0.3,0.1l28.6-11.1c0.3-0.1,0.6-0.1,0.8,0.1
			c0.2,0.2,0.4,0.4,0.4,0.7v38.8c0,0.3-0.2,0.6-0.4,0.7C119.5,201.7,119.4,201.8,119.2,201.8z M91.1,187.2l27.3,12.4v-36.2
			l-27.5,10.6L91.1,187.2z M83.2,199.6h6.3l-0.2-11.1h-6.2V199.6z M83.3,186.8h6.1l-0.2-12.6h-9.4c-3.2,0-5.9,2.1-6.6,5.1
			c-0.2,0.8-0.2,1.6-0.1,2.4c0.5,2.9,3,5,6.1,5H83C83.1,186.7,83.2,186.8,83.3,186.8L83.3,186.8z"/>
	</g>
	<g id="Path_21" transform="translate(635.156 130.058)">
		<path id="Path_53" class="st2" d="M-101.7,125.6c-0.4,0-0.7-0.2-0.9-0.5c-0.3-0.5-0.2-1.2,0.3-1.6c2-1.3,3-2.6,3-4
			c0-2-2.2-4-3.1-4.6c-0.5-0.3-0.7-1-0.3-1.6c0.3-0.5,1-0.7,1.6-0.3c0.2,0.1,4.1,2.8,4.1,6.5c0,2.2-1.4,4.2-4.1,5.8
			C-101.3,125.6-101.5,125.6-101.7,125.6z"/>
	</g>
	<g id="Line_7" transform="translate(593.23 84.524)">
		<path id="Path_54" class="st2" d="M-69.1,171.7c-0.5,0-0.9-0.4-0.9-0.8c0,0,0,0,0,0v-21.3c0-0.5,0.4-0.9,0.9-0.9
			c0.5,0,0.9,0.4,0.9,0.9v21.3C-68.2,171.3-68.6,171.7-69.1,171.7C-69.1,171.7-69.1,171.7-69.1,171.7z"/>
	</g>
	<g id="Path_22" transform="translate(593.35 197.877)">
		<path id="Path_55" class="st2" d="M-69.3,59.7c-1.1,0-1.1,1.7,0,1.7S-68.2,59.7-69.3,59.7z"/>
	</g>
	<g id="Line_8" transform="translate(676.514 88.125)">
		<path id="Path_56" class="st2" d="M-134.5,154c-0.2,0-0.4-0.1-0.6-0.2c-0.4-0.3-0.4-0.8-0.1-1.2c0,0,0,0,0,0l5.6-6.3
			c0.3-0.4,0.9-0.4,1.2-0.1c0.4,0.3,0.4,0.9,0.1,1.2c0,0,0,0,0,0l-5.6,6.3C-134,153.8-134.2,154-134.5,154z"/>
	</g>
	<g id="Line_9" transform="translate(692.07 157.632)">
		<path id="Path_57" class="st2" d="M-146.7,93.5c-0.5,0-0.8-0.4-0.9-0.8c0-0.5,0.3-0.9,0.8-0.9c0,0,0,0,0,0l8.5-0.4
			c0.5,0,0.9,0.3,0.9,0.8c0,0.5-0.3,0.9-0.8,0.9L-146.7,93.5L-146.7,93.5z"/>
	</g>
	<g id="Line_10" transform="translate(676.742 195.774)">
		<path id="Path_58" class="st2" d="M-128.2,68.7c-0.2,0-0.4-0.1-0.6-0.2l-6.4-5.6c-0.4-0.3-0.4-0.9-0.1-1.2
			c0.3-0.3,0.8-0.4,1.2-0.1l6.4,5.6c0.4,0.3,0.4,0.9,0.1,1.2C-127.8,68.6-128,68.7-128.2,68.7z"/>
	</g>
	<g id="Group_31" transform="translate(465.287 186.895)">
		<path id="Path_59" class="st2" d="M37,81.9h-5.7c-0.5,0-0.9-0.4-0.9-0.8c0,0,0,0,0,0V69.2c0-0.5,0.4-0.9,0.8-0.9c0,0,0,0,0,0H37
			c0.5,0,0.9,0.4,0.9,0.8c0,0,0,0,0,0v11.9C37.9,81.5,37.5,81.9,37,81.9C37,81.9,37,81.9,37,81.9z M32.2,80.2h3.9V70.1h-3.9
			L32.2,80.2z"/>
	</g>
</g>
</svg>
