<?xml version="1.0" encoding="utf-8"?>
<!-- Generator: Adobe Illustrator 26.0.1, SVG Export Plug-In . SVG Version: 6.00 Build 0)  -->
<svg version="1.1" id="Layer_1" xmlns="http://www.w3.org/2000/svg" xmlns:xlink="http://www.w3.org/1999/xlink" x="0px" y="0px"
	 viewBox="0 0 420.7 468.3" style="enable-background:new 0 0 420.7 468.3;" xml:space="preserve">
<style type="text/css">
	.st0{enable-background:new    ;}
	.st1{fill:#9470FA;}
	.st2{fill:#FFFFFF;}
</style>
<g class="st0">
	<path class="st1" d="M304.2,237.4c-2.9,42.7-38.9,85.4-86.8,85.4c-28.9,0-53.2-2.5-74.5-27c-11.5-14-29.2-42-29.2-78
		c0-40.9,24.9-71.6,51.5-71.6c13.1,0,16.3,6.4,37,17.6c3.1,1.7,6.6,2.6,10.1,2.9c4,0.3,6.8,1.4,12.7,0.8
		C273.9,162.9,307.3,191.2,304.2,237.4z"/>
</g>
<g id="Group_102" transform="translate(-353 -27)">
	<g id="videoproduction6" transform="translate(353 27)">
		<g id="Group_80" transform="translate(162.586)">
			<path id="Path_561" class="st2" d="M54.6,224.1c-9.6,0-17.3-7.7-17.3-17.3c0-4.6,1.8-9,5.1-12.3l0,0c6.8-6.8,17.7-6.8,24.5,0
				c6.8,6.8,6.8,17.7,0,24.5C63.6,222.2,59.2,224.1,54.6,224.1z M44.5,196.6c-5.6,5.6-5.6,14.6,0,20.2s14.6,5.6,20.2,0
				s5.6-14.6,0-20.2c-2.7-2.7-6.3-4.2-10.1-4.2C50.8,192.4,47.1,193.9,44.5,196.6z"/>
		</g>
		<g id="Group_81" transform="translate(208.483 45.857)">
			<path id="Path_562" class="st2" d="M8.7,169.4c-4.7,0-8.5-3.8-8.5-8.5c0-4.7,3.8-8.5,8.5-8.5c4.7,0,8.5,3.8,8.5,8.5
				C17.2,165.6,13.4,169.4,8.7,169.4z M8.7,155.4c-3,0-5.5,2.4-5.5,5.5c0,3,2.4,5.5,5.5,5.5s5.5-2.4,5.5-5.5c0,0,0,0,0,0
				C14.1,157.9,11.7,155.4,8.7,155.4L8.7,155.4z"/>
		</g>
		<g id="Group_82" transform="translate(40.657 47.118)">
			<path id="Path_563" class="st2" d="M149,177c-7.3,0-13.3-5.7-13.3-12.8s5.9-12.8,13.3-12.8s13.3,5.7,13.3,12.8
				C162.2,171.2,156.3,177,149,177z M149,154.4c-5.6,0-10.2,4.4-10.2,9.8s4.6,9.8,10.2,9.8s10.2-4.4,10.2-9.8S154.6,154.4,149,154.4
				z"/>
		</g>
		<g id="Group_83" transform="translate(74.064 78.161)">
			<path id="Path_564" class="st2" d="M115.5,140c-3.8,0-6.8-3.1-6.8-6.8c0-3.8,3.1-6.8,6.8-6.8c3.8,0,6.8,3.1,6.8,6.8
				C122.4,136.9,119.3,140,115.5,140z M115.5,129.3c-2.1,0-3.8,1.7-3.8,3.8s1.7,3.8,3.8,3.8c2.1,0,3.8-1.7,3.8-3.8c0,0,0,0,0,0
				C119.3,131,117.6,129.3,115.5,129.3L115.5,129.3z"/>
		</g>
		<g id="Group_84" transform="translate(40.657 164.202)">
			<path id="Path_565" class="st2" d="M193.8,91h-58.2V56.8h58.2V91z M138.7,87.9h52.1V59.9h-52.1V87.9z"/>
		</g>
		<g id="Group_85" transform="translate(101.642 220.774)">
			<path id="Path_566" class="st2" d="M111,25H86.5V11.2H111V25z M89.5,22h18.5v-7.8H89.5V22z"/>
		</g>
		<g id="Group_86" transform="translate(0 219.356)">
			<path id="Path_567" class="st2" d="M179.4,25.2h-10.9V12.3h10.9L179.4,25.2z M171.6,22.2h4.8v-6.8h-4.8V22.2z"/>
		</g>
		<g id="Group_87" transform="translate(110.624 322.888)">
			<path id="Path_568" class="st2" d="M81.8-43.3L79.2-45l17.5-26.3l13.7,26.5l-2.7,1.4L96.4-65.3L81.8-43.3z"/>
		</g>
		<g id="Group_88" transform="translate(331.083 168.614)">
			<path id="Path_569" class="st2" d="M-81.5,84.7l-17.3-8.9l1.4-2.7l12.8,6.6V58.2l-12.8,6.6l-1.4-2.7l17.3-9V84.7z"/>
		</g>
		<g id="Group_91" transform="translate(272.462 223.926)">
			<g id="Group_89" transform="translate(0)">
				<path id="Path_570" class="st2" d="M-48.5,14.8c-2,0-3-1.5-3-3.1c0-0.8,0.3-1.5,0.7-2.1c0.6-0.7,1.4-1,2.2-1c2,0,3,1.5,3,3.1
					c0,0.8-0.3,1.5-0.8,2.1C-46.8,14.4-47.6,14.8-48.5,14.8z M-48.5,10.1c-1.2,0-1.5,1-1.5,1.6c0,0.6,0.3,1.5,1.5,1.5
					c0.4,0,0.8-0.1,1.1-0.5c0.3-0.3,0.4-0.7,0.4-1.1C-47,11-47.4,10.1-48.5,10.1L-48.5,10.1z"/>
			</g>
			<g id="Group_90" transform="translate(0 33.565)">
				<path id="Path_571" class="st2" d="M-48.5-12.3c-2,0-3-1.5-3-3.1c0-0.8,0.3-1.5,0.7-2.1c0.6-0.7,1.4-1,2.2-1c2,0,3,1.5,3,3.1
					c0,0.8-0.3,1.5-0.8,2.1C-46.8-12.7-47.6-12.3-48.5-12.3z M-48.5-16.9c-1.2,0-1.5,1-1.5,1.6s0.3,1.6,1.5,1.6
					c0.4,0,0.8-0.1,1.1-0.5c0.3-0.3,0.4-0.7,0.4-1.1C-47-16.1-47.4-16.9-48.5-16.9L-48.5-16.9z"/>
			</g>
		</g>
	</g>
</g>
</svg>
