<?xml version="1.0" encoding="utf-8"?>
<!-- Generator: Adobe Illustrator 26.0.1, SVG Export Plug-In . SVG Version: 6.00 Build 0)  -->
<svg version="1.1" id="Layer_1" xmlns="http://www.w3.org/2000/svg" xmlns:xlink="http://www.w3.org/1999/xlink" x="0px" y="0px"
	 viewBox="0 0 476.2 440" style="enable-background:new 0 0 476.2 440;" xml:space="preserve">
<style type="text/css">
	.st0{enable-background:new    ;}
	.st1{fill:#9470FA;}
	.st2{fill:#FFFFFF;}
</style>
<g class="st0">
	<path class="st1" d="M333.3,194c-2.9,42.7-38.9,85.4-86.8,85.4c-28.9,0-53.2-2.5-74.5-27c-11.5-14-29.2-42-29.2-78
		c0-40.9,24.9-71.6,51.5-71.6c13.1,0,16.3,6.4,37,17.6c3.1,1.7,6.6,2.6,10.1,2.9c4,0.3,6.8,1.4,12.7,0.8
		C303,119.5,336.4,147.8,333.3,194z"/>
</g>
<g>
	<g id="Group_95" transform="translate(328.95 115.016)">
		
			<rect id="Rectangle_5" x="-127.3" y="71.8" transform="matrix(0.1842 -0.9829 0.9829 0.1842 -148.1064 -26.2747)" class="st2" width="74.7" height="8.6"/>
	</g>
	<g id="Group_96" transform="translate(213.669 129.542)">
		<path id="Path_573" class="st2" d="M-9.8,90.4l-28.7-28.7l30.4-31l6.2,6l-24.6,25l22.7,22.7L-9.8,90.4z"/>
	</g>
	<g id="Group_97" transform="translate(408.566 129.542)">
		<path id="Path_574" class="st2" d="M-136.3,90.4l-6-6l22.7-22.7l-24.5-25l6.2-6l30.4,31L-136.3,90.4z"/>
	</g>
</g>
</svg>
