<?xml version="1.0" encoding="utf-8"?>
<!-- Generator: Adobe Illustrator 26.0.1, SVG Export Plug-In . SVG Version: 6.00 Build 0)  -->
<svg version="1.1" id="Layer_1" xmlns="http://www.w3.org/2000/svg" xmlns:xlink="http://www.w3.org/1999/xlink" x="0px" y="0px"
	 viewBox="0 0 476.2 440" style="enable-background:new 0 0 476.2 440;" xml:space="preserve">
<style type="text/css">
	.st0{fill:#9470FA;}
	.st1{fill:none;stroke:#FFFFFF;stroke-width:5;stroke-miterlimit:10;}
	.st2{fill:#F7F7F7;}
</style>
<path class="st0" d="M333.3,194c-2.9,42.7-38.9,85.4-86.8,85.4c-28.9,0-53.2-2.5-74.5-27c-11.5-14-29.2-42-29.2-78
	c0-40.9,24.9-71.6,51.5-71.6c13.1,0,16.3,6.4,37,17.6c3.1,1.7,6.6,2.6,10.1,2.9c4,0.3,6.8,1.4,12.7,0.8
	C303,119.5,336.4,147.8,333.3,194z"/>
<path class="st1" d="M235.8,216.7c-7.8,6.8-12.5,9.2-17.4,9c-0.6-2.2-0.8-4.5-1.7-6.4c-2.3-4.6-8.2-5.9-12.3-2.8
	c-1.3,1-2.3,1.2-3.7,0.5c-0.9-0.4-1.9-0.8-3.1-0.8c1,1.3,2,2.6,3.1,4.2c-1.3-0.3-2.5-0.6-4.2-1c1.1,1.2,1.8,2.3,2.8,3.1
	c1.1,0.8,1.3,1.8,1.4,3.1c0.8,10.5,5.4,18.6,15.3,22.8c7.1,3.1,14.2,2.5,21.1-1.1c0.3-0.1,0.5-0.4,1.1-0.8
	c-4.6,0.2-8.5-0.9-12.2-3.7c3.9-0.7,6.6-2.4,7.9-6.1c-1.1-0.1-2.1-0.1-3.1-0.2c3.8-1.7,5.9-4.5,6.4-8.8c-1.2,0.3-2.3,0.6-3.4,0.9
	C236.8,225,237.8,221.3,235.8,216.7z"/>
<path class="st1" d="M212.1,162.8c0,7.9,0,15.8,0,23.9c-3.7,0-7.2,0-10.9,0c0-1.9,0-3.7,0-5.5c0-5.4,0-10.9,0.1-16.3
	c0-1.5-0.5-2.1-1.9-2.2c-2.9-0.3-2.9-0.4-2.9-3.4c0-1.6,0-3.3,0-4.9c0-0.7,0.2-1.1,1-1.1c1.1-0.1,2.2-0.3,3.6-0.4c0-1,0-2.1,0-3.1
	c0.1-1.9,0.1-3.8,0.4-5.6c0.6-3.5,2.8-5.9,6.1-6.4c3.6-0.6,7.4-0.5,11.3-0.8c0,3,0,5.7-0.1,8.3c0,0.3-0.7,0.8-1.2,0.9
	c-1.8,0.3-3.6,0.6-5.4,0.8c0,2.1,0,4.1,0,6.2c1.5,0,3,0,4.5,0c2.1,0,2.3,0.2,2.2,2.3c-0.1,1.9-0.2,3.8-0.3,5.7
	c0,0.9-0.5,1.3-1.4,1.4C215.7,162.6,214,162.7,212.1,162.8z"/>
<g>
	<path class="st2" d="M255.9,197.2c-6.4,0-11.5-5.2-11.5-11.7c0-6.4,5.2-11.5,11.5-11.6c6.4,0,11.6,5.2,11.6,11.6
		C267.5,192,262.3,197.2,255.9,197.2z M262.6,185.6c0-3.7-3-6.7-6.7-6.7c-3.7,0-6.6,3-6.7,6.7c0,3.7,3,6.8,6.6,6.8
		C259.6,192.3,262.6,189.3,262.6,185.6z"/>
	<path class="st2" d="M271.1,174.1c0,1.5-1.2,2.7-2.6,2.7c-1.5,0-2.7-1.2-2.7-2.7c0-1.5,1.2-2.6,2.7-2.6
		C270,171.4,271.1,172.6,271.1,174.1z"/>
	<path class="st2" d="M279.2,173.6c-0.5-5.9-4.1-9.9-9.9-11.2c-1.3-0.3-2.7-0.5-4-0.5c-5.2-0.1-10.5-0.2-15.7-0.2c-1,0-2,0.1-3,0.1
		v5.1c3.5-0.2,7.1-0.2,10.6-0.2c3.2,0,6.4,0.1,9.7,0.2c0.7,0,1.4,0.2,2,0.4c3.2,0.8,5.1,2.9,5.4,6.1c0.3,3.8,0.4,7.6,0.6,10.5
		c-0.1,4-0.1,7.1-0.3,10.2c-0.4,5.8-2.5,8.3-8.4,8.5c-7,0.3-14,0-21,0c-0.5,0-1-0.1-1.5-0.2c-3.6-0.8-5.7-3-6-6.6
		c-0.6-7.3-0.6-14.7,0-22c0.4-4,2.9-6.5,7.3-6.8c0,0,0,0,0,0v-5.1c-0.2,0-0.4,0.1-0.6,0.1c-6.8,0.9-10.9,4.9-11.5,11.8
		c-0.7,7.1-0.6,14.3-0.1,21.4c0.2,2.7,0.8,5.3,2.4,7.5c2.6,3.7,6.2,5.3,10.5,5.5c3.4,0.2,6.9,0,10.4,0c0,0,0,0,0,0
		c3.5,0,7,0.1,10.5,0c7.2-0.3,12.1-4.9,12.8-11.8C279.9,188.9,279.9,181.3,279.2,173.6z"/>
</g>
</svg>
