<?xml version="1.0" encoding="utf-8"?>
<!-- Generator: Adobe Illustrator 26.0.1, SVG Export Plug-In . SVG Version: 6.00 Build 0)  -->
<svg version="1.1" id="Layer_1" xmlns="http://www.w3.org/2000/svg" xmlns:xlink="http://www.w3.org/1999/xlink" x="0px" y="0px"
	 viewBox="0 0 449.8 465.2" style="enable-background:new 0 0 449.8 465.2;" xml:space="preserve">
<style type="text/css">
	.st0{fill:#F5815A;}
	.st1{fill:#FFFFFF;}
</style>
<g>
	<path class="st0" d="M318.7,236.4c-2.9,42.7-38.9,85.4-86.8,85.4c-28.9,0-53.2-2.5-74.5-27c-11.5-14-29.2-42-29.2-78
		c0-40.9,24.9-71.6,51.5-71.6c13.1,0,16.3,6.4,37,17.6c3.1,1.7,6.6,2.6,10.1,2.9c4,0.3,6.8,1.4,12.7,0.8
		C288.4,161.9,321.8,190.2,318.7,236.4z"/>
</g>
<g>
	<g id="Group_32" transform="translate(184.02 166.715)">
		<path id="Path_60" class="st1" d="M56.3,78.6L30.6,92.7c-0.5,0.3-1.2,0.3-1.7-0.1l-2.5-1.8L3.8,73.5c-0.4-0.3-0.7-0.9-0.6-1.4
			l4.4-49.6c0-0.5,0.3-1,0.8-1.2l0,0c0.5-0.2,1-0.3,1.5,0l45.6,22.6c0.5,0.3,0.9,0.8,0.9,1.4l0.7,31.9
			C57.2,77.8,56.9,78.3,56.3,78.6z M30,89.4l23.9-13.2l-0.7-30L10.6,25.1L6.4,71.5l21.9,16.7L30,89.4z"/>
	</g>
	<g id="Group_33" transform="translate(291.824 166.715)">
		<path id="Path_61" class="st1" d="M-80.9,53.4c-0.8,0.4-1.7,0.1-2.2-0.6L-100,23.4c-0.4-0.8-0.2-1.7,0.6-2.2c0,0,0,0,0,0
			c0.8-0.4,1.7-0.2,2.2,0.6l16.9,29.4C-79.8,52-80.1,53-80.9,53.4C-80.9,53.4-80.9,53.4-80.9,53.4L-80.9,53.4z"/>
	</g>
	<g id="Group_34" transform="translate(262.59 298.779)">
		<path id="Path_62" class="st1" d="M-43.7-64.2c-4.7,2.6-10.7,0.9-13.3-3.8s-0.9-10.7,3.8-13.3c4.7-2.6,10.7-0.9,13.3,3.8l0,0
			C-37.3-72.7-39-66.8-43.7-64.2z M-51.6-78.5c-3.2,1.8-4.3,5.8-2.6,8.9s5.8,4.3,8.9,2.6s4.3-5.8,2.6-8.9l0,0
			C-44.4-79.1-48.4-80.3-51.6-78.5C-51.6-78.5-51.6-78.5-51.6-78.5z"/>
	</g>
	<g id="Group_35" transform="translate(178.981 438.654)">
		<path id="Path_63" class="st1" d="M80.1-186.8l-49.4,27.2c-0.6,0.3-1.3,0.2-1.8-0.2c-0.1-0.1-2.9-2.6-2.6-7.2
			c0.4-5.9,7.1-14.3,7.3-14.6c0.5-0.7,1.6-0.8,2.2-0.2c0.7,0.5,0.8,1.6,0.2,2.2c-1.8,2.2-6.3,8.8-6.6,12.9c-0.1,1.3,0.2,2.6,0.8,3.7
			l47.3-26.1c-0.2-1.5-1.1-4.3-5.1-5c-6.2-1.1-10.5,0.5-10.6,0.5c-0.8,0.3-1.7-0.1-2-1c-0.3-0.8,0.1-1.7,0.9-2
			c0.2-0.1,5.1-1.9,12.2-0.6c6.5,1.1,7.9,6.5,7.8,9.1C80.9-187.6,80.6-187.1,80.1-186.8z"/>
	</g>
</g>
</svg>
