<?xml version="1.0" encoding="utf-8"?>
<!-- Generator: Adobe Illustrator 26.0.1, SVG Export Plug-In . SVG Version: 6.00 Build 0)  -->
<svg version="1.1" id="Layer_1" xmlns="http://www.w3.org/2000/svg" xmlns:xlink="http://www.w3.org/1999/xlink" x="0px" y="0px"
	 viewBox="0 0 449.8 465.2" style="enable-background:new 0 0 449.8 465.2;" xml:space="preserve">
<style type="text/css">
	.st0{fill:#F5815A;}
	.st1{fill:none;stroke:#FFFFFF;stroke-width:5;stroke-miterlimit:10;}
</style>
<g>
	<path class="st0" d="M318.7,236.4c-2.9,42.7-38.9,85.4-86.8,85.4c-28.9,0-53.2-2.5-74.5-27c-11.5-14-29.2-42-29.2-78
		c0-40.9,24.9-71.6,51.5-71.6c13.1,0,16.3,6.4,37,17.6c3.1,1.7,6.6,2.6,10.1,2.9c4,0.3,6.8,1.4,12.7,0.8
		C288.4,161.9,321.8,190.2,318.7,236.4z"/>
</g>
<path class="st1" d="M188,224.8c-2.4-0.6-4.8-1.3-7.4-1.9c1.1,9.3,5.6,15.4,13.8,19c-2.2,0.2-4.3,0.2-6.7,0.4
	c2.8,8,8.7,11.7,17.1,13.2c-8,6.1-16.4,8.4-26.4,8c1.3,0.9,1.7,1.5,2.4,1.7c14.9,7.8,30.3,9.1,45.6,2.4
	c21.4-9.1,31.4-26.6,33.1-49.3c0.2-2.8,0.6-5,3-6.7c2.2-1.7,3.7-4.1,6.1-6.7c-3.7,0.9-6.3,1.5-9.1,2.2c2.4-3.5,4.5-6.3,6.7-9.1
	c-2.6,0-4.8,0.9-6.7,1.7c-3,1.5-5.2,1.1-8-1.1c-8.9-6.7-21.6-3.9-26.6,6.1c-1.9,4.1-2.4,9.1-3.7,13.8c-10.6,0.4-20.8-4.8-37.6-19.5
	C179.3,209,181.5,217,188,224.8z"/>
</svg>
