<?xml version="1.0" encoding="utf-8"?>
<!-- Generator: Adobe Illustrator 26.0.1, SVG Export Plug-In . SVG Version: 6.00 Build 0)  -->
<svg version="1.1" id="Layer_1" xmlns="http://www.w3.org/2000/svg" xmlns:xlink="http://www.w3.org/1999/xlink" x="0px" y="0px"
	 viewBox="0 0 450.1 441.3" style="enable-background:new 0 0 450.1 441.3;" xml:space="preserve">
<style type="text/css">
	.st0{enable-background:new    ;}
	.st1{fill:#9470FA;}
	.st2{fill:#FFFFFF;}
</style>
<g class="st0">
	<path class="st1" d="M320.2,229.7c-2.9,42.7-38.9,85.4-86.8,85.4c-28.9,0-53.2-2.5-74.5-27c-11.5-14-29.2-42-29.2-78
		c0-40.9,24.9-71.6,51.5-71.6c13.1,0,16.3,6.4,37,17.6c3.1,1.7,6.6,2.6,10.1,2.9c4,0.3,6.8,1.4,12.7,0.8
		C289.9,155.1,323.3,183.4,320.2,229.7z"/>
</g>
<g>
	<path class="st2" d="M224.9,272.1c-13.5,0-26.9,0-40.4,0c-3.5,0-5.2-1.8-5.2-5.2c0-14.8,0-29.7,0-44.5c0-1.9,0.7-3.3,2.1-4.6
		c13.3-11.4,26.6-22.9,39.9-34.3c1.4-1.2,2.9-2.1,4.8-1.6c0.7,0.2,1.5,0.6,2.1,1.1c2.3,1.9,4.6,3.8,6.8,5.8c0.6,0.5,0.9,0.6,1.6,0.1
		c2.3-1.7,4.6-3.3,6.9-5c1.1-0.8,2.3-1.4,3.7-1.7c0.9-0.2,1.7-0.5,2.6-0.7c1.9-0.5,3.4,0.4,3.9,2.3c1,3.5,1.9,7.1,2.9,10.6
		c1.4,5.3,2.8,10.6,4.3,15.9c0.1,0.5,0.5,1,0.8,1.3c2.4,2.1,4.8,4.2,7.3,6.3c1.3,1.1,1.9,2.5,1.9,4.2c0,15,0,29.9,0,44.9
		c0,3.2-1.9,5-5.1,5C252.1,272.1,238.5,272.1,224.9,272.1z M183.5,220.1c0.1,0.2,0.1,0.2,0.2,0.3c9.5,7.6,19,15.2,28.5,22.8
		c0.4,0.4,0.7,0.3,1.1,0c2.8-2.3,5.7-4.6,8.5-6.8c2.2-1.8,4.3-1.8,6.5,0c2.8,2.2,5.6,4.5,8.4,6.7c0.6,0.5,0.9,0.5,1.5,0
		c8.5-6.8,17-13.6,25.5-20.4c1-0.8,2-1.6,3-2.4c-1.9-1.6-3.7-3.2-5.2-4.5c-1.1,0.5-1.9,1-2.8,1.3c-1,0.4-2,0.6-3,0.8
		c-0.5,0.1-1.1,0.2-1.7,0.2c-6.8-0.6-13.5-1.3-20.3-2c-1.5-0.1-3-0.3-4.6-0.4c0.1,0.3,0.1,0.5,0.1,0.7c0.8,3,1.6,6.1,2.4,9.1
		c0.3,1.2,0.3,2.3-0.2,3.4c-0.8,1.7-2.6,2.8-4.4,2.7c-2-0.1-3.6-1.3-4.1-3.2c-0.9-3.2-1.8-6.5-2.7-9.7c-0.1-0.2-0.2-0.4-0.3-0.7
		c-1.8,0.6-3.7,0.9-5.5,0.5c-4.2-0.9-7.2-4.3-7.4-8.3c-0.2-4.3,2.6-8.2,6.7-9.4c1-0.3,2-0.6,3-0.8c6.8-1.7,6.8-1.7,12.4-5.7
		c1.3-0.9,2.5-1.8,3.8-2.8c-0.3-0.3-0.5-0.5-0.7-0.7c-2-1.7-3.9-3.3-5.9-5c-1.3-1.1-1.7-1.1-3,0c-10,8.6-19.9,17.1-29.9,25.7
		C190.3,214.2,186.9,217.1,183.5,220.1z M185.6,269c26.4,0,52.5,0,78.8,0c-0.4-0.3-0.6-0.5-0.9-0.8c-12.3-9.8-24.6-19.6-36.9-29.5
		c-1.4-1.1-1.8-1.1-3.2,0c-7.9,6.3-15.7,12.5-23.6,18.8C195.2,261.3,190.5,265.1,185.6,269z M210.2,245.4
		c-9.3-7.4-18.5-14.8-27.8-22.2c0,14.9,0,29.5,0,44.4C191.7,260.2,200.9,252.9,210.2,245.4z M267.7,267.6c0-14.9,0-29.6,0-44.4
		c-9.3,7.4-18.5,14.8-27.8,22.2C249.2,252.9,258.4,260.2,267.7,267.6z M244.9,186.7c-0.2,0.1-0.3,0.2-0.4,0.2
		c-5.9,4.2-11.8,8.4-17.7,12.6c-0.4,0.3-0.5,0.6-0.3,1c1,3.6,2,7.2,2.9,10.8c0.2,1,0.7,1.3,1.7,1.3c5.1,0.4,10.1,1,15.2,1.4
		c2,0.2,4,0.4,6.2,0.6C249.9,205.4,247.4,196.1,244.9,186.7z M226.7,212.9c-1.1-4-2.1-7.9-3.2-11.8c-3,0.8-5.9,1.5-8.8,2.4
		c-3.2,0.9-5.1,4-4.4,7.1c0.7,3.3,3.7,5.4,7.1,4.7C220.4,214.7,223.5,213.8,226.7,212.9z M247.7,185.2c2.7,9.9,5.3,19.6,7.9,29.4
		c1.1-0.3,2-0.5,2.9-0.8c-2.6-9.8-5.3-19.6-7.9-29.4C249.6,184.7,248.7,185,247.7,185.2z M223.2,217c0,0.2,0,0.3,0,0.4
		c0.9,3.2,1.7,6.5,2.6,9.7c0.3,1,1,1.5,1.9,1.2c0.9-0.3,1.3-1,1-2c-0.4-1.7-0.9-3.3-1.3-4.9c-0.5-1.7-0.9-3.4-1.4-5.2
		C225,216.5,224.1,216.8,223.2,217z"/>
	<path class="st2" d="M262.2,198.7c-1,0-1.6-0.4-1.8-1.1c-0.2-0.8,0.1-1.5,0.8-1.7c2.1-0.6,4.3-1.2,6.4-1.7c0.7-0.2,1.3,0.3,1.5,1
		c0.2,0.7,0.1,1.5-0.7,1.8C266.4,197.6,264.2,198.1,262.2,198.7z"/>
	<path class="st2" d="M268.9,209.3c-1.9-0.5-4-1.1-6.2-1.7c-0.7-0.2-1-0.9-0.8-1.7c0.2-0.8,0.8-1.3,1.6-1.1c2.1,0.5,4.2,1.1,6.3,1.7
		c0.8,0.2,1,0.9,0.9,1.7C270.6,208.9,270,209.3,268.9,209.3z"/>
	<path class="st2" d="M263.2,182.6c0.4,0.3,1,0.6,1.1,1c0.2,0.5,0.2,1.2-0.1,1.6c-1.5,1.6-3,3.2-4.6,4.6c-0.6,0.6-1.4,0.4-2-0.2
		c-0.6-0.6-0.6-1.4-0.1-2c1.5-1.6,3-3.1,4.6-4.6C262.3,182.9,262.7,182.8,263.2,182.6z"/>
</g>
</svg>
