<svg xmlns="http://www.w3.org/2000/svg" width="465.884" height="431.411" viewBox="0 0 465.884 431.411">
  <g id="_1" data-name="1" transform="translate(-33.3 -30.5)">
    <g id="Group_1" data-name="Group 1" transform="translate(33.3 30.5)">
      <path id="Path_1" data-name="Path 1" d="M498.667,253.29C491.582,357.6,403.639,461.911,286.626,461.911c-70.6,0-129.961-6.107-181.994-65.957C76.539,361.753,33.3,293.353,33.3,205.409,33.3,105.5,94.127,30.5,159.108,30.5c32,0,39.819,15.634,90.386,42.994a62.421,62.421,0,0,0,24.673,7.084c9.771.733,16.612,3.42,31.024,1.954C424.892,71.052,506.484,140.185,498.667,253.29Z" transform="translate(-33.3 -30.5)" fill="#3dd9cf"/>
    </g>
    <g id="Group_104" transform="translate(147.871 130.06)">
      <g id="Group_1-2" data-name="Group_1" transform="translate(56.948 0)">
        <path id="Path_1-2" data-name="Path_1" d="M113.635,108.984H7.859c-8.306,0-11.726-6.84-12.459-10.26V76.738c0-2.2.489-3.664,1.954-4.641a3.5,3.5,0,0,1,2.687-.733c1.71,0,12.459-.244,17.589,0,9.039.733,9.039,8.061,9.039,13.924,0,1.954.489,2.443.489,2.443h.733c.489,0,9.771-.244,13.924-.244a1.469,1.469,0,0,0-.244-.977v-.733s-.244-4.153-.244-7.329c-.244-4.886,2.931-6.84,5.13-6.84H46.7c.244,0,17.833-.244,23.452-.244a7.578,7.578,0,0,1,5.374,2.2c2.443,2.687,2.2,6.6,2.2,10.5,0,1.221-.244,2.2-.244,3.42a1.469,1.469,0,0,0,.244.977c.489.489,3.909.244,6.107.244h3.176a14.763,14.763,0,0,0,5.13-.733V80.4c0-6.107,3.909-8.306,6.6-8.306s15.39-.489,18.566,0c4.4.489,5.863,4.4,6.351,6.6v.489c0,1.954.489,19.3,0,22.719-.733,5.619-8.306,7.329-9.039,7.573C114.123,108.984,113.879,108.984,113.635,108.984ZM2.24,97.5a5.83,5.83,0,0,0,5.619,4.641H113.391a5.449,5.449,0,0,0,3.42-1.71c.244-2.443.244-14.413,0-21.5,0-.244-.244-.733-.489-.733-1.954-.244-11.481-.244-17.1,0a4.157,4.157,0,0,0-.244,1.71v9.039c-.244,1.466-1.466,6.107-11.726,6.107H84.076c-4.886.244-8.55.244-10.993-2.2A7.924,7.924,0,0,1,70.885,87a18.49,18.49,0,0,1,.244-3.664c0-1.71.244-4.641-.244-5.374H70.4c-4.641,0-17.589.244-21.742.244.244,2.687.244,5.863.244,7.084.244,1.466.733,4.641-1.221,7.084a5.115,5.115,0,0,1-4.641,1.954,129.609,129.609,0,0,0-14.169.244,7.87,7.87,0,0,1-5.619-1.466c-1.954-1.71-3.176-4.153-3.176-7.817,0-7.084-.733-7.084-2.931-7.329-3.664-.244-10.993-.244-14.9,0V97.5Z" transform="translate(4.6 -71.256)" fill="#fff"/>
      </g>
      <g id="Group_2" transform="translate(65.615 31.131)">
        <path id="Path_2" d="M83.159,59.344H-6.983A3.164,3.164,0,0,1-10.159,56.9l-7.084-27.849a4.2,4.2,0,0,1,.489-2.931A3.923,3.923,0,0,1-14.068,24.9H90.487a3.376,3.376,0,0,1,2.687,1.466,2.6,2.6,0,0,1,.489,2.931L86.334,57.146A3.029,3.029,0,0,1,83.159,59.344ZM-4.3,52.5H80.716L86.334,31.5h-96Z" transform="translate(17.339 -24.9)" fill="#fff"/>
      </g>
      <g id="Group_3" transform="translate(66.317 58.679)">
        <path id="Path_3" d="M87.621,5.386H-12.537A5.944,5.944,0,0,1-18.4-.477v-10.26A5.944,5.944,0,0,1-12.537-16.6h100.4a5.944,5.944,0,0,1,5.863,5.863V-.477A6.153,6.153,0,0,1,87.621,5.386Zm-99.18-6.6H86.888V-9.76H-11.56Z" transform="translate(18.4 16.6)" fill="#fff"/>
      </g>
      <g id="Group_4" transform="translate(65.298 90.209)">
        <path id="Path_4" d="M89.365-41.514h-100.4A5.944,5.944,0,0,1-16.9-47.377v-10.26A5.944,5.944,0,0,1-11.037-63.5h100.4a5.944,5.944,0,0,1,5.863,5.863v10.26A6.115,6.115,0,0,1,89.365-41.514Zm-99.425-6.84H88.388V-56.9H-10.06Z" transform="translate(16.9 63.5)" fill="#fff"/>
      </g>
      <g id="Group_5" transform="translate(75.78 74.022)">
        <path id="Path_5" d="M-29.38-16.237a3.292,3.292,0,0,1-3.42-3.176h0V-35.78a3.34,3.34,0,0,1,3.42-3.42,3.671,3.671,0,0,1,3.42,3.42v16.367a3.292,3.292,0,0,1-3.42,3.176Z" transform="translate(32.8 39.2)" fill="#fff"/>
      </g>
      <g id="Group_6" transform="translate(157.67 74.022)">
        <path id="Path_6" d="M-151.38-16.237a3.292,3.292,0,0,1-3.42-3.176h0V-35.78a3.34,3.34,0,0,1,3.42-3.42,3.671,3.671,0,0,1,3.42,3.42v16.367a3.292,3.292,0,0,1-3.42,3.176Z" transform="translate(154.8 39.2)" fill="#fff"/>
      </g>
      <g id="Group_7" transform="translate(72.724 170.359)">
        <path id="Path_7" d="M63.308-176.56H-24.88a3.34,3.34,0,0,1-3.42-3.42,3.671,3.671,0,0,1,3.42-3.42H63.308a3.34,3.34,0,0,1,3.42,3.42,3.34,3.34,0,0,1-3.42,3.42Z" transform="translate(28.3 183.4)" fill="#fff"/>
      </g>
      <g id="Group_8" transform="translate(55.861 186.448)">
        <path id="Path_8" d="M119.632-184.87H.42A3.292,3.292,0,0,1-3-188.046h0V-203.68A3.292,3.292,0,0,1,.176-207.1H17.032a3.34,3.34,0,0,1,3.42,3.42,3.34,3.34,0,0,1-3.42,3.42H3.351v8.794H115.723v-8.794H104.975a3.34,3.34,0,0,1-3.42-3.42,3.671,3.671,0,0,1,3.42-3.42H118.9a3.292,3.292,0,0,1,3.42,3.176h0v15.634c.733,1.954-.733,3.42-2.687,3.42Z" transform="translate(3 207.1)" fill="#fff"/>
      </g>
      <g id="Group_9" transform="translate(190.654 36.932)">
        <path id="Path_9" d="M-200.774,36.526a3.174,3.174,0,0,1-2.931-1.954,3.218,3.218,0,0,1,1.466-4.4h0l28.582-13.68a3.218,3.218,0,0,1,4.4,1.466,3.218,3.218,0,0,1-1.466,4.4l-28.582,13.68C-199.552,36.526-200.041,36.526-200.774,36.526Z" transform="translate(204.035 -16.165)" fill="#fff"/>
      </g>
      <g id="Group_10" transform="translate(190.136 111.647)">
        <path id="Path_10" d="M-174.416-69.592a2.774,2.774,0,0,1-1.954-.733l-25.65-19.054a3.461,3.461,0,0,1-.733-4.641,3.461,3.461,0,0,1,4.641-.733l25.65,19.054a3.423,3.423,0,0,1,.733,4.641h0A3.723,3.723,0,0,1-174.416-69.592Z" transform="translate(203.34 95.34)" fill="#fff"/>
      </g>
      <g id="Group_11" transform="translate(198.322 82.062)">
        <path id="Path_11" d="M-180.423-44.66H-212.18a3.34,3.34,0,0,1-3.42-3.42,3.671,3.671,0,0,1,3.42-3.42h31.757A3.34,3.34,0,0,1-177-48.08,3.671,3.671,0,0,1-180.423-44.66Z" transform="translate(215.6 51.5)" fill="#fff"/>
      </g>
      <g id="Group_12" transform="translate(13.001 37.069)">
        <path id="Path_12" d="M93.072,36.446c-.489,0-.977-.244-1.466-.244L63.024,22.521a3.1,3.1,0,0,1-1.466-4.4,3.1,3.1,0,0,1,4.4-1.466l28.582,13.68A3.1,3.1,0,0,1,96,34.736h0A3.109,3.109,0,0,1,93.072,36.446Z" transform="translate(-61.121 -16.221)" fill="#fff"/>
      </g>
      <g id="Group_13" transform="translate(14.613 111.432)">
        <path id="Path_13" d="M62.22-69.63a3.34,3.34,0,0,1-3.42-3.42,3.923,3.923,0,0,1,1.221-2.687L85.427-94.791a3.207,3.207,0,0,1,4.641.733,3.207,3.207,0,0,1-.733,4.641h0L64.174-70.362A3.249,3.249,0,0,1,62.22-69.63Z" transform="translate(-58.8 95.483)" fill="#fff"/>
      </g>
      <g id="Group_14" transform="translate(0 82.062)">
        <path id="Path_14" d="M115.377-44.66H83.62a3.34,3.34,0,0,1-3.42-3.42,3.34,3.34,0,0,1,3.42-3.42h31.757a3.34,3.34,0,0,1,3.42,3.42,3.34,3.34,0,0,1-3.42,3.42Z" transform="translate(-80.2 51.5)" fill="#fff"/>
      </g>
      <g id="Group_17" transform="translate(40.017 201.887)">
        <g id="Group_15" transform="translate(0 0)">
          <path id="Path_15" d="M53.779-206.848H27.64V-223.46H40.1a3.34,3.34,0,0,0,3.42-3.42,3.671,3.671,0,0,0-3.42-3.42H24.22a3.292,3.292,0,0,0-3.42,3.176h0v23.207a3.292,3.292,0,0,0,3.176,3.42H53.534v-6.352Z" transform="translate(-20.8 230.3)" fill="#fff"/>
        </g>
        <g id="Group_16" transform="translate(39.499 0)">
          <path id="Path_16" d="M76.271-227.124a3.648,3.648,0,0,0-3.42-3.176H60.636a3.34,3.34,0,0,0-3.42,3.42,3.671,3.671,0,0,0,3.42,3.42h9.039L70.9-206.848H-38.3v6.84H74.561a3.34,3.34,0,0,0,3.42-3.42v-.244Z" transform="translate(38.3 230.3)" fill="#fff"/>
        </g>
      </g>
      <g id="Group_18" transform="translate(72.724 105.55)">
        <path id="Path_17" d="M63.308-86.1H-24.88a3.292,3.292,0,0,0-3.42,3.176h0v13.436h6.84V-79.5H59.888V-5.241H-21.46V-62.648H-28.3V-1.821A3.292,3.292,0,0,0-25.124,1.6H63.308a3.292,3.292,0,0,0,3.42-3.176h0v-81.1a3.34,3.34,0,0,0-3.42-3.42Z" transform="translate(28.3 86.1)" fill="#fff"/>
      </g>
    </g>
  </g>
</svg>
