<svg xmlns="http://www.w3.org/2000/svg" width="473.496" height="438.489" viewBox="0 0 473.496 438.489">
  <g id="_2" data-name="2" transform="translate(-136.7 -117.2)">
    <g id="Group_2" data-name="Group 2" transform="translate(136.7 117.2)">
      <path id="Path_2" data-name="Path 2" d="M609.7,343.645c-7.2,106.022-96.587,212.044-215.52,212.044-71.757,0-132.093-6.207-184.98-67.04-28.554-34.761-72.5-104.284-72.5-193.67,0-101.553,61.825-177.779,127.872-177.779,32.527,0,40.472,15.891,91.869,43.7a63.444,63.444,0,0,0,25.078,7.2c9.932.745,16.884,3.476,31.533,1.986C534.469,158.665,617.4,228.933,609.7,343.645Z" transform="translate(-136.7 -117.2)" fill="#3dd9cf"/>
    </g>
    <g id="Group_30" transform="translate(249.309 251.756)">
      <g id="Group_26" transform="translate(0 0)">
        <path id="Path_48" d="M117.423,59.586H-62.343c-8.939,0-15.394-2.235-19.864-6.7C-90.4,44.44-90.4,30.038-90.4,13.4V-81.943c0-8.939,2.235-15.394,6.7-19.864C-75.254-110-60.853-110-44.217-110h151.46c13.16,0,25.574,0,34.761,4.966,10.677,5.711,15.643,16.884,15.643,35.258v101.3c0,8.939-2.235,15.394-6.952,19.864C143.742,58.592,131.576,59.586,117.423,59.586ZM-49.68-103.3c-12.663,0-23.588.5-29.051,6.207-3.228,3.228-4.718,8.194-4.718,15.146V13.4C-83.7,28.549-83.7,41.708-77.24,48.164c3.228,3.228,8.194,4.718,15.146,4.718H111.712c15.146.248,28.306.248,34.513-5.959,3.228-3.228,4.718-8.194,4.966-15.146v-101.3c0-20.36-6.7-26.319-11.918-29.3-7.7-4.221-18.87-4.221-31.533-4.221H-43.969a45.9,45.9,0,0,0-5.711-.248Z" transform="translate(90.4 110)" fill="#fff"/>
      </g>
      <g id="Group_27" transform="translate(7.215 5.802)">
        <path id="Path_49" d="M16.672-17.038a4,4,0,0,1-2.235-.745l-109.25-90.628a3.238,3.238,0,0,1-.248-4.718,3.474,3.474,0,0,1,4.718-.5L16.672-24.736l111.236-88.89a3.227,3.227,0,0,1,4.718.5,3.249,3.249,0,0,1-.5,4.718L18.658-17.783A2.819,2.819,0,0,1,16.672-17.038Z" transform="translate(95.963 114.42)" fill="#fff"/>
      </g>
      <g id="Group_28" transform="translate(7.056 72.395)">
        <path id="Path_50" d="M-92.5-77.335a3.188,3.188,0,0,1-2.483-.993,3.228,3.228,0,0,1,0-4.718h0l80.2-81.441a3.519,3.519,0,0,1,4.966,0,3.519,3.519,0,0,1,0,4.966h0l-80.2,81.192A2.879,2.879,0,0,1-92.5-77.335Z" transform="translate(96.013 165.513)" fill="#fff"/>
      </g>
      <g id="Group_29" transform="translate(146.226 72.539)">
        <path id="Path_51" d="M-115.234-71.682a3.188,3.188,0,0,1-2.483-.993l-83.427-86.9a3.776,3.776,0,0,1,0-4.966,3.776,3.776,0,0,1,4.966,0h0l83.427,86.9a3.776,3.776,0,0,1,0,4.966A4.412,4.412,0,0,1-115.234-71.682Z" transform="translate(202.075 165.475)" fill="#fff"/>
      </g>
    </g>
  </g>
</svg>
