<svg xmlns="http://www.w3.org/2000/svg" width="472.338" height="437.417" viewBox="0 0 472.338 437.417">
  <g id="_3" data-name="3" transform="translate(-136.7 -117.2)">
    <g id="Group_3" data-name="Group 3" transform="translate(136.7 117.2)">
      <path id="Path_3" data-name="Path 3" d="M608.545,343.091c-7.183,105.763-96.351,211.525-214.993,211.525-71.582,0-131.77-6.192-184.527-66.876-28.484-34.676-72.325-104.029-72.325-193.2,0-101.3,61.674-177.344,127.559-177.344,32.447,0,40.373,15.852,91.645,43.593a63.289,63.289,0,0,0,25.016,7.183c9.907.743,16.843,3.468,31.456,1.982C533.5,158.564,616.224,228.66,608.545,343.091Z" transform="translate(-136.7 -117.2)" fill="#3dd9cf"/>
    </g>
    <g id="emailmarketing6" transform="translate(248.574 226.515)">
      <g id="Group_30" transform="translate(0 113.362)">
        <g id="Group_26" transform="translate(0 0)">
          <path id="Path_48" d="M310.993,99.763H199.286c-5.449,0-9.66-1.486-12.384-4.211-5.2-5.2-5.2-14.118-4.954-24.521V11.586c0-5.449,1.486-9.66,4.211-12.384C191.36-6,200.277-6,210.68-5.752H304.8c8.174,0,15.852,0,21.549,2.972,6.688,3.468,9.66,10.4,9.66,21.8V81.93c0,5.449-1.486,9.66-4.211,12.384C327.341,99.268,319.663,99.763,310.993,99.763ZM206.965-1.541c-7.926,0-14.614.5-18.081,3.715-1.982,1.982-2.972,4.954-2.972,9.412v59.2c0,9.412-.248,17.586,3.715,21.549,1.982,1.981,4.954,2.972,9.412,2.972h108.24c9.412,0,17.586.248,21.549-3.715,1.982-1.981,2.972-4.954,2.972-9.412V19.265c0-12.632-4.211-16.347-7.431-18.081-4.706-2.725-11.641-2.725-19.567-2.477H210.432a15.232,15.232,0,0,0-3.468-.248Z" transform="translate(-181.867 5.833)" fill="#fff"/>
        </g>
        <g id="Group_27" transform="translate(4.428 3.655)">
          <path id="Path_49" d="M245.068,49.6a3.521,3.521,0,0,1-1.486-.5L175.964-7.364a2.023,2.023,0,0,1-.248-2.972,2.023,2.023,0,0,1,2.972-.248l66.38,55.234,69.1-55.234a2.057,2.057,0,0,1,2.972.5,2.255,2.255,0,0,1-.248,2.972L246.307,49.109A1.892,1.892,0,0,1,245.068,49.6Z" transform="translate(-175.186 11.114)" fill="#fff"/>
        </g>
        <g id="Group_28" transform="translate(4.366 45.271)">
          <path id="Path_50" d="M177.218-17.424a3.521,3.521,0,0,1-1.486-.5,2.26,2.26,0,0,1,0-2.972h0l50.033-50.776a2.26,2.26,0,0,1,2.972,0,2.26,2.26,0,0,1,0,2.972h0L178.952-18.167A2.249,2.249,0,0,1,177.218-17.424Z" transform="translate(-175.175 72.225)" fill="#fff"/>
        </g>
        <g id="Group_29" transform="translate(90.591 45.321)">
          <path id="Path_51" d="M101.933-13.956a1.765,1.765,0,0,1-1.486-.743l-52.014-54a2.26,2.26,0,0,1,0-2.972,2.26,2.26,0,0,1,2.972,0h0l52.014,54a2.26,2.26,0,0,1,0,2.972A1.5,1.5,0,0,1,101.933-13.956Z" transform="translate(-47.875 72.225)" fill="#fff"/>
        </g>
      </g>
      <g id="Path_20" transform="translate(74.949)">
        <path id="Path_52" d="M189.956,261.563a1.489,1.489,0,0,1-.991-.248l-68.61-31.209.5,27.989a2.656,2.656,0,0,1-.5,1.486,2.141,2.141,0,0,1-1.486.743H98.807a2.184,2.184,0,0,1-2.229-1.982h0V228.62h-5.7a19.457,19.457,0,0,1-19.32-15.852,20.053,20.053,0,0,1,.248-7.678,20.991,20.991,0,0,1,20.558-16.1H116.64c.248-.248.5-.248.991-.248a.91.91,0,0,1,.743.248L189.213,161.5a1.87,1.87,0,0,1,1.982.248,2.507,2.507,0,0,1,.991,1.734v96.1a2.085,2.085,0,0,1-.991,1.734C190.7,261.315,190.451,261.563,189.956,261.563Zm-69.6-36.162,67.619,30.713V166.451L119.86,192.706Zm-19.567,30.713h15.6l-.5-27.493H100.541v27.493Zm.248-31.7h15.109l-.5-31.209H92.367a16.529,16.529,0,0,0-16.347,12.632,16.032,16.032,0,0,0-.248,5.944,15,15,0,0,0,15.109,12.384h9.412c.248,0,.5.248.743.248Z" transform="translate(-71.291 -161.334)" fill="#fff"/>
      </g>
      <g id="Path_21" transform="translate(193.005 32.333)">
        <path id="Path_53" d="M-99.909,144.523a2.6,2.6,0,0,1-2.229-1.238,3.091,3.091,0,0,1,.743-3.963c4.954-3.22,7.431-6.44,7.431-9.908,0-4.954-5.449-9.908-7.678-11.394a2.759,2.759,0,0,1-.743-3.963,2.759,2.759,0,0,1,3.963-.743c.5.248,10.155,6.935,10.155,16.1,0,5.449-3.468,10.4-10.155,14.366A1.483,1.483,0,0,1-99.909,144.523Z" transform="translate(102.913 -112.787)" fill="#fff"/>
      </g>
      <g id="Line_7" transform="translate(170.681 8.502)">
        <path id="Path_54" d="M-67.771,205.668A2.184,2.184,0,0,1-70,203.687h0V150.929a2.22,2.22,0,0,1,2.229-2.229,2.22,2.22,0,0,1,2.229,2.229v52.757a2.184,2.184,0,0,1-2.229,1.982Z" transform="translate(70 -148.7)" fill="#fff"/>
      </g>
      <g id="Path_22" transform="translate(170.668 68.822)">
        <path id="Path_55" d="M-68.082,59.7c-2.725,0-2.725,4.211,0,4.211S-65.357,59.7-68.082,59.7Z" transform="translate(70.125 -59.7)" fill="#fff"/>
      </g>
      <g id="Line_8" transform="translate(214.943 10.7)">
        <path id="Path_56" d="M-133.15,165.835a3.521,3.521,0,0,1-1.486-.5,2.023,2.023,0,0,1-.248-2.972h0l13.871-15.6a2.039,2.039,0,0,1,2.972-.248,2.039,2.039,0,0,1,.248,2.972h0l-13.871,15.6A2.117,2.117,0,0,1-133.15,165.835Z" transform="translate(135.414 -145.986)" fill="#fff"/>
      </g>
      <g id="Line_9" transform="translate(223.29 47.657)">
        <path id="Path_57" d="M-145.371,96.6A2.382,2.382,0,0,1-147.6,94.62a2.023,2.023,0,0,1,1.982-2.229h0l21.053-.991a2.023,2.023,0,0,1,2.229,1.982,2.023,2.023,0,0,1-1.982,2.229l-21.053.991Z" transform="translate(147.6 -91.4)" fill="#fff"/>
      </g>
      <g id="Line_10" transform="translate(215.26 67.87)">
        <path id="Path_58" d="M-117.4,79.453a3.521,3.521,0,0,1-1.486-.5l-15.852-13.871a2.039,2.039,0,0,1-.248-2.972,2.255,2.255,0,0,1,2.972-.248l15.852,13.871a2.039,2.039,0,0,1,.248,2.972A2.141,2.141,0,0,1-117.4,79.453Z" transform="translate(135.514 -61.419)" fill="#fff"/>
      </g>
      <g id="Group_31" transform="translate(102.46 62.922)">
        <path id="Path_59" d="M46.747,101.986H32.629A2.184,2.184,0,0,1,30.4,100h0V70.529A2.184,2.184,0,0,1,32.382,68.3H46.747a2.184,2.184,0,0,1,2.229,1.982h0V99.756a2.22,2.22,0,0,1-2.229,2.229ZM34.858,97.775h9.66V72.758h-9.66Z" transform="translate(-30.4 -68.3)" fill="#fff"/>
      </g>
    </g>
  </g>
</svg>
