<svg xmlns="http://www.w3.org/2000/svg" width="473.496" height="438.489" viewBox="0 0 473.496 438.489">
  <g id="_4" data-name="4" transform="translate(-113.7 -146.2)">
    <g id="Group_4" data-name="Group 4" transform="translate(113.7 146.2)">
      <path id="Path_4" data-name="Path 4" d="M586.7,372.645c-7.2,106.022-96.587,212.044-215.52,212.044-71.757,0-132.093-6.207-184.98-67.04-28.554-34.761-72.5-104.284-72.5-193.67,0-101.553,61.825-177.779,127.872-177.779,32.527,0,40.472,15.891,91.869,43.7a63.443,63.443,0,0,0,25.078,7.2c9.932.745,16.884,3.476,31.533,1.986C511.469,187.665,594.4,257.933,586.7,372.645Z" transform="translate(-113.7 -146.2)" fill="#9470fa"/>
    </g>
    <g id="Group_102" transform="translate(249.766 253.463)">
      <g id="videoproduction6" transform="translate(0)">
        <g id="Group_80" transform="translate(77.93 0)">
          <path id="Path_561" d="M80.255,275.558a43.015,43.015,0,0,1-30.292-73.5h0A43.015,43.015,0,0,1,110.8,262.9,44.094,44.094,0,0,1,80.255,275.558ZM55.177,207.277a35.367,35.367,0,1,0,25.078-10.428A34.9,34.9,0,0,0,55.177,207.277Z" transform="translate(-37.3 -189.4)" fill="#fff"/>
        </g>
        <g id="Group_81" transform="translate(99.772 21.991)">
          <path id="Path_562" d="M21.305,194.61A21.105,21.105,0,1,1,42.41,173.505,21.087,21.087,0,0,1,21.305,194.61Zm0-34.761a13.656,13.656,0,0,0,0,27.312,13.463,13.463,0,0,0,13.656-13.656h0a13.944,13.944,0,0,0-13.656-13.656Z" transform="translate(-0.2 -152.4)" fill="#fff"/>
        </g>
        <g id="Group_82" transform="translate(19.509 22.64)">
          <path id="Path_563" d="M168.723,214.964c-18.126,0-33.023-14.153-33.023-31.782S150.349,151.4,168.723,151.4s33.023,14.153,33.023,31.782C201.5,200.562,186.849,214.964,168.723,214.964Zm0-56.115c-13.9,0-25.326,10.925-25.326,24.333s11.422,24.333,25.326,24.333,25.326-10.925,25.326-24.333S182.628,158.849,168.723,158.849Z" transform="translate(-135.7 -151.4)" fill="#fff"/>
        </g>
        <g id="Group_83" transform="translate(35.417 37.644)">
          <path id="Path_564" d="M125.584,160.168a16.884,16.884,0,1,1,16.884-16.884C142.716,152.471,135.019,160.168,125.584,160.168Zm0-26.568a9.435,9.435,0,1,0,9.435,9.435h0a9.431,9.431,0,0,0-9.435-9.435Z" transform="translate(-108.7 -126.4)" fill="#fff"/>
        </g>
        <g id="Group_84" transform="translate(19.26 78.466)">
          <path id="Path_565" d="M280.108,141.717H135.6V56.8H280.108ZM143.3,134.02H272.659V64.5H143.3V134.02Z" transform="translate(-135.6 -56.8)" fill="#fff"/>
        </g>
        <g id="Group_85" transform="translate(48.77 105.709)">
          <path id="Path_566" d="M147.332,45.465H86.5V11.2h60.832ZM93.949,38.016h45.935V18.649H93.949Z" transform="translate(-86.5 -11.2)" fill="#fff"/>
        </g>
        <g id="Group_86" transform="translate(0 104.92)">
          <path id="Path_567" d="M195.564,44.33H168.5V12.3h27.064ZM176.2,36.881h11.918V20H176.2Z" transform="translate(-168.5 -12.3)" fill="#fff"/>
        </g>
        <g id="Group_87" transform="translate(52.946 154.41)">
          <path id="Path_568" d="M85.656-1.777,79.2-6l43.452-65.3L156.668-5.5l-6.7,3.476L121.907-56.4Z" transform="translate(-79.2 71.3)" fill="#fff"/>
        </g>
        <g id="Group_88" transform="translate(158.37 80.234)">
          <path id="Path_569" d="M-55.845,131.561l-42.955-22.1,3.476-6.7,31.782,16.387V65.763L-95.324,82.151l-3.476-6.7L-55.845,53.1Z" transform="translate(98.8 -53.1)" fill="#fff"/>
        </g>
        <g id="Group_91" transform="translate(130.261 107.08)">
          <g id="Group_89" transform="translate(0 0)">
            <path id="Path_570" d="M-44.051,23.994c-4.966,0-7.449-3.724-7.449-7.7a9.363,9.363,0,0,1,1.738-5.214A7.041,7.041,0,0,1-44.3,8.6c4.966,0,7.449,3.724,7.449,7.7a8.013,8.013,0,0,1-1.986,5.214A6.249,6.249,0,0,1-44.051,23.994Zm0-11.67c-2.98,0-3.724,2.483-3.724,3.973a3.475,3.475,0,0,0,3.724,3.724A3.163,3.163,0,0,0-41.32,18.78a3.734,3.734,0,0,0,.993-2.731,3.625,3.625,0,0,0-3.724-3.724Z" transform="translate(51.5 -8.6)" fill="#fff"/>
          </g>
          <g id="Group_90" transform="translate(0 16.052)">
            <path id="Path_571" d="M-44.051-3.106c-4.966,0-7.449-3.724-7.449-7.7a9.363,9.363,0,0,1,1.738-5.214A7.041,7.041,0,0,1-44.3-18.5c4.966,0,7.449,3.724,7.449,7.7a8.013,8.013,0,0,1-1.986,5.214A6.249,6.249,0,0,1-44.051-3.106Zm0-11.422c-2.98,0-3.724,2.483-3.724,3.973s.745,3.973,3.724,3.973A3.163,3.163,0,0,0-41.32-7.823a3.734,3.734,0,0,0,.993-2.731c0-1.986-.993-3.973-3.724-3.973Z" transform="translate(51.5 18.5)" fill="#fff"/>
          </g>
        </g>
      </g>
    </g>
  </g>
</svg>
