<svg xmlns="http://www.w3.org/2000/svg" width="473.665" height="438.645" viewBox="0 0 473.665 438.645">
  <g id="_6" data-name="6" transform="translate(-142.8 -102.8)">
    <path id="Path_6" data-name="Path 6" d="M615.97,329.326c-7.2,106.06-96.621,212.119-215.6,212.119-71.783,0-132.14-6.21-185.046-67.063C186.764,439.608,142.8,370.06,142.8,280.642c0-101.589,61.847-177.842,127.917-177.842,32.538,0,40.486,15.9,91.9,43.715a63.468,63.468,0,0,0,25.087,7.2c9.935.745,16.89,3.477,31.545,1.987C540.71,144.28,623.67,214.572,615.97,329.326Z" transform="translate(0 0)" fill="#9470fa"/>
    <path id="Path_7" data-name="Path 7" d="M294.115,219.5c-19.374,16.89-31.048,22.851-43.219,22.354-1.49-5.464-1.987-11.177-4.222-15.9a20.344,20.344,0,0,0-30.551-6.955c-3.229,2.484-5.713,2.981-9.19,1.242a18.537,18.537,0,0,0-7.7-1.987c2.484,3.229,4.968,6.458,7.7,10.432-3.229-.745-6.21-1.49-10.432-2.484,2.732,2.981,4.471,5.713,6.955,7.7,2.732,1.987,3.229,4.471,3.477,7.7,1.987,26.08,13.413,46.2,38,56.631,17.635,7.7,35.27,6.21,52.409-2.732.745-.248,1.242-.994,2.732-1.987-11.426.5-21.113-2.235-30.3-9.19,9.687-1.739,16.393-5.961,19.622-15.151-2.732-.248-5.216-.248-7.7-.5,9.439-4.222,14.655-11.177,15.9-21.858-2.981.745-5.713,1.49-8.445,2.235C296.6,240.12,299.082,230.93,294.115,219.5Z" transform="translate(79.682 166.205)" fill="none" stroke="#fff" stroke-miterlimit="10" stroke-width="5"/>
    <path id="Path_8" data-name="Path 8" d="M235.248,201.083v59.364H208.174V246.785c0-13.413,0-27.074.248-40.486,0-3.726-1.242-5.216-4.719-5.464-7.2-.745-7.2-.994-7.2-8.445V180.219c0-1.739.5-2.732,2.484-2.732,2.732-.248,5.464-.745,8.942-.994v-7.7c.248-4.719.248-9.439.993-13.909,1.49-8.693,6.955-14.655,15.151-15.9,8.942-1.49,18.38-1.242,28.067-1.987,0,7.452,0,14.158-.248,20.616,0,.745-1.739,1.987-2.981,2.235-4.471.745-8.942,1.49-13.413,1.987v15.4h11.177c5.216,0,5.713.5,5.464,5.713l-.745,14.158c0,2.235-1.242,3.229-3.477,3.477C244.19,200.586,239.967,200.835,235.248,201.083Z" transform="translate(79.682 50.747)" fill="none" stroke="#fff" stroke-miterlimit="10" stroke-width="5"/>
    <g id="Group_7" data-name="Group 7" transform="translate(365.352 249.098)">
      <path id="Path_9" data-name="Path 9" d="M272.964,231.773a28.937,28.937,0,1,1,28.813-29.061A28.678,28.678,0,0,1,272.964,231.773Zm16.642-28.812a16.642,16.642,0,1,0-33.283,0c0,9.19,7.451,16.89,16.393,16.89A17.069,17.069,0,0,0,289.606,202.961Z" transform="translate(-214.594 -143.597)" fill="#f7f7f7"/>
      <path id="Path_10" data-name="Path 10" d="M278.964,177.967a6.583,6.583,0,1,1-13.164,0,6.472,6.472,0,0,1,6.706-6.458C276.232,171.26,278.964,174.241,278.964,177.967Z" transform="translate(-182.84 -147.167)" fill="#f7f7f7"/>
      <path id="Path_11" data-name="Path 11" d="M348.643,191.258c-1.242-14.655-10.184-24.59-24.59-27.819a45.331,45.331,0,0,0-9.935-1.242c-12.916-.248-26.08-.5-39-.5-2.484,0-4.968.248-7.451.248v12.668c8.693-.5,17.635-.5,26.329-.5,7.948,0,15.9.248,24.093.5a16.059,16.059,0,0,1,4.968.993c7.948,1.987,12.668,7.2,13.413,15.151.745,9.439.994,18.877,1.49,26.08-.248,9.935-.248,17.635-.745,25.335-.994,14.406-6.21,20.616-20.864,21.113-17.387.745-34.774,0-52.16,0a19.175,19.175,0,0,1-3.726-.5c-8.942-1.987-14.158-7.452-14.9-16.393a334.5,334.5,0,0,1,0-54.644c.994-9.935,7.2-16.145,18.132-16.89h0V162.2c-.5,0-.994.248-1.49.248-16.89,2.235-27.074,12.171-28.564,29.309a316.541,316.541,0,0,0-.248,53.154c.5,6.706,1.987,13.164,5.961,18.629,6.458,9.19,15.4,13.164,26.08,13.661,8.445.5,17.138,0,25.832,0h0c8.693,0,17.387.248,26.08,0,17.884-.745,30.054-12.171,31.793-29.309A359.789,359.789,0,0,0,348.643,191.258Z" transform="translate(-232.4 -161.7)" fill="#f7f7f7"/>
    </g>
  </g>
</svg>
