<svg xmlns="http://www.w3.org/2000/svg" width="473.665" height="438.645" viewBox="0 0 473.665 438.645">
  <g id="_7" data-name="7" transform="translate(-128.2 -145.2)">
    <g id="Group_8" data-name="Group 8" transform="translate(128.2 145.2)">
      <path id="Path_12" data-name="Path 12" d="M601.37,371.726c-7.2,106.06-96.621,212.119-215.6,212.119-71.783,0-132.14-6.21-185.046-67.063C172.164,482.008,128.2,412.46,128.2,323.042c0-101.589,61.847-177.842,127.917-177.842,32.538,0,40.486,15.9,91.9,43.715a63.467,63.467,0,0,0,25.087,7.2c9.935.745,16.89,3.477,31.545,1.987C526.11,186.68,609.07,256.973,601.37,371.726Z" transform="translate(-128.2 -145.2)" fill="#f5815a"/>
    </g>
    <g id="Group_9" data-name="Group 9" transform="translate(274.748 250.8)">
      <g id="Group_32" transform="translate(0 0.275)">
        <path id="Path_60" d="M135.12,163.9,71.286,198.927a3.761,3.761,0,0,1-4.223-.248l-6.21-4.471L4.719,151.237a3.819,3.819,0,0,1-1.49-3.477l10.929-123.2a3.228,3.228,0,0,1,1.987-2.981h0a3.959,3.959,0,0,1,3.726,0L133.133,77.716a4.206,4.206,0,0,1,2.235,3.477l1.739,79.234A3.194,3.194,0,0,1,135.12,163.9ZM69.8,190.73l59.364-32.787L127.42,83.428,21.609,31.02,11.177,146.269l54.4,41.48Z" transform="translate(-3.181 -21.111)" fill="#fff"/>
      </g>
      <g id="Group_33" transform="translate(10.987 0)">
        <path id="Path_61" d="M-52.262,101.476a4.307,4.307,0,0,1-5.464-1.49L-99.7,26.961a4.057,4.057,0,0,1,1.49-5.464h0a4.057,4.057,0,0,1,5.464,1.49l41.977,73.025a3.8,3.8,0,0,1-1.49,5.464Z" transform="translate(100.2 -21)" fill="#fff"/>
      </g>
      <g id="Group_34" transform="translate(42.652 70.904)">
        <path id="Path_62" d="M-22.158-37.02a24.392,24.392,0,0,1-33.035-9.439,24.392,24.392,0,0,1,9.439-33.035A24.392,24.392,0,0,1-12.72-70.055h0A24.329,24.329,0,0,1-22.158-37.02ZM-41.78-72.538a16.4,16.4,0,0,0-6.458,22.106,16.564,16.564,0,0,0,22.106,6.458A16.564,16.564,0,0,0-19.674-66.08h0A16.067,16.067,0,0,0-41.78-72.538Z" transform="translate(58.218 82.518)" fill="#fff"/>
      </g>
      <g id="Group_35" transform="translate(44.853 132.312)">
        <path id="Path_63" d="M159.964-170.671l-122.7,67.56a4.171,4.171,0,0,1-4.471-.5,22.582,22.582,0,0,1-6.458-17.884c.994-14.655,17.635-35.519,18.132-36.264a3.706,3.706,0,0,1,5.464-.5,3.706,3.706,0,0,1,.5,5.464c-4.471,5.464-15.648,21.858-16.393,32.041a16.669,16.669,0,0,0,1.987,9.19l117.485-64.828c-.5-3.726-2.732-10.68-12.668-12.419-15.4-2.732-26.08,1.242-26.329,1.242a3.794,3.794,0,0,1-4.968-2.484,3.859,3.859,0,0,1,2.235-4.968c.5-.248,12.668-4.719,30.3-1.49,16.145,2.732,19.622,16.145,19.374,22.6C161.951-172.658,161.205-171.416,159.964-170.671Z" transform="translate(-26.278 197.67)" fill="#fff"/>
      </g>
    </g>
  </g>
</svg>
