<svg xmlns="http://www.w3.org/2000/svg" width="486.574" height="450.6" viewBox="0 0 486.574 450.6">
  <g id="_8" data-name="8" transform="translate(-128.2 -145.2)">
    <g id="Group_10" data-name="Group 10" transform="translate(128.2 145.2)">
      <path id="Path_13" data-name="Path 13" d="M614.266,377.9c-7.4,108.95-99.254,217.9-221.473,217.9-73.739,0-135.741-6.379-190.089-68.891-29.343-35.721-74.5-107.164-74.5-199.019,0-104.358,63.533-182.69,131.4-182.69,33.425,0,41.59,16.33,94.407,44.907a65.2,65.2,0,0,0,25.771,7.4c10.206.765,17.35,3.572,32.4,2.041C536.955,187.811,622.176,260.019,614.266,377.9Z" transform="translate(-128.2 -145.2)" fill="#f5815a"/>
    </g>
    <path id="Path_14" data-name="Path 14" d="M202.895,271.116c-6.124-1.531-12.247-3.317-18.881-4.848C186.82,290,198.3,305.562,219.224,314.747c-5.613.51-10.972.51-17.1,1.021,7.144,20.412,22.2,29.853,43.631,33.68-20.412,15.564-41.845,21.433-67.36,20.412,3.317,2.3,4.338,3.827,6.124,4.338,38.018,19.9,77.311,23.219,116.35,6.124,54.6-23.219,80.118-67.871,84.456-125.79.51-7.144,1.531-12.758,7.655-17.1,5.613-4.338,9.441-10.461,15.564-17.1-9.441,2.3-16.075,3.827-23.219,5.613,6.124-8.93,11.482-16.075,17.1-23.219-6.634,0-12.247,2.3-17.1,4.338-7.655,3.827-13.268,2.807-20.412-2.807-22.709-17.1-55.113-9.951-67.871,15.564-4.848,10.461-6.124,23.219-9.441,35.211-27.046,1.021-53.072-12.247-95.937-49.755C180.7,230.8,186.31,251.214,202.895,271.116Z" transform="translate(77.887 77.186)" fill="none" stroke="#fff" stroke-miterlimit="10" stroke-width="5"/>
  </g>
</svg>
