<svg xmlns="http://www.w3.org/2000/svg" width="473.665" height="438.645" viewBox="0 0 473.665 438.645">
  <g id="_9" data-name="9" transform="translate(-129.7 -138.5)">
    <g id="Group_11" data-name="Group 11" transform="translate(129.7 138.5)">
      <path id="Path_15" data-name="Path 15" d="M602.87,365.026c-7.2,106.06-96.621,212.119-215.6,212.119-71.783,0-132.14-6.21-185.046-67.063C173.664,475.308,129.7,405.76,129.7,316.342c0-101.589,61.847-177.842,127.917-177.842,32.538,0,40.486,15.9,91.9,43.715a63.467,63.467,0,0,0,25.087,7.2c9.935.745,16.89,3.477,31.545,1.987C527.61,179.732,610.57,250.024,602.87,365.026Z" transform="translate(-129.7 -138.5)" fill="#9470fa"/>
    </g>
    <g id="Group_12" data-name="Group 12" transform="translate(252.898 244.966)">
      <path id="Path_16" data-name="Path 16" d="M292.563,406.738H192.216c-8.693,0-12.916-4.471-12.916-12.916V283.291c0-4.719,1.739-8.2,5.216-11.426,33.035-28.316,66.07-56.88,99.1-85.2,3.477-2.981,7.2-5.216,11.922-3.974a15.049,15.049,0,0,1,5.216,2.732c5.713,4.719,11.426,9.439,16.89,14.406,1.49,1.242,2.235,1.49,3.974.248,5.713-4.223,11.426-8.2,17.138-12.419a23.952,23.952,0,0,1,9.19-4.223c2.235-.5,4.223-1.242,6.458-1.739,4.719-1.242,8.445.994,9.687,5.713,2.484,8.693,4.719,17.635,7.2,26.329,3.477,13.164,6.955,26.329,10.68,39.493a7.133,7.133,0,0,0,1.987,3.229c5.961,5.216,11.922,10.432,18.132,15.648a12.955,12.955,0,0,1,4.719,10.432V394.07c0,7.948-4.719,12.419-12.668,12.419C360.123,406.738,326.343,406.738,292.563,406.738ZM189.732,277.578a1.91,1.91,0,0,0,.5.745l70.789,56.631c.994.994,1.739.745,2.732,0,6.955-5.713,14.158-11.426,21.113-16.89,5.464-4.471,10.68-4.471,16.145,0,6.955,5.464,13.909,11.177,20.864,16.642,1.49,1.242,2.235,1.242,3.726,0l63.338-50.67,7.451-5.961c-4.719-3.974-9.19-7.948-12.916-11.177-2.732,1.242-4.719,2.484-6.955,3.229a41.385,41.385,0,0,1-7.451,1.987,21.873,21.873,0,0,1-4.223.5c-16.89-1.49-33.532-3.229-50.422-4.968-3.726-.248-7.451-.745-11.426-.994a4.85,4.85,0,0,1,.248,1.739c1.987,7.451,3.974,15.151,5.961,22.6a12.311,12.311,0,0,1-.5,8.445,11.682,11.682,0,0,1-10.929,6.706,10.653,10.653,0,0,1-10.184-7.948c-2.235-7.948-4.471-16.145-6.706-24.093a12.114,12.114,0,0,1-.745-1.739c-4.471,1.49-9.19,2.235-13.661,1.242-10.432-2.235-17.884-10.68-18.38-20.616a23.281,23.281,0,0,1,16.642-23.348c2.484-.745,4.968-1.49,7.452-1.987,16.89-4.223,16.89-4.223,30.8-14.158,3.229-2.235,6.21-4.471,9.439-6.955l-1.739-1.739c-4.968-4.223-9.687-8.2-14.655-12.419-3.229-2.732-4.223-2.732-7.451,0-24.838,21.361-49.428,42.474-74.267,63.835C206.622,262.924,198.177,270.127,189.732,277.578Zm5.216,121.459H390.674a18.059,18.059,0,0,1-2.235-1.987q-45.827-36.512-91.653-73.273c-3.477-2.732-4.471-2.732-7.948,0-19.622,15.648-39,31.048-58.618,46.7C218.793,379.912,207.119,389.351,194.948,399.038Zm61.1-58.618c-23.1-18.38-45.951-36.761-69.051-55.141V395.56C210.1,377.18,232.951,359.048,256.05,340.419Zm142.82,55.141V285.278c-23.1,18.38-45.951,36.761-69.051,55.141C352.92,359.048,375.771,377.18,398.871,395.56ZM342.239,194.618c-.5.248-.745.5-.994.5l-43.964,31.3a1.774,1.774,0,0,0-.745,2.484c2.484,8.942,4.968,17.884,7.2,26.825.5,2.484,1.739,3.229,4.222,3.229,12.668.994,25.087,2.484,37.754,3.477,4.968.5,9.935.994,15.4,1.49C354.659,241.066,348.449,217.966,342.239,194.618Zm-45.206,65.076c-2.732-9.935-5.216-19.622-7.948-29.309-7.452,1.987-14.655,3.726-21.858,5.961A14.993,14.993,0,0,0,256.3,253.982a14.686,14.686,0,0,0,17.635,11.674C281.386,264.165,289.085,261.93,297.034,259.695Zm52.16-68.8c6.706,24.59,13.164,48.683,19.622,73.025,2.732-.745,4.968-1.242,7.2-1.987-6.458-24.342-13.164-48.683-19.622-73.025C353.913,189.651,351.678,190.4,349.194,190.892ZM288.34,269.878v.993c2.235,7.948,4.223,16.145,6.458,24.093.745,2.484,2.484,3.726,4.719,2.981s3.229-2.484,2.484-4.968c-.994-4.223-2.235-8.2-3.229-12.171-1.242-4.223-2.235-8.445-3.477-12.916C292.811,268.636,290.576,269.382,288.34,269.878Z" transform="translate(-179.3 -181.364)" fill="#fff"/>
      <path id="Path_17" data-name="Path 17" d="M264.961,205.443c-2.484,0-3.974-.994-4.471-2.732-.5-1.987.248-3.726,1.987-4.223,5.216-1.49,10.68-2.981,15.9-4.223,1.739-.5,3.229.745,3.726,2.484s.248,3.726-1.739,4.471C275.393,202.711,269.929,203.953,264.961,205.443Z" transform="translate(-59.051 -162.383)" fill="#fff"/>
      <path id="Path_18" data-name="Path 18" d="M279.377,216.043c-4.719-1.242-9.935-2.732-15.4-4.222-1.739-.5-2.484-2.235-1.987-4.223s1.987-3.229,3.974-2.732c5.216,1.242,10.432,2.732,15.648,4.223,1.987.5,2.484,2.235,2.235,4.222C283.6,215.049,282.109,216.043,279.377,216.043Z" transform="translate(-56.826 -146.654)" fill="#fff"/>
      <path id="Path_19" data-name="Path 19" d="M272.2,182.6c.994.745,2.484,1.49,2.732,2.484a4.442,4.442,0,0,1-.248,3.974c-3.726,3.974-7.451,7.948-11.426,11.426-1.49,1.49-3.477.994-4.968-.5a3.533,3.533,0,0,1-.248-4.968c3.726-3.974,7.451-7.7,11.426-11.426C269.962,183.345,270.955,183.1,272.2,182.6Z" transform="translate(-63.803 -179.529)" fill="#fff"/>
    </g>
  </g>
</svg>
